<svg width="720" height="663" viewBox="0 0 720 663" fill="none" xmlns="http://www.w3.org/2000/svg">
<mask id="mask0_258_65030" style="mask-type:alpha" maskUnits="userSpaceOnUse" x="0" y="0" width="820" height="663">
<rect width="820" height="663" fill="url(#paint0_linear_258_65030)"/>
</mask>
<g mask="url(#mask0_258_65030)">
<g clip-path="url(#clip0_258_65030)">
<path d="M742.128 556.898C737.885 564.135 733.462 571.263 728.857 578.282C721.434 577.278 714.077 576.205 706.786 575.064C718.766 569.467 730.584 563.452 742.128 556.898Z" fill="#FFBB54"/>
<path d="M660.881 593.855C655.629 599.91 650.226 605.821 644.674 611.587C637.523 609.649 630.448 607.639 623.447 605.559C636.045 602.148 648.523 598.247 660.881 593.855Z" fill="#FFBB54"/>
<path d="M575.657 616.163C569.694 620.89 563.598 625.424 557.417 629.805C550.65 627.007 543.946 624.189 537.304 621.352C550.118 620.075 562.902 618.345 575.657 616.163Z" fill="#FFBB54"/>
<path d="M489.071 623.834C482.701 627.121 476.264 630.219 469.759 633.127C463.411 629.667 457.139 626.161 450.918 622.648C463.589 623.509 476.307 623.904 489.071 623.834Z" fill="#FFBB54"/>
<path d="M403.604 617.289C397.151 619.111 390.678 620.738 384.185 622.171C378.29 618.151 372.473 614.085 366.684 610.039C378.874 612.883 391.185 615.34 403.604 617.289Z" fill="#FFBB54"/>
<path d="M321.518 597.329C315.299 597.728 309.107 597.923 302.942 597.915C297.527 593.41 292.147 588.912 286.756 584.471C298.162 589.151 309.749 593.437 321.518 597.329Z" fill="#FFBB54"/>
<path d="M244.821 565.057C239.129 564.104 233.495 563.003 227.965 561.639C222.944 556.82 217.96 551.994 213.014 547.161C223.362 553.507 233.988 559.457 244.821 565.057Z" fill="#FFBB54"/>
<path d="M175.226 521.821C170.323 519.67 165.541 517.346 160.881 514.848C156.285 509.715 151.642 504.64 147.029 499.554C156.127 507.302 165.551 514.712 175.226 521.821Z" fill="#FFBB54"/>
<path d="M114.118 469.166C110.226 465.997 106.489 462.684 102.942 459.218C98.6556 453.883 94.3544 448.559 90.0385 443.248C97.7489 452.138 105.81 460.755 114.118 469.166Z" fill="#FFBB54"/>
<path d="M692.588 546.58C688.147 553.254 683.505 559.788 678.753 566.24C671.817 564.897 664.947 563.492 658.143 562.027C669.786 557.282 681.268 552.133 692.588 546.58Z" fill="#FFBB54"/>
<path d="M613.52 577.661C608.171 583.156 602.643 588.461 597.04 593.671C590.37 591.501 583.751 589.323 577.211 587.058C589.414 584.384 601.517 581.251 613.52 577.661Z" fill="#FFBB54"/>
<path d="M530.918 595.024C524.94 599.196 518.844 603.167 512.681 606.989C506.345 604.093 500.038 601.234 493.805 598.314C506.199 597.679 518.57 596.582 530.918 595.024Z" fill="#FFBB54"/>
<path d="M447.154 598.653C440.857 601.421 434.488 603.966 428.09 606.359C422.105 602.888 416.161 599.418 410.258 595.947C422.507 597.272 434.806 598.174 447.154 598.653Z" fill="#FFBB54"/>
<path d="M364.491 588.891C358.169 590.189 351.854 591.357 345.534 592.307C339.912 588.349 334.321 584.396 328.76 580.447C340.548 583.69 352.48 586.45 364.491 588.891Z" fill="#FFBB54"/>
<path d="M285.014 566.406C278.993 566.371 273.013 566.127 267.077 565.675C261.804 561.312 256.529 556.982 251.314 552.613C262.361 557.608 273.595 562.205 285.014 566.406Z" fill="#FFBB54"/>
<path d="M210.605 532.15C205.159 530.811 199.8 529.288 194.528 527.581C189.579 522.878 184.633 518.184 179.69 513.502C189.76 520.068 200.086 526.271 210.605 532.15Z" fill="#FFBB54"/>
<path d="M142.905 487.295C138.292 484.792 133.79 482.152 129.435 479.347C124.771 474.349 120.097 469.358 115.415 464.374C124.305 472.31 133.494 479.934 142.905 487.295Z" fill="#FFBB54"/>
<path d="M723.395 489.015C718.626 499.277 713.439 509.339 707.835 519.201C698.398 518.073 689.08 516.81 679.884 515.412C694.843 507.389 709.368 498.577 723.395 489.015Z" fill="#FFBB54"/>
<path d="M652.795 528.844C646.455 537.726 639.696 546.297 632.68 554.638C623.474 552.368 614.384 550.013 605.41 547.575C621.523 542.171 637.34 535.918 652.795 528.844Z" fill="#FFBB54"/>
<path d="M576.427 556.337C568.837 563.536 560.992 570.445 552.885 576.984C543.997 573.721 535.215 570.411 526.538 567.052C543.341 564.347 559.993 560.771 576.427 556.337Z" fill="#FFBB54"/>
<path d="M496.474 570.996C488.084 576.382 479.471 581.355 470.729 585.992C462.22 581.865 453.794 577.723 445.449 573.566C462.489 573.556 479.497 572.7 496.474 570.996Z" fill="#FFBB54"/>
<path d="M415.112 572.684C406.303 576.091 397.416 579.117 388.45 581.762C380.326 576.915 372.27 572.059 364.281 567.193C381.125 569.836 398.069 571.667 415.112 572.684Z" fill="#FFBB54"/>
<path d="M334.44 561.589C325.663 563.022 316.899 564.071 308.148 564.736C300.41 559.255 292.715 553.777 285.063 548.302C301.302 553.493 317.775 557.977 334.44 561.589Z" fill="#FFBB54"/>
<path d="M256.44 538.189C248.111 537.718 239.886 536.864 231.764 535.627C224.4 529.582 217.041 523.554 209.688 517.544C224.919 525.182 240.545 532.038 256.44 538.189Z" fill="#FFBB54"/>
<path d="M182.95 503.226C175.52 500.99 168.209 498.38 161.044 495.406C154.025 488.844 146.971 482.311 139.881 475.809C153.806 485.595 168.162 494.734 182.95 503.226Z" fill="#FFBB54"/>
<path d="M115.615 457.67C109.335 453.891 103.287 449.742 97.5013 445.244C90.7653 438.218 84.0225 431.165 77.1644 424.184C89.4695 435.91 102.286 447.071 115.615 457.67Z" fill="#FFBB54"/>
<path d="M744.562 428.839C740.58 442.288 735.929 455.542 730.609 468.601C719.412 468.074 708.388 467.301 697.537 466.281C714.032 454.868 729.743 442.359 744.562 428.839Z" fill="#FFBB54"/>
<path d="M683.697 475.482C677.419 487.569 670.595 499.357 663.225 510.848C652.146 508.98 641.256 506.861 630.522 504.672C648.857 496.1 666.619 486.35 683.697 475.482Z" fill="#FFBB54"/>
<path d="M615.194 511.489C607.05 521.837 598.457 531.81 589.402 541.319C578.57 538.189 567.889 534.98 557.358 531.691C577.041 526.183 596.358 519.436 615.194 511.489Z" fill="#FFBB54"/>
<path d="M540.961 535.959C531.457 544.264 521.536 552.079 511.238 559.375C500.694 555.223 490.314 550.94 480.027 546.684C500.541 544.391 520.893 540.809 540.961 535.959Z" fill="#FFBB54"/>
<path d="M462.994 548.301C452.561 554.311 441.832 559.789 430.847 564.716C420.659 559.577 410.557 554.44 400.539 549.305C421.356 550.249 442.214 549.914 462.994 548.301Z" fill="#FFBB54"/>
<path d="M383.306 548.238C372.476 551.865 361.461 554.911 350.308 557.364C340.459 551.396 330.686 545.4 320.902 539.51C341.506 543.671 362.346 546.585 383.306 548.238Z" fill="#FFBB54"/>
<path d="M303.894 535.787C293.179 537.015 282.403 537.634 271.62 537.641C262.101 530.906 252.581 524.206 243.061 517.539C262.96 524.813 283.273 530.906 303.894 535.787Z" fill="#FFBB54"/>
<path d="M226.69 511.244C216.584 510.145 206.555 508.438 196.657 506.13C187.402 498.731 178.178 491.278 168.883 483.886C187.601 494.123 206.903 503.258 226.69 511.244Z" fill="#FFBB54"/>
<path d="M153.531 475.164C144.489 471.92 135.675 468.075 127.147 463.657C118.203 455.526 109.16 447.441 100.102 439.296C117.181 452.304 135.023 464.281 153.531 475.164Z" fill="#FFBB54"/>
<path d="M755.559 368.936C753.341 384.479 750.244 399.885 746.284 415.08C734.436 415.293 722.784 415.161 711.33 414.829C727.23 400.691 742.017 385.347 755.559 368.936Z" fill="#FFBB54"/>
<path d="M705.107 420.253C700.128 434.742 694.334 448.94 687.754 462.778C675.886 461.544 664.217 460.119 652.746 458.504C671.129 447.079 688.632 434.293 705.107 420.253Z" fill="#FFBB54"/>
<path d="M645.567 462.867C638.177 475.793 630.053 488.286 621.236 500.284C609.45 497.806 597.875 495.097 586.457 492.353C606.861 484.002 626.619 474.146 645.567 462.867Z" fill="#FFBB54"/>
<path d="M578.509 495.528C569.11 506.437 559.111 516.813 548.558 526.609C536.953 522.914 525.496 519.164 514.187 515.361C536.068 510.284 557.563 503.656 578.509 495.528Z" fill="#FFBB54"/>
<path d="M505.67 517.257C494.781 525.818 483.425 533.768 471.655 541.069C460.253 536.324 448.957 531.568 437.768 526.801C460.594 525.208 483.284 522.019 505.67 517.257Z" fill="#FFBB54"/>
<path d="M428.902 527.346C417.078 533.336 404.928 538.655 392.508 543.28C381.325 537.571 370.195 531.883 359.119 526.214C382.324 528.182 405.64 528.561 428.902 527.346Z" fill="#FFBB54"/>
<path d="M350.121 525.374C337.945 528.698 325.583 531.296 313.102 533.156C302.128 526.543 291.153 519.968 280.178 513.429C303.194 518.984 326.561 522.975 350.121 525.374Z" fill="#FFBB54"/>
<path d="M271.271 511.203C259.31 511.839 247.322 511.731 235.377 510.882C224.595 503.405 213.765 495.959 202.885 488.545C225.148 497.613 247.994 505.183 271.271 511.203Z" fill="#FFBB54"/>
<path d="M194.285 484.961C183.084 483.036 172.029 480.348 161.198 476.916C150.595 468.577 139.906 460.247 129.13 451.926C150.092 464.365 171.859 475.401 194.285 484.961Z" fill="#FFBB54"/>
<path d="M121.05 447.044C111.11 442.738 101.509 437.692 92.3257 431.949C81.8942 422.742 71.3634 413.489 60.7333 404.19C79.8716 419.788 100.021 434.104 121.05 447.044Z" fill="#FFBB54"/>
<path d="M757.267 310.367C757.367 326.932 756.421 343.489 754.435 359.939C742.712 360.856 731.193 361.457 719.876 361.74C733.772 345.704 746.281 328.518 757.267 310.367Z" fill="#FFBB54"/>
<path d="M717.6 364.345C714.58 380.314 710.574 396.083 705.607 411.561C693.718 411.112 682.039 410.419 670.57 409.482C687.451 395.744 703.18 380.648 717.6 364.345Z" fill="#FFBB54"/>
<path d="M667.802 411.712C661.931 426.481 655.157 440.877 647.518 454.816C635.563 453.117 623.819 451.166 612.254 449.162C631.743 438.188 650.319 425.665 667.802 411.712Z" fill="#FFBB54"/>
<path d="M609.062 450.944C600.687 463.961 591.545 476.47 581.682 488.402C569.736 485.5 557.953 482.516 546.333 479.451C567.949 471.593 588.923 462.062 609.062 450.944Z" fill="#FFBB54"/>
<path d="M542.794 480.724C532.423 491.572 521.398 501.776 509.782 511.279C497.868 507.317 486.091 503.278 474.406 499.256C497.635 494.818 520.497 488.623 542.794 480.724Z" fill="#FFBB54"/>
<path d="M470.609 499.969C458.759 508.289 446.41 515.874 433.632 522.68C421.77 517.691 409.989 512.679 398.235 507.729C422.513 506.912 446.703 504.318 470.609 499.969Z" fill="#FFBB54"/>
<path d="M394.271 507.844C381.531 513.413 368.457 518.18 355.126 522.117C343.313 516.143 331.5 510.202 319.686 504.294C344.426 507.277 369.353 508.463 394.271 507.844Z" fill="#FFBB54"/>
<path d="M315.652 503.792C302.637 506.515 289.459 508.379 276.203 509.37C264.415 502.448 252.603 495.518 240.706 488.643C265.296 495.457 290.34 500.519 315.652 503.792Z" fill="#FFBB54"/>
<path d="M236.703 487.515C224.014 487.399 211.35 486.393 198.804 484.505C187.044 476.609 175.227 468.661 163.277 460.748C187.086 471.396 211.623 480.341 236.703 487.515Z" fill="#FFBB54"/>
<path d="M159.407 459.004C147.621 456.15 136.067 452.419 124.841 447.843C113.163 438.874 101.316 429.927 89.3806 420.871C111.792 435.218 135.192 447.961 159.407 459.004Z" fill="#FFBB54"/>
<path d="M728.922 -22.2284C745.11 -15.1135 760.732 -6.77694 775.652 2.70913C768.815 11.095 761.462 19.0472 753.637 26.5193C746.911 9.54412 738.638 -6.77387 728.922 -22.2284Z" fill="#FFBB54"/>
<path d="M750.393 254.221C752.996 270.838 754.466 287.616 754.793 304.437C743.754 305.958 732.903 307.081 722.26 307.897C733.227 290.882 742.643 272.918 750.393 254.221Z" fill="#FFBB54"/>
<path d="M721.589 308.936C720.908 325.503 719.125 342.008 716.252 358.342C704.928 358.565 693.811 358.55 682.903 358.297C697.206 342.996 710.15 326.48 721.589 308.936Z" fill="#FFBB54"/>
<path d="M682.026 359.232C678.203 375.079 673.355 390.663 667.513 405.886C655.989 404.933 644.659 403.831 633.522 402.582C650.878 389.52 667.104 375.018 682.026 359.232Z" fill="#FFBB54"/>
<path d="M632.458 403.381C625.771 417.893 618.171 431.968 609.705 445.521C598.027 443.492 586.512 441.374 575.159 439.167C595.206 428.831 614.371 416.861 632.458 403.381Z" fill="#FFBB54"/>
<path d="M573.93 439.797C564.788 452.439 554.86 464.494 544.205 475.891C532.398 472.812 520.703 469.724 509.119 466.629C531.399 459.422 553.072 450.45 573.93 439.797Z" fill="#FFBB54"/>
<path d="M507.755 467.069C496.662 477.417 484.914 487.039 472.584 495.876C460.645 491.822 448.762 487.786 436.934 483.766C460.937 480.057 484.617 474.475 507.755 467.069Z" fill="#FFBB54"/>
<path d="M435.468 483.99C422.957 491.672 409.972 498.552 396.592 504.589C384.512 499.556 372.427 494.559 360.337 489.599C385.483 489.634 410.599 487.759 435.468 483.99Z" fill="#FFBB54"/>
<path d="M358.801 489.596C345.499 494.422 331.896 498.373 318.081 501.423C305.851 495.394 293.561 489.395 281.21 483.427C306.882 487.405 332.817 489.467 358.801 489.596Z" fill="#FFBB54"/>
<path d="M279.647 483.179C266.177 485.04 252.599 485.991 239.004 486.026C226.624 478.965 214.143 471.894 201.561 464.813C227.097 472.858 253.197 478.997 279.647 483.179Z" fill="#FFBB54"/>
<path d="M200.005 464.324C186.994 463.252 174.078 461.254 161.354 458.345C148.877 450.131 136.248 441.894 123.466 433.634C148.201 445.7 173.781 455.957 200.005 464.324Z" fill="#FFBB54"/>
<path d="M121.962 432.897C110.004 429.022 98.3595 424.242 87.1297 418.598C74.5774 409.199 61.8807 399.687 49.0397 390.062C72.2663 406.102 96.639 420.419 121.962 432.897Z" fill="#FFBB54"/>
<path d="M704.987 1.32295C719.76 8.53571 733.97 16.8459 747.497 26.1839C740.728 32.5265 733.575 38.4464 726.079 43.9101C720.379 29.0915 713.318 14.835 704.987 1.32295Z" fill="#FFBB54"/>
<path d="M727.069 46.5195C739.968 56.5182 752.116 67.4505 763.413 79.2286C755.767 84.3825 747.845 89.1129 739.682 93.3985C736.939 77.4128 732.716 61.7191 727.069 46.5195Z" fill="#FFBB54"/>
<path d="M740.15 96.2192C750.668 108.535 760.292 121.587 768.95 135.276C760.366 139.356 751.825 142.906 743.387 145.985C743.856 129.329 742.773 112.668 740.15 96.2192Z" fill="#FFBB54"/>
<path d="M743.287 148.932C751.034 163.002 757.796 177.593 763.523 192.601C754.395 195.514 745.37 197.954 736.509 200.024C740.329 183.235 742.598 166.132 743.287 148.932Z" fill="#FFBB54"/>
<path d="M735.817 202.998C740.541 218.195 744.231 233.697 746.86 249.396C737.299 251.172 727.905 252.621 718.678 253.744C725.912 237.378 731.648 220.394 735.817 202.998Z" fill="#FFBB54"/>
<path d="M717.38 256.649C718.974 272.316 719.523 288.074 719.025 303.818C709.118 304.553 699.394 305.05 689.852 305.311C700.432 289.924 709.644 273.641 717.38 256.649Z" fill="#FFBB54"/>
<path d="M687.955 308.042C686.455 323.527 683.932 338.897 680.401 354.052C670.201 353.823 660.174 353.433 650.321 352.883C664.118 339.033 676.708 324.031 687.955 308.042Z" fill="#FFBB54"/>
<path d="M647.851 355.342C643.384 370.008 637.987 384.375 631.693 398.357C621.225 397.212 610.898 395.983 600.713 394.668C617.48 382.878 633.246 369.725 647.851 355.342Z" fill="#FFBB54"/>
<path d="M597.715 396.762C590.574 410.024 582.624 422.834 573.909 435.121C563.168 433.079 552.524 431.032 541.978 428.979C561.38 419.736 580.018 408.963 597.715 396.762Z" fill="#FFBB54"/>
<path d="M538.509 430.616C529.104 441.972 519.021 452.749 508.316 462.888C497.283 459.991 486.297 457.12 475.356 454.275C496.98 448.019 518.093 440.109 538.509 430.616Z" fill="#FFBB54"/>
<path d="M471.501 455.375C460.335 464.434 448.623 472.798 436.431 480.419C425.082 476.658 413.73 472.925 402.374 469.22C425.726 466.332 448.833 461.705 471.501 455.375Z" fill="#FFBB54"/>
<path d="M398.216 469.718C385.831 476.17 373.056 481.841 359.966 486.7C348.297 481.998 336.584 477.31 324.776 472.71C349.293 473.511 373.839 472.511 398.216 469.718Z" fill="#FFBB54"/>
<path d="M320.421 472.551C307.405 476.195 294.174 479.011 280.805 480.982C268.816 475.273 256.709 469.618 244.515 463.91C269.573 468.61 294.941 471.498 320.421 472.551Z" fill="#FFBB54"/>
<path d="M240.073 463.059C227.042 463.834 213.976 463.746 200.959 462.795C188.67 456.002 176.251 449.165 163.702 442.283C188.628 451.022 214.15 457.965 240.073 463.059Z" fill="#FFBB54"/>
<path d="M159.291 440.72C146.844 438.669 134.558 435.744 122.525 431.968C110.021 423.935 97.3243 415.885 84.5444 407.627C108.626 420.448 133.606 431.508 159.291 440.72Z" fill="#FFBB54"/>
<path d="M654.7 -15.8384C668.843 -11.5969 682.664 -6.34961 696.055 -0.136575C690.566 5.17466 684.751 10.1374 678.643 14.7225C671.562 3.86056 663.551 -6.36476 654.7 -15.8384Z" fill="#FFBB54"/>
<path d="M681.77 19.6696C694.636 26.7142 706.997 34.642 718.765 43.3962C712.569 47.743 706.14 51.7468 699.507 55.3895C694.672 42.9762 688.736 31.022 681.77 19.6696Z" fill="#FFBB54"/>
<path d="M701.621 61.0346C712.687 70.5186 723.091 80.7477 732.761 91.6505C725.806 95.1703 718.873 98.2522 712.017 100.918C709.742 87.3392 706.263 73.9922 701.621 61.0346Z" fill="#FFBB54"/>
<path d="M712.965 107.099C721.789 118.579 729.833 130.639 737.043 143.197C729.625 145.809 722.283 148.009 715.077 149.928C715.637 135.615 714.93 121.283 712.965 107.099Z" fill="#FFBB54"/>
<path d="M714.737 156.442C720.97 169.402 726.359 182.753 730.868 196.411C723.063 198.164 715.392 199.631 707.852 200.812C711.429 186.247 713.733 171.402 714.737 156.442Z" fill="#FFBB54"/>
<path d="M706.134 207.446C709.562 221.303 712.126 235.362 713.811 249.54C705.663 250.48 697.664 251.238 689.814 251.813C696.498 237.51 701.958 222.667 706.134 207.446Z" fill="#FFBB54"/>
<path d="M686.673 258.323C687.247 272.467 686.944 286.634 685.767 300.743C677.295 300.971 668.964 301.073 660.775 301.048C670.564 287.539 679.226 273.249 686.673 258.323Z" fill="#FFBB54"/>
<path d="M656.216 307.191C653.971 321.025 650.885 334.709 646.974 348.169C638.168 347.709 629.479 347.186 620.909 346.601C633.711 334.428 645.518 321.249 656.216 307.191Z" fill="#FFBB54"/>
<path d="M614.98 352.13C610.06 365.07 604.395 377.715 598.013 390.002C588.845 388.87 579.758 387.728 570.752 386.575C586.346 376.232 601.132 364.717 614.98 352.13Z" fill="#FFBB54"/>
<path d="M563.549 391.245C556.25 402.762 548.319 413.867 539.794 424.51C530.224 422.697 520.692 420.912 511.198 419.152C529.306 411.143 546.803 401.815 563.549 391.245Z" fill="#FFBB54"/>
<path d="M502.863 422.739C493.627 432.431 483.833 441.575 473.53 450.124C463.524 447.594 453.518 445.076 443.484 442.657C463.723 437.438 483.567 430.782 502.863 422.739Z" fill="#FFBB54"/>
<path d="M434.197 444.958C423.43 452.409 412.254 459.25 400.721 465.447C390.25 462.135 379.726 458.856 369.151 455.61C391.052 453.577 412.786 450.017 434.197 444.958Z" fill="#FFBB54"/>
<path d="M359.137 456.448C347.381 461.415 335.355 465.718 323.117 469.334C312.179 465.13 301.149 460.945 290.025 456.779C313.041 458.218 336.131 458.107 359.137 456.448Z" fill="#FFBB54"/>
<path d="M279.536 456.019C267.353 458.372 255.044 460.004 242.671 460.907C231.282 455.719 219.78 450.491 208.163 445.224C231.685 450.407 255.529 454.013 279.536 456.019Z" fill="#FFBB54"/>
<path d="M197.482 442.761C185.436 442.447 173.423 441.384 161.511 439.578C149.741 433.242 137.862 426.794 125.813 420.322C149.176 429.384 173.119 436.881 197.482 442.761Z" fill="#FFBB54"/>
<path d="M115.24 416.105C103.89 413.169 92.7456 409.494 81.8777 405.103C69.8242 397.495 57.6745 389.699 45.355 381.812C67.866 394.772 91.2119 406.228 115.24 416.105Z" fill="#FFBB54"/>
<path d="M635.314 1.266C646.825 5.38525 658.075 10.1997 669.001 15.6827C664.328 18.9435 659.479 21.9441 654.477 24.6707C648.723 16.3708 642.315 8.54441 635.314 1.266Z" fill="#FFBB54"/>
<path d="M660.359 33.6801C670.688 40.0799 680.62 47.0979 690.102 54.6956C684.9 57.3393 679.723 59.6694 674.569 61.6857C670.587 51.9853 665.835 42.6202 660.359 33.6801Z" fill="#FFBB54"/>
<path d="M678.53 72.1765C687.234 80.5575 695.437 89.4428 703.099 98.7866C697.571 100.779 692.111 102.513 686.72 103.99C684.848 93.1811 682.11 82.5424 678.53 72.1765Z" fill="#FFBB54"/>
<path d="M688.412 115.638C695.133 125.604 701.281 135.944 706.827 146.61C701.014 148.015 695.296 149.224 689.673 150.236C690.159 138.687 689.737 127.119 688.412 115.638Z" fill="#FFBB54"/>
<path d="M688.809 162.656C693.286 173.743 697.146 185.07 700.374 196.585C694.288 197.483 688.306 198.23 682.427 198.826C685.472 186.948 687.605 174.856 688.809 162.656Z" fill="#FFBB54"/>
<path d="M678.802 211.564C680.883 223.272 682.331 235.084 683.14 246.95C676.764 247.371 670.487 247.68 664.31 247.946C670.03 236.191 674.873 224.03 678.802 211.564Z" fill="#FFBB54"/>
<path d="M657.806 260.506C657.448 272.316 656.469 284.1 654.874 295.81C648.167 295.797 641.55 295.71 635.012 295.636C643.437 284.483 651.055 272.743 657.806 260.506Z" fill="#FFBB54"/>
<path d="M625.609 307.499C622.865 318.898 619.552 330.153 615.68 341.222C608.597 340.761 601.573 340.31 594.607 339.868C605.661 329.791 616.019 318.977 625.609 307.499Z" fill="#FFBB54"/>
<path d="M582.391 350.497C577.465 361.013 572.01 371.273 566.047 381.238C558.527 380.344 551.045 379.425 543.577 378.599C557.107 370.079 570.072 360.692 582.391 350.497Z" fill="#FFBB54"/>
<path d="M528.739 387.483C521.879 396.688 514.548 405.525 506.838 413.988C498.83 412.598 490.819 411.225 482.803 409.871C498.568 403.38 513.911 395.903 528.739 387.483Z" fill="#FFBB54"/>
<path d="M465.634 416.523C457.169 424.035 448.346 431.102 439.257 437.743C430.726 435.747 422.156 433.787 413.546 431.862C431.202 427.809 448.596 422.686 465.634 416.523Z" fill="#FFBB54"/>
<path d="M394.432 435.839C384.77 441.351 374.913 446.439 364.849 450.958C355.773 448.285 346.631 445.619 337.422 442.959C356.548 441.728 375.586 439.35 394.432 435.839Z" fill="#FFBB54"/>
<path d="M316.833 443.881C306.462 447.238 296 450.059 285.448 452.343C275.851 448.816 266.143 445.348 256.359 441.806C276.457 443.68 296.65 444.373 316.833 443.881Z" fill="#FFBB54"/>
<path d="M234.842 439.379C224.235 440.432 213.646 440.91 203.134 440.901C193.046 436.437 182.854 431.927 172.559 427.369C193.069 432.567 213.865 436.577 234.842 439.379Z" fill="#FFBB54"/>
<path d="M150.718 421.377C140.455 420.098 130.264 418.29 120.189 415.961C109.703 410.401 99.1173 404.737 88.4319 398.97C108.75 407.617 129.545 415.098 150.718 421.377Z" fill="#FFBB54"/>
<path d="M588.424 -9.50293C597.537 -7.78648 606.569 -5.62386 615.521 -3.01505C612.172 -0.877463 608.808 1.05078 605.428 2.76965C600.035 -1.68961 594.355 -5.78929 588.424 -9.50293Z" fill="#FFBB54"/>
<path d="M617.209 13.5221C625.684 17.1168 633.991 21.1255 642.129 25.5483C638.573 27.2114 635.032 28.689 631.507 29.9811C627.105 24.1884 622.329 18.6903 617.209 13.5221Z" fill="#FFBB54"/>
<path d="M640.895 43.7312C648.35 49.042 655.573 54.6945 662.564 60.6889C658.832 61.9354 655.148 63.0452 651.502 63.9799C648.414 57.0044 644.871 50.2403 640.895 43.7312Z" fill="#FFBB54"/>
<path d="M657.788 80.3468C663.928 87.0784 669.759 94.1025 675.28 101.419C671.396 102.326 667.567 103.11 663.792 103.771C662.302 95.84 660.296 88.0154 657.788 80.3468Z" fill="#FFBB54"/>
<path d="M666.333 122.229C670.885 130.078 675.085 138.143 678.932 146.423C674.874 147.037 670.879 147.569 666.946 148.019C667.3 139.417 667.095 130.802 666.333 122.229Z" fill="#FFBB54"/>
<path d="M665.212 167.89C667.995 176.496 670.399 185.232 672.424 194.099C668.158 194.47 663.953 194.78 659.81 195.071C662.164 186.128 663.969 177.051 665.212 167.89Z" fill="#FFBB54"/>
<path d="M653.408 215.573C654.309 224.542 654.838 233.554 654.996 242.609C650.47 242.787 645.998 242.911 641.574 243.023C646.051 234.111 650.002 224.945 653.408 215.573Z" fill="#FFBB54"/>
<path d="M630.277 263.281C629.295 272.21 627.984 281.117 626.259 289.954C621.409 289.895 616.597 289.842 611.823 289.795C618.461 281.306 624.622 272.454 630.277 263.281Z" fill="#FFBB54"/>
<path d="M595.583 308.894C592.787 317.387 589.697 325.789 586.23 334.041C580.993 333.746 575.775 333.472 570.574 333.218C579.337 325.561 587.686 317.441 595.583 308.894Z" fill="#FFBB54"/>
<path d="M549.532 350.212C545.127 357.928 540.336 365.415 535.35 372.758C529.664 372.165 523.972 371.632 518.282 371.096C529.047 364.67 539.477 357.7 549.532 350.212Z" fill="#FFBB54"/>
<path d="M492.775 385.07C486.9 391.633 480.801 397.967 474.478 404.074C468.294 403.13 462.087 402.21 455.856 401.314C468.578 396.442 480.884 391.027 492.775 385.07Z" fill="#FFBB54"/>
<path d="M426.396 411.399C419.396 416.575 412.2 421.451 404.875 426.078C398.16 424.695 391.421 423.255 384.621 421.901C398.868 419.019 412.793 415.518 426.396 411.399Z" fill="#FFBB54"/>
<path d="M351.899 427.322C344.083 430.868 336.179 434.15 328.176 437.083C320.941 435.091 313.648 433.101 306.299 431.111C321.714 430.553 336.914 429.29 351.899 427.322Z" fill="#FFBB54"/>
<path d="M271.16 431.207C262.919 433.029 254.651 434.515 246.356 435.664C238.615 432.984 230.826 430.232 222.956 427.49C239.115 429.483 255.183 430.722 271.16 431.207Z" fill="#FFBB54"/>
<path d="M186.38 421.74C178.09 421.728 169.853 421.39 161.669 420.726C153.511 417.16 145.276 413.56 136.962 409.927C153.392 414.644 169.865 418.582 186.38 421.74Z" fill="#FFBB54"/>
<path d="M100.034 397.979C92.0939 396.14 84.2825 393.996 76.5998 391.548C68.1024 387.018 59.5419 382.406 50.9183 377.711C67.1016 385.262 83.4735 392.018 100.034 397.979Z" fill="#FFBB54"/>
<path d="M573.06 0.226562C578.746 1.67828 584.398 3.29444 589.989 5.111C587.927 5.88597 585.873 6.58072 583.826 7.19528C580.326 4.70437 576.737 2.38148 573.06 0.226562Z" fill="#FFBB54"/>
<path d="M600.976 21.6285C606.178 24.2562 611.297 27.0497 616.336 30.0089C614.232 30.5665 612.143 31.0532 610.069 31.4691C607.183 28.0228 604.137 24.7461 600.976 21.6285Z" fill="#FFBB54"/>
<path d="M623.751 50.6302C628.23 54.3102 632.6 58.126 636.863 62.0777C634.71 62.4706 632.578 62.7978 630.474 63.0854C628.418 58.7988 626.161 54.6475 623.751 50.6302Z" fill="#FFBB54"/>
<path d="M639.527 86.4051C643.094 90.9452 646.524 95.597 649.816 100.36C647.595 100.634 645.402 100.868 643.236 101.062C642.202 96.0833 640.966 91.1977 639.527 86.4051Z" fill="#FFBB54"/>
<path d="M646.621 127.705C649.109 132.898 651.452 138.165 653.65 143.505C651.324 143.697 649.027 143.879 646.753 144.011C646.938 138.523 646.894 133.088 646.621 127.705Z" fill="#FFBB54"/>
<path d="M643.61 172.915C644.921 178.512 646.081 184.147 647.092 189.821C644.613 189.939 642.159 190.079 639.724 190.19C641.285 184.434 642.565 178.663 643.61 172.915Z" fill="#FFBB54"/>
<path d="M629.418 220.109C629.516 225.848 629.458 231.592 629.243 237.341C626.554 237.413 623.881 237.492 621.223 237.579C624.206 231.799 626.956 225.977 629.418 220.109Z" fill="#FFBB54"/>
<path d="M603.392 267.12C602.279 272.74 600.993 278.33 599.61 283.9C596.653 283.881 593.7 283.936 590.758 283.945C595.226 278.442 599.437 272.834 603.392 267.12Z" fill="#FFBB54"/>
<path d="M565.334 311.639C563.078 316.891 560.688 322.084 558.166 327.217C554.884 327.113 551.6 327.011 548.315 326.948C554.215 321.984 559.888 316.88 565.334 311.639Z" fill="#FFBB54"/>
<path d="M515.54 351.305C512.261 355.958 508.848 360.514 505.353 364.999C501.7 364.723 498.038 364.468 494.368 364.235C501.642 360.136 508.691 355.797 515.54 351.305Z" fill="#FFBB54"/>
<path d="M454.794 383.798C450.648 387.645 446.412 391.384 442.087 395.017C438.034 394.511 433.962 394.035 429.878 393.525C438.35 390.497 446.655 387.255 454.794 383.798Z" fill="#FFBB54"/>
<path d="M384.355 406.937C379.547 409.819 374.674 412.574 369.736 415.199C365.271 414.376 360.782 413.545 356.271 412.706C365.765 411.049 375.126 409.126 384.355 406.937Z" fill="#FFBB54"/>
<path d="M305.928 418.756C300.674 420.529 295.394 422.18 290.09 423.709C285.229 422.436 280.336 421.171 275.412 419.915C285.667 419.855 295.844 419.437 305.928 418.756Z" fill="#FFBB54"/>
<path d="M221.612 417.589C216.177 418.233 210.733 418.67 205.305 419.016C200.068 417.258 194.814 415.44 189.526 413.612C200.244 415.298 210.939 416.623 221.612 417.589Z" fill="#FFBB54"/>
<path d="M133.855 402.13C128.486 401.543 123.146 400.84 117.855 399.958C112.33 397.535 106.753 395.132 101.174 392.636C112.034 396.14 122.928 399.304 133.855 402.13Z" fill="#FFBB54"/>
<path d="M558.145 5.11523C560.839 5.99436 563.526 6.9054 566.193 7.86826C565.271 7.98308 564.354 8.09097 563.444 8.18139C561.698 7.11448 559.931 6.09243 558.145 5.11523Z" fill="#FFBB54"/>
<path d="M585.835 25.5906C588.252 27.0317 590.65 28.5077 593.029 30.0188C592.118 30.0891 591.213 30.1336 590.312 30.1661C588.849 28.6045 587.357 27.0793 585.835 25.5906Z" fill="#FFBB54"/>
<path d="M608.116 54.1683C610.155 56.0912 612.15 58.0592 614.125 60.0496C613.21 60.0718 612.3 60.1039 611.399 60.1206C610.353 58.1004 609.258 56.1163 608.116 54.1683Z" fill="#FFBB54"/>
<path d="M622.97 89.9043C624.514 92.2307 626.043 94.57 627.525 96.9403C626.581 96.9778 625.644 96.9778 624.713 97.0083C624.177 94.618 623.596 92.25 622.97 89.9043Z" fill="#FFBB54"/>
<path d="M628.579 131.397C629.577 134 630.537 136.62 631.478 139.25C630.477 139.277 629.478 139.335 628.488 139.358C628.57 136.691 628.6 134.037 628.579 131.397Z" fill="#FFBB54"/>
<path d="M623.447 176.834C623.872 179.59 624.236 182.358 624.571 185.128C623.471 185.172 622.377 185.225 621.287 185.287C622.047 182.465 622.803 179.653 623.447 176.834Z" fill="#FFBB54"/>
<path d="M606.476 224.084C606.302 226.869 606.06 229.651 605.788 232.429C604.555 232.479 603.328 232.563 602.1 232.618C603.62 229.785 605.071 226.937 606.476 224.084Z" fill="#FFBB54"/>
<path d="M577.045 270.772C576.255 273.45 575.46 276.127 574.595 278.781C573.195 278.836 571.795 278.893 570.395 278.939C572.661 276.232 574.882 273.515 577.045 270.772Z" fill="#FFBB54"/>
<path d="M535.05 314.389C533.731 316.848 532.363 319.282 530.968 321.697C529.368 321.706 527.766 321.717 526.164 321.731C529.19 319.331 532.152 316.884 535.05 314.389Z" fill="#FFBB54"/>
<path d="M480.925 352.393C479.11 354.507 477.273 356.6 475.413 358.671C473.593 358.582 471.768 358.55 469.943 358.456C473.653 356.482 477.314 354.461 480.925 352.393Z" fill="#FFBB54"/>
<path d="M415.645 382.323C413.448 384.02 411.205 385.653 408.966 387.288C406.915 387.088 404.853 386.905 402.789 386.681C407.12 385.299 411.405 383.846 415.645 382.323Z" fill="#FFBB54"/>
<path d="M340.685 401.891C338.185 403.058 335.684 404.219 333.162 405.32C330.878 404.919 328.576 404.576 326.282 404.156C331.116 403.497 335.918 402.742 340.685 401.891Z" fill="#FFBB54"/>
<path d="M257.999 409.081C255.329 409.688 252.657 410.253 249.983 410.817C247.476 410.197 244.962 409.566 242.441 408.924C247.645 409.051 252.83 409.104 257.999 409.081Z" fill="#FFBB54"/>
<path d="M169.947 402.217C167.237 402.239 164.53 402.224 161.826 402.172C159.124 401.253 156.413 400.334 153.703 399.38C159.126 400.393 164.538 401.359 169.947 402.217Z" fill="#FFBB54"/>
<path d="M79.2496 380.041C76.6247 379.45 74.0107 378.837 71.4077 378.202C68.5662 376.91 65.7009 375.641 62.8374 374.347C68.2946 376.333 73.7736 378.209 79.2496 380.041Z" fill="#FFBB54"/>
<path d="M419.029 14.9795C419.257 14.8543 419.481 14.7251 419.706 14.5993L419.456 14.6869C419.314 14.7848 419.171 14.8831 419.029 14.9795Z" fill="#FFBB54"/>
<path d="M448.064 0.0126953C448.307 -0.0631259 448.551 -0.132647 448.794 -0.207249L448.549 -0.162523C448.387 -0.105066 448.227 -0.046998 448.064 0.0126953Z" fill="#FFBB54"/>
<path d="M544.22 5.82812C544.442 5.92771 544.675 6.00533 544.899 6.10065L544.693 6.07686C544.537 5.98981 544.375 5.91537 544.22 5.82812Z" fill="#FFBB54"/>
<path d="M572.137 26.1299C572.334 26.2716 572.539 26.4014 572.735 26.5451L572.535 26.5205C572.41 26.3826 572.268 26.2608 572.137 26.1299Z" fill="#FFBB54"/>
<path d="M594.157 55.0704C594.324 55.2448 594.478 55.4318 594.643 55.6076L594.444 55.5879C594.351 55.4149 594.267 55.2343 594.157 55.0704Z" fill="#FFBB54"/>
<path d="M608.098 91.5297C608.224 91.7348 608.325 91.955 608.451 92.1605L608.242 92.1552C608.188 91.9456 608.15 91.7363 608.098 91.5297Z" fill="#FFBB54"/>
<path d="M612.038 133.891C612.098 134.126 612.175 134.354 612.241 134.587L612.011 134.595C612.014 134.36 612.012 134.124 612.038 133.891Z" fill="#FFBB54"/>
<path d="M604.435 180.118C604.459 180.357 604.457 180.601 604.479 180.841L604.217 180.863C604.302 180.619 604.375 180.37 604.435 180.118Z" fill="#FFBB54"/>
<path d="M584.209 227.829C584.188 228.07 584.113 228.304 584.096 228.546L583.789 228.577C583.928 228.326 584.074 228.079 584.209 227.829Z" fill="#FFBB54"/>
<path d="M550.831 274.415C550.745 274.643 550.648 274.867 550.561 275.095L550.198 275.125C550.408 274.886 550.621 274.654 550.831 274.415Z" fill="#FFBB54"/>
<path d="M504.331 317.157C504.183 317.351 504.054 317.559 503.922 317.765C503.781 317.759 503.639 317.792 503.496 317.784C503.77 317.572 504.052 317.366 504.331 317.157Z" fill="#FFBB54"/>
<path d="M445.339 353.346C445.173 353.521 444.98 353.673 444.812 353.851C444.647 353.853 444.481 353.857 444.317 353.849C444.664 353.692 444.992 353.495 445.339 353.346Z" fill="#FFBB54"/>
<path d="M375.065 380.383C374.869 380.529 374.661 380.657 374.442 380.765C374.254 380.756 374.067 380.716 373.877 380.721C374.277 380.62 374.672 380.502 375.065 380.383Z" fill="#FFBB54"/>
<path d="M295.246 395.905C295.008 395.957 294.794 396.093 294.558 396.146C294.344 396.135 294.132 396.101 293.925 396.046C294.366 396.001 294.804 395.944 295.246 395.905Z" fill="#FFBB54"/>
<path d="M208.116 397.869C207.878 397.905 207.632 397.902 207.395 397.958C207.167 397.884 206.935 397.826 206.7 397.784C207.172 397.819 207.644 397.838 208.116 397.869Z" fill="#FFBB54"/>
<path d="M116.329 384.636C116.089 384.6 115.846 384.61 115.609 384.564C115.351 384.509 115.115 384.372 114.862 384.301C115.359 384.373 115.842 384.518 116.329 384.636Z" fill="#FFBB54"/>
</g>
<g opacity="0.4" clip-path="url(#clip1_258_65030)" filter="url(#filter0_f_258_65030)">
<path d="M695.683 510.453C691.439 517.69 687.016 524.818 682.412 531.837C674.988 530.833 667.631 529.76 660.341 528.619C672.321 523.021 684.138 517.007 695.683 510.453Z" fill="#FFBB54"/>
<path d="M614.436 547.41C609.183 553.465 603.78 559.376 598.228 565.142C591.078 563.203 584.002 561.194 577.001 559.113C589.599 555.703 602.077 551.801 614.436 547.41Z" fill="#FFBB54"/>
<path d="M529.211 569.718C523.249 574.445 517.153 578.979 510.971 583.36C504.205 580.562 497.5 577.744 490.858 574.906C503.672 573.629 516.457 571.9 529.211 569.718Z" fill="#FFBB54"/>
<path d="M442.625 577.389C436.255 580.676 429.818 583.773 423.314 586.682C416.965 583.222 410.693 579.716 404.473 576.203C417.143 577.064 429.861 577.459 442.625 577.389Z" fill="#FFBB54"/>
<path d="M357.158 570.844C350.705 572.666 344.232 574.293 337.74 575.725C331.845 571.705 326.027 567.64 320.239 563.594C332.429 566.438 344.739 568.895 357.158 570.844Z" fill="#FFBB54"/>
<path d="M275.073 550.883C268.853 551.283 262.661 551.478 256.496 551.469C251.081 546.965 245.701 542.467 240.311 538.025C251.716 542.706 263.303 546.992 275.073 550.883Z" fill="#FFBB54"/>
<path d="M198.375 518.611C192.683 517.659 187.049 516.557 181.519 515.194C176.498 510.375 171.514 505.549 166.568 500.716C176.916 507.062 187.542 513.012 198.375 518.611Z" fill="#FFBB54"/>
<path d="M128.78 475.375C123.877 473.224 119.095 470.9 114.435 468.403C109.839 463.27 105.197 458.195 100.583 453.109C109.681 460.857 119.106 468.267 128.78 475.375Z" fill="#FFBB54"/>
<path d="M67.6717 422.721C63.7801 419.552 60.0432 416.238 56.4961 412.773C52.2098 407.437 47.9086 402.114 43.5927 396.803C51.3031 405.693 59.3642 414.31 67.6717 422.721Z" fill="#FFBB54"/>
<path d="M719.248 455.758C716.015 463.437 712.553 471.019 708.862 478.506C701.759 478.093 694.713 477.658 687.743 477.019C698.51 470.363 709.012 463.276 719.248 455.758Z" fill="#FFBB54"/>
<path d="M646.142 500.134C641.702 506.808 637.06 513.343 632.307 519.794C625.371 518.451 618.501 517.047 611.697 515.582C623.34 510.836 634.822 505.687 646.142 500.134Z" fill="#FFBB54"/>
<path d="M567.075 531.215C561.725 536.71 556.197 542.016 550.595 547.226C543.924 545.056 537.305 542.878 530.765 540.612C542.968 537.938 555.071 534.806 567.075 531.215Z" fill="#FFBB54"/>
<path d="M484.472 548.579C478.495 552.75 472.398 556.721 466.235 560.543C459.899 557.648 453.592 554.789 447.36 551.869C459.753 551.233 472.124 550.137 484.472 548.579Z" fill="#FFBB54"/>
<path d="M400.709 552.208C394.412 554.976 388.042 557.521 381.644 559.913C375.659 556.443 369.715 552.973 363.812 549.502C376.061 550.827 388.36 551.729 400.709 552.208Z" fill="#FFBB54"/>
<path d="M318.045 542.446C311.723 543.743 305.408 544.912 299.088 545.862C293.466 541.904 287.875 537.951 282.315 534.002C294.102 537.245 306.034 540.005 318.045 542.446Z" fill="#FFBB54"/>
<path d="M238.568 519.961C232.547 519.925 226.568 519.682 220.631 519.229C215.358 514.866 210.083 510.537 204.868 506.168C215.915 511.162 227.149 515.76 238.568 519.961Z" fill="#FFBB54"/>
<path d="M164.16 485.705C158.714 484.366 153.355 482.843 148.083 481.136C143.133 476.432 138.187 471.739 133.245 467.057C143.314 473.622 153.64 479.825 164.16 485.705Z" fill="#FFBB54"/>
<path d="M96.4589 440.85C91.8463 438.346 87.344 435.707 82.9887 432.901C78.3247 427.904 73.6516 422.913 68.9694 417.929C77.8591 425.865 87.0483 433.489 96.4589 440.85Z" fill="#FFBB54"/>
<path d="M739.646 391.257C736.75 402.567 733.403 413.773 729.605 424.874C720.071 424.992 710.649 424.948 701.339 424.74C714.71 414.288 727.498 403.11 739.646 391.257Z" fill="#FFBB54"/>
<path d="M676.95 442.57C672.18 452.831 666.993 462.893 661.389 472.756C651.952 471.628 642.635 470.365 633.438 468.967C648.397 460.943 662.922 452.132 676.95 442.57Z" fill="#FFBB54"/>
<path d="M606.349 482.398C600.009 491.28 593.25 499.851 586.234 508.192C577.028 505.922 567.938 503.568 558.964 501.13C575.077 495.725 590.894 489.473 606.349 482.398Z" fill="#FFBB54"/>
<path d="M529.981 509.892C522.391 517.091 514.546 524 506.439 530.539C497.552 527.276 488.769 523.965 480.093 520.606C496.895 517.902 513.547 514.326 529.981 509.892Z" fill="#FFBB54"/>
<path d="M450.029 524.551C441.638 529.937 433.026 534.91 424.283 539.546C415.775 535.419 407.348 531.278 399.004 527.121C416.043 527.111 433.051 526.254 450.029 524.551Z" fill="#FFBB54"/>
<path d="M368.667 526.239C359.857 529.645 350.97 532.671 342.004 535.317C333.88 530.47 325.824 525.614 317.836 520.748C334.679 523.391 351.623 525.221 368.667 526.239Z" fill="#FFBB54"/>
<path d="M287.994 515.144C279.218 516.576 270.454 517.626 261.702 518.291C253.964 512.81 246.27 507.332 238.617 501.856C254.856 507.048 271.329 511.532 287.994 515.144Z" fill="#FFBB54"/>
<path d="M209.994 491.744C201.666 491.273 193.44 490.419 185.318 489.182C177.954 483.137 170.595 477.109 163.242 471.099C178.473 478.736 194.099 485.593 209.994 491.744Z" fill="#FFBB54"/>
<path d="M136.504 456.781C129.075 454.544 121.763 451.934 114.598 448.961C107.579 442.399 100.525 435.866 93.4355 429.363C107.36 439.15 121.717 448.289 136.504 456.781Z" fill="#FFBB54"/>
<path d="M69.1693 411.224C62.8897 407.446 56.8411 403.297 51.0556 398.799C44.3196 391.773 37.5768 384.72 30.7187 377.739C43.0238 389.464 55.8407 400.626 69.1693 411.224Z" fill="#FFBB54"/>
<path d="M749.564 326.34C748.133 340.652 745.976 354.913 743.092 369.122C731.929 370.047 720.921 370.69 710.068 371.051C724.257 357.083 737.454 342.143 749.564 326.34Z" fill="#FFBB54"/>
<path d="M698.116 382.393C694.134 395.843 689.483 409.097 684.163 422.155C672.966 421.628 661.943 420.855 651.092 419.836C667.587 408.422 683.297 395.913 698.116 382.393Z" fill="#FFBB54"/>
<path d="M637.251 429.037C630.973 441.124 624.149 452.912 616.78 464.402C605.7 462.535 594.811 460.416 584.077 458.227C602.411 449.655 620.173 439.905 637.251 429.037Z" fill="#FFBB54"/>
<path d="M568.748 465.044C560.604 475.392 552.012 485.365 542.956 494.874C532.125 491.744 521.443 488.535 510.912 485.246C530.596 479.738 549.913 472.991 568.748 465.044Z" fill="#FFBB54"/>
<path d="M494.515 489.514C485.011 497.819 475.09 505.634 464.792 512.93C454.249 508.778 443.868 504.494 433.581 500.238C454.095 497.946 474.447 494.364 494.515 489.514Z" fill="#FFBB54"/>
<path d="M416.549 501.855C406.116 507.865 395.386 513.344 384.401 518.27C374.213 513.132 364.111 507.995 354.094 502.859C374.911 503.804 395.768 503.468 416.549 501.855Z" fill="#FFBB54"/>
<path d="M336.86 501.793C326.03 505.419 315.015 508.466 303.862 510.919C294.013 504.95 284.24 498.955 274.456 493.064C295.061 497.225 315.9 500.14 336.86 501.793Z" fill="#FFBB54"/>
<path d="M257.449 489.341C246.733 490.57 235.958 491.189 225.174 491.196C215.655 484.461 206.135 477.76 196.615 471.094C216.515 478.367 236.828 484.461 257.449 489.341Z" fill="#FFBB54"/>
<path d="M180.244 464.799C170.138 463.7 160.109 461.992 150.211 459.685C140.956 452.285 131.732 444.833 122.437 437.44C141.156 447.677 160.458 456.812 180.244 464.799Z" fill="#FFBB54"/>
<path d="M107.085 428.719C98.0433 425.474 89.2292 421.63 80.7013 417.211C71.7571 409.081 62.7141 400.996 53.6559 392.851C70.7353 405.859 88.5767 417.836 107.085 428.719Z" fill="#FFBB54"/>
<path d="M749.109 263.974C749.915 279.989 749.777 296.04 748.694 312.042C737.034 313.813 725.54 315.188 714.212 316.168C727.219 299.728 738.889 282.274 749.109 263.974Z" fill="#FFBB54"/>
<path d="M709.113 322.491C706.895 338.033 703.798 353.439 699.838 368.635C687.991 368.848 676.338 368.715 664.884 368.384C680.784 354.245 695.571 338.902 709.113 322.491Z" fill="#FFBB54"/>
<path d="M658.661 373.808C653.682 388.297 647.888 402.494 641.309 416.333C629.441 415.099 617.771 413.674 606.3 412.059C624.683 400.634 642.186 387.848 658.661 373.808Z" fill="#FFBB54"/>
<path d="M599.121 416.422C591.731 429.348 583.607 441.84 574.79 453.839C563.005 451.361 551.429 448.652 540.011 445.907C560.415 437.556 580.173 427.701 599.121 416.422Z" fill="#FFBB54"/>
<path d="M532.063 449.083C522.665 459.992 512.665 470.368 502.112 480.164C490.508 476.468 479.051 472.719 467.741 468.916C489.622 463.838 511.117 457.21 532.063 449.083Z" fill="#FFBB54"/>
<path d="M459.224 470.812C448.335 479.373 436.98 487.322 425.21 494.623C413.807 489.879 402.512 485.123 391.322 480.355C414.148 478.763 436.838 475.574 459.224 470.812Z" fill="#FFBB54"/>
<path d="M382.456 480.901C370.633 486.89 358.482 492.21 346.062 496.835C334.879 491.126 323.75 485.437 312.674 479.769C335.879 481.737 359.194 482.115 382.456 480.901Z" fill="#FFBB54"/>
<path d="M303.675 478.929C291.499 482.253 279.137 484.851 266.656 486.71C255.682 480.098 244.708 473.522 233.733 466.983C256.748 472.539 280.116 476.53 303.675 478.929Z" fill="#FFBB54"/>
<path d="M224.825 464.758C212.864 465.393 200.877 465.286 188.931 464.437C178.15 456.96 167.319 449.514 156.439 442.1C178.702 451.168 201.548 458.737 224.825 464.758Z" fill="#FFBB54"/>
<path d="M147.839 438.516C136.639 436.591 125.584 433.903 114.752 430.47C104.149 422.132 93.4602 413.802 82.6841 405.48C103.647 417.92 125.413 428.956 147.839 438.516Z" fill="#FFBB54"/>
<path d="M74.6041 400.599C64.6645 396.292 55.0629 391.247 45.8799 385.504C35.4484 376.296 24.9176 367.043 14.2875 357.745C33.4258 373.343 53.5752 387.659 74.6041 400.599Z" fill="#FFBB54"/>
<path d="M736.306 -42.0347C751.064 -32.3319 765.118 -21.5992 778.363 -9.9163C770.679 -1.3384 762.523 6.80394 753.931 14.4725C749.739 -4.85037 743.841 -23.7602 736.306 -42.0347Z" fill="#FFBB54"/>
<path d="M756.408 143.062C762.998 158.822 768.533 175.004 772.977 191.502C762.086 195.527 751.267 198.965 740.595 201.93C747.596 182.81 752.888 163.11 756.408 143.062Z" fill="#FFBB54"/>
<path d="M739.443 205.031C742.826 221.528 745.107 238.234 746.27 255.038C734.866 257.478 723.611 259.416 712.553 261.022C723.134 243.177 732.131 224.442 739.443 205.031Z" fill="#FFBB54"/>
<path d="M710.821 263.922C710.921 280.487 709.975 297.044 707.989 313.494C696.266 314.411 684.747 315.011 673.43 315.294C687.326 299.259 699.835 282.073 710.821 263.922Z" fill="#FFBB54"/>
<path d="M671.155 317.9C668.134 333.869 664.128 349.638 659.161 365.115C647.272 364.667 635.593 363.974 624.124 363.037C641.005 349.299 656.734 334.203 671.155 317.9Z" fill="#FFBB54"/>
<path d="M621.356 365.267C615.485 380.036 608.711 394.431 601.073 408.371C589.117 406.672 577.374 404.721 565.808 402.717C585.297 391.743 603.873 379.219 621.356 365.267Z" fill="#FFBB54"/>
<path d="M562.617 404.498C554.242 417.516 545.099 430.024 535.237 441.956C523.29 439.055 511.507 436.071 499.887 433.006C521.503 425.148 542.477 415.616 562.617 404.498Z" fill="#FFBB54"/>
<path d="M496.348 434.279C485.977 445.126 474.952 455.33 463.337 464.834C451.422 460.872 439.645 456.833 427.96 452.811C451.189 448.373 474.051 442.178 496.348 434.279Z" fill="#FFBB54"/>
<path d="M424.163 453.523C412.313 461.844 399.964 469.429 387.186 476.235C375.324 471.246 363.543 466.234 351.789 461.284C376.068 460.466 400.257 457.873 424.163 453.523Z" fill="#FFBB54"/>
<path d="M347.825 461.399C335.086 466.968 322.012 471.734 308.68 475.671C296.867 469.697 285.054 463.757 273.24 457.849C297.98 460.831 322.907 462.018 347.825 461.399Z" fill="#FFBB54"/>
<path d="M269.206 457.346C256.192 460.07 243.014 461.934 229.757 462.925C217.969 456.003 206.157 449.073 194.26 442.197C218.85 449.011 243.894 454.074 269.206 457.346Z" fill="#FFBB54"/>
<path d="M190.257 441.07C177.568 440.953 164.904 439.947 152.359 438.059C140.598 430.163 128.781 422.216 116.832 414.303C140.64 424.951 165.177 433.896 190.257 441.07Z" fill="#FFBB54"/>
<path d="M112.961 412.559C101.176 409.705 89.6217 405.974 78.3955 401.398C66.7171 392.428 54.8702 383.481 42.9348 374.426C65.3459 388.773 88.7462 401.516 112.961 412.559Z" fill="#FFBB54"/>
<path d="M707.593 -18.8997C721.903 -8.75507 735.439 2.43935 748.088 14.5913C740.028 21.6015 731.582 28.1537 722.789 34.217C719.379 16.0766 714.291 -1.70523 707.593 -18.8997Z" fill="#FFBB54"/>
<path d="M722.99 35.3153C734.873 48.009 745.82 61.5484 755.744 75.8273C746.713 81.4367 737.396 86.5714 727.832 91.2104C727.984 72.4646 726.363 53.7495 722.99 35.3153Z" fill="#FFBB54"/>
<path d="M727.821 92.3475C736.856 107.006 744.836 122.291 751.699 138.086C741.644 142.394 731.639 146.087 721.777 149.302C725.549 130.542 727.572 111.475 727.821 92.3475Z" fill="#FFBB54"/>
<path d="M721.544 150.444C727.434 166.424 732.207 182.797 735.828 199.443C725.196 202.309 714.721 204.717 704.402 206.668C711.837 188.493 717.576 169.671 721.544 150.444Z" fill="#FFBB54"/>
<path d="M703.948 207.775C706.55 224.393 708.02 241.171 708.347 257.992C697.308 259.513 686.457 260.635 675.814 261.452C686.781 244.437 696.197 226.472 703.948 207.775Z" fill="#FFBB54"/>
<path d="M675.144 262.491C674.462 279.058 672.679 295.563 669.806 311.897C658.482 312.12 647.365 312.105 636.457 311.852C650.76 296.551 663.704 280.034 675.144 262.491Z" fill="#FFBB54"/>
<path d="M635.58 312.786C631.757 328.634 626.909 344.218 621.067 359.44C609.543 358.487 598.213 357.386 587.076 356.137C604.433 343.075 620.658 328.573 635.58 312.786Z" fill="#FFBB54"/>
<path d="M586.012 356.936C579.325 371.448 571.725 385.522 563.259 399.076C551.582 397.047 540.066 394.929 528.713 392.722C548.76 382.385 567.925 370.416 586.012 356.936Z" fill="#FFBB54"/>
<path d="M527.485 393.352C518.342 405.994 508.414 418.049 497.759 429.445C485.952 426.366 474.257 423.279 462.673 420.184C484.953 412.977 506.626 404.005 527.485 393.352Z" fill="#FFBB54"/>
<path d="M461.309 420.624C450.216 430.972 438.468 440.594 426.138 449.43C414.2 445.377 402.316 441.34 390.488 437.32C414.491 433.612 438.171 428.029 461.309 420.624Z" fill="#FFBB54"/>
<path d="M389.022 437.545C376.511 445.226 363.527 452.107 350.147 458.144C338.066 453.11 325.981 448.114 313.891 443.153C339.037 443.189 364.153 441.314 389.022 437.545Z" fill="#FFBB54"/>
<path d="M312.355 443.151C299.053 447.977 285.45 451.928 271.635 454.978C259.405 448.949 247.115 442.95 234.765 436.981C260.436 440.959 286.371 443.022 312.355 443.151Z" fill="#FFBB54"/>
<path d="M233.201 436.734C219.731 438.594 206.153 439.545 192.558 439.581C180.178 432.519 167.697 425.448 155.115 418.368C180.651 426.413 206.751 432.552 233.201 436.734Z" fill="#FFBB54"/>
<path d="M153.559 417.878C140.548 416.807 127.632 414.809 114.908 411.9C102.431 403.685 89.8021 395.448 77.0203 387.188C101.755 399.255 127.335 409.511 153.559 417.878Z" fill="#FFBB54"/>
<path d="M75.5166 386.452C63.5582 382.577 51.9137 377.796 40.6839 372.152C28.1316 362.754 15.4349 353.242 2.59387 343.616C25.8205 359.657 50.1932 373.974 75.5166 386.452Z" fill="#FFBB54"/>
<path d="M680.623 0.0741785C693.523 10.0729 705.67 21.0052 716.967 32.7833C709.322 37.9372 701.4 42.6676 693.237 46.9532C690.493 30.9675 686.271 15.2738 680.623 0.0741785Z" fill="#FFBB54"/>
<path d="M693.704 49.7739C704.222 62.0898 713.847 75.1418 722.505 88.8306C713.92 92.9102 705.379 96.4611 696.942 99.5395C697.411 82.8837 696.327 66.2231 693.704 49.7739Z" fill="#FFBB54"/>
<path d="M696.841 102.487C704.589 116.556 711.35 131.148 717.077 146.156C707.949 149.069 698.925 151.508 690.063 153.579C693.884 136.789 696.152 119.687 696.841 102.487Z" fill="#FFBB54"/>
<path d="M689.371 156.553C694.095 171.75 697.785 187.252 700.415 202.951C690.853 204.727 681.459 206.176 672.232 207.298C679.466 190.933 685.202 173.949 689.371 156.553Z" fill="#FFBB54"/>
<path d="M670.934 210.204C672.528 225.871 673.077 241.628 672.579 257.372C662.672 258.107 652.948 258.605 643.406 258.865C653.986 243.479 663.198 227.196 670.934 210.204Z" fill="#FFBB54"/>
<path d="M641.509 261.597C640.009 277.081 637.486 292.452 633.955 307.606C623.755 307.377 613.729 306.988 603.875 306.437C617.672 292.587 630.263 277.586 641.509 261.597Z" fill="#FFBB54"/>
<path d="M601.405 308.897C596.938 323.562 591.541 337.93 585.247 351.912C574.779 350.767 564.452 349.537 554.267 348.223C571.034 336.433 586.8 323.28 601.405 308.897Z" fill="#FFBB54"/>
<path d="M551.269 350.317C544.128 363.578 536.178 376.389 527.463 388.675C516.722 386.634 506.078 384.586 495.532 382.533C514.935 373.291 533.573 362.518 551.269 350.317Z" fill="#FFBB54"/>
<path d="M492.063 384.17C482.658 395.526 472.576 406.304 461.87 416.443C450.837 413.546 439.851 410.675 428.91 407.83C450.534 401.574 471.647 393.664 492.063 384.17Z" fill="#FFBB54"/>
<path d="M425.055 408.93C413.889 417.989 402.177 426.353 389.985 433.974C378.637 430.213 367.284 426.479 355.928 422.774C379.28 419.887 402.387 415.259 425.055 408.93Z" fill="#FFBB54"/>
<path d="M351.77 423.273C339.385 429.724 326.61 435.396 313.521 440.254C301.851 435.553 290.138 430.865 278.33 426.265C302.847 427.066 327.393 426.066 351.77 423.273Z" fill="#FFBB54"/>
<path d="M273.975 426.106C260.959 429.75 247.728 432.566 234.359 434.536C222.37 428.828 210.263 423.172 198.069 417.465C223.127 422.165 248.495 425.052 273.975 426.106Z" fill="#FFBB54"/>
<path d="M193.627 416.613C180.596 417.389 167.53 417.301 154.513 416.349C142.225 409.557 129.805 402.72 117.256 395.838C142.182 404.576 167.704 411.519 193.627 416.613Z" fill="#FFBB54"/>
<path d="M112.845 394.275C100.398 392.223 88.1125 389.299 76.0791 385.522C63.5754 377.489 50.8783 369.44 38.0985 361.182C62.1797 374.003 87.1606 385.063 112.845 394.275Z" fill="#FFBB54"/>
<path d="M635.324 -26.7757C648.19 -19.7311 660.551 -11.8033 672.319 -3.04908C666.123 1.29772 659.694 5.30151 653.061 8.94416C648.226 -3.46913 642.29 -15.4234 635.324 -26.7757Z" fill="#FFBB54"/>
<path d="M655.175 14.5893C666.241 24.0733 676.645 34.3024 686.315 45.2052C679.36 48.725 672.428 51.8069 665.571 54.4723C663.296 40.8939 659.817 27.5469 655.175 14.5893Z" fill="#FFBB54"/>
<path d="M666.519 60.6533C675.344 72.1334 683.388 84.1933 690.597 96.752C683.179 99.3641 675.837 101.564 668.632 103.483C669.192 89.1696 668.485 74.8373 666.519 60.6533Z" fill="#FFBB54"/>
<path d="M668.291 109.997C674.524 122.957 679.913 136.307 684.422 149.966C676.618 151.719 668.946 153.186 661.406 154.366C664.984 139.802 667.287 124.956 668.291 109.997Z" fill="#FFBB54"/>
<path d="M659.688 161C663.116 174.858 665.68 188.916 667.365 203.095C659.217 204.035 651.218 204.793 643.368 205.367C650.052 191.064 655.512 176.222 659.688 161Z" fill="#FFBB54"/>
<path d="M640.228 211.878C640.801 226.022 640.498 240.189 639.321 254.298C630.849 254.526 622.519 254.627 614.329 254.602C624.118 241.093 632.78 226.804 640.228 211.878Z" fill="#FFBB54"/>
<path d="M609.77 260.746C607.526 274.579 604.439 288.264 600.529 301.724C591.722 301.264 583.034 300.741 574.463 300.156C587.265 287.983 599.072 274.804 609.77 260.746Z" fill="#FFBB54"/>
<path d="M568.534 305.684C563.614 318.624 557.949 331.269 551.568 343.557C542.399 342.425 533.312 341.282 524.306 340.13C539.9 329.787 554.686 318.272 568.534 305.684Z" fill="#FFBB54"/>
<path d="M517.104 344.8C509.804 356.317 501.873 367.422 493.348 378.064C483.778 376.252 474.246 374.466 464.752 372.707C482.86 364.697 500.358 355.37 517.104 344.8Z" fill="#FFBB54"/>
<path d="M456.417 376.294C447.181 385.986 437.387 395.13 427.084 403.678C417.078 401.148 407.073 398.631 397.038 396.212C417.278 390.993 437.121 384.337 456.417 376.294Z" fill="#FFBB54"/>
<path d="M387.751 398.512C376.984 405.964 365.808 412.804 354.275 419.002C343.804 415.689 333.281 412.41 322.706 409.165C344.606 407.131 366.341 403.572 387.751 398.512Z" fill="#FFBB54"/>
<path d="M312.691 410.002C300.935 414.97 288.909 419.272 276.671 422.889C265.734 418.685 254.703 414.5 243.579 410.334C266.595 411.773 289.685 411.662 312.691 410.002Z" fill="#FFBB54"/>
<path d="M233.09 409.573C220.908 411.927 208.598 413.559 196.225 414.462C184.837 409.274 173.334 404.046 161.718 398.778C185.239 403.962 209.083 407.568 233.09 409.573Z" fill="#FFBB54"/>
<path d="M151.037 396.316C138.991 396.002 126.977 394.939 115.066 393.133C103.296 386.797 91.4165 380.349 79.3677 373.877C102.73 382.939 126.673 390.435 151.037 396.316Z" fill="#FFBB54"/>
<path d="M68.7943 369.66C57.4443 366.724 46.2998 363.049 35.4319 358.658C23.3784 351.049 11.2287 343.253 -1.09082 335.367C21.4202 348.327 44.7661 359.783 68.7943 369.66Z" fill="#FFBB54"/>
<path d="M613.913 -12.7653C624.242 -6.36537 634.175 0.652549 643.656 8.2503C638.455 10.894 633.277 13.2241 628.123 15.2404C624.141 5.53994 619.389 -3.82514 613.913 -12.7653Z" fill="#FFBB54"/>
<path d="M632.084 25.7311C640.788 34.1122 648.992 42.9975 656.653 52.3413C651.125 54.3338 645.666 56.0681 640.274 57.5442C638.402 46.7358 635.664 36.097 632.084 25.7311Z" fill="#FFBB54"/>
<path d="M641.966 69.1931C648.687 79.1585 654.835 89.4991 660.381 100.165C654.568 101.57 648.85 102.779 643.227 103.791C643.713 92.2414 643.291 80.6733 641.966 69.1931Z" fill="#FFBB54"/>
<path d="M642.363 116.21C646.84 127.297 650.701 138.625 653.928 150.14C647.843 151.038 641.86 151.785 635.981 152.381C639.026 140.503 641.159 128.411 642.363 116.21Z" fill="#FFBB54"/>
<path d="M632.356 165.119C634.437 176.826 635.886 188.639 636.694 200.505C630.318 200.925 624.041 201.235 617.864 201.501C623.584 189.745 628.428 177.585 632.356 165.119Z" fill="#FFBB54"/>
<path d="M611.361 214.06C611.002 225.87 610.023 237.655 608.428 249.364C601.722 249.351 595.105 249.265 588.567 249.191C596.991 238.037 604.609 226.297 611.361 214.06Z" fill="#FFBB54"/>
<path d="M579.164 261.053C576.42 272.453 573.106 283.708 569.235 294.777C562.151 294.316 555.127 293.865 548.161 293.422C559.215 283.346 569.573 272.531 579.164 261.053Z" fill="#FFBB54"/>
<path d="M535.945 304.052C531.019 314.567 525.564 324.827 519.601 334.792C512.081 333.899 504.599 332.979 497.131 332.153C510.661 323.633 523.626 314.247 535.945 304.052Z" fill="#FFBB54"/>
<path d="M482.293 341.038C475.433 350.243 468.102 359.079 460.392 367.543C452.385 366.152 444.373 364.78 436.357 363.426C452.123 356.935 467.465 349.457 482.293 341.038Z" fill="#FFBB54"/>
<path d="M419.188 370.077C410.723 377.59 401.9 384.656 392.811 391.297C384.28 389.302 375.71 387.342 367.1 385.417C384.756 381.363 402.15 376.24 419.188 370.077Z" fill="#FFBB54"/>
<path d="M347.986 389.393C338.324 394.906 328.468 399.994 318.403 404.513C309.327 401.84 300.185 399.174 290.976 396.514C310.103 395.283 329.14 392.905 347.986 389.393Z" fill="#FFBB54"/>
<path d="M270.388 397.436C260.016 400.793 249.554 403.613 239.002 405.898C229.406 402.371 219.697 398.903 209.914 395.36C230.011 397.235 250.204 397.928 270.388 397.436Z" fill="#FFBB54"/>
<path d="M188.396 392.934C177.79 393.986 167.201 394.465 156.688 394.455C146.6 389.992 136.408 385.482 126.113 380.924C146.624 386.121 167.419 390.131 188.396 392.934Z" fill="#FFBB54"/>
<path d="M104.273 374.932C94.0086 373.653 83.8184 371.845 73.7428 369.515C63.257 363.956 52.6714 358.292 41.986 352.524C62.3036 361.171 83.0995 368.652 104.273 374.932Z" fill="#FFBB54"/>
<path d="M594.449 -2.71406C601.904 2.59668 609.127 8.2492 616.118 14.2435C612.387 15.4901 608.702 16.5998 605.057 17.5346C601.969 10.5591 598.425 3.79499 594.449 -2.71406Z" fill="#FFBB54"/>
<path d="M611.342 33.9015C617.482 40.6331 623.313 47.6572 628.835 54.9738C624.95 55.8805 621.121 56.6645 617.347 57.3258C615.856 49.3947 613.85 41.5701 611.342 33.9015Z" fill="#FFBB54"/>
<path d="M619.887 75.7837C624.44 83.6329 628.639 91.6976 632.486 99.9778C628.428 100.591 624.433 101.123 620.501 101.574C620.854 92.9719 620.65 84.3571 619.887 75.7837Z" fill="#FFBB54"/>
<path d="M618.766 121.445C621.549 130.051 623.953 138.787 625.978 147.653C621.713 148.025 617.507 148.334 613.364 148.625C615.719 139.683 617.523 130.606 618.766 121.445Z" fill="#FFBB54"/>
<path d="M606.962 169.128C607.863 178.097 608.392 187.109 608.55 196.163C604.025 196.341 599.553 196.465 595.128 196.577C599.605 187.666 603.556 178.5 606.962 169.128Z" fill="#FFBB54"/>
<path d="M583.831 216.836C582.849 225.765 581.538 234.672 579.813 243.508C574.963 243.45 570.151 243.397 565.377 243.35C572.015 234.86 578.176 226.009 583.831 216.836Z" fill="#FFBB54"/>
<path d="M549.137 262.448C546.341 270.942 543.251 279.344 539.784 287.596C534.548 287.301 529.329 287.026 524.128 286.772C532.892 279.116 541.24 270.996 549.137 262.448Z" fill="#FFBB54"/>
<path d="M503.086 303.766C498.681 311.483 493.891 318.969 488.904 326.313C483.218 325.72 477.527 325.186 471.836 324.65C482.601 318.225 493.031 311.255 503.086 303.766Z" fill="#FFBB54"/>
<path d="M446.329 338.624C440.454 345.187 434.355 351.522 428.032 357.629C421.849 356.685 415.641 355.765 409.411 354.869C422.132 349.996 434.438 344.582 446.329 338.624Z" fill="#FFBB54"/>
<path d="M379.95 364.954C372.95 370.13 365.754 375.006 358.429 379.633C351.714 378.25 344.975 376.809 338.175 375.456C352.422 372.574 366.347 369.073 379.95 364.954Z" fill="#FFBB54"/>
<path d="M305.453 380.877C297.637 384.422 289.733 387.705 281.73 390.638C274.495 388.646 267.203 386.655 259.854 384.666C275.268 384.108 290.468 382.845 305.453 380.877Z" fill="#FFBB54"/>
<path d="M224.714 384.762C216.473 386.584 208.206 388.07 199.91 389.219C192.17 386.539 184.38 383.787 176.51 381.045C192.669 383.037 208.737 384.276 224.714 384.762Z" fill="#FFBB54"/>
<path d="M139.934 375.295C131.645 375.283 123.407 374.945 115.223 374.28C107.065 370.715 98.8299 367.115 90.5166 363.481C106.946 368.199 123.419 372.137 139.934 375.295Z" fill="#FFBB54"/>
<path d="M53.5882 351.533C45.6481 349.695 37.8367 347.551 30.154 345.102C21.6566 340.573 13.0961 335.961 4.47253 331.266C20.6558 338.817 37.0277 345.572 53.5882 351.533Z" fill="#FFBB54"/>
<path d="M577.305 4.18487C581.784 7.86488 586.154 11.6807 590.417 15.6324C588.264 16.0253 586.132 16.3525 584.029 16.6401C581.972 12.3535 579.716 8.20215 577.305 4.18487Z" fill="#FFBB54"/>
<path d="M593.081 39.9598C596.649 44.4999 600.078 49.1517 603.37 53.915C601.149 54.1889 598.956 54.4227 596.79 54.6164C595.756 49.638 594.52 44.7524 593.081 39.9598Z" fill="#FFBB54"/>
<path d="M600.175 81.2597C602.663 86.4526 605.006 91.7192 607.204 97.0594C604.878 97.2521 602.581 97.4335 600.307 97.5658C600.492 92.0777 600.448 86.6423 600.175 81.2597Z" fill="#FFBB54"/>
<path d="M597.164 126.47C598.475 132.067 599.636 137.702 600.646 143.376C598.167 143.494 595.713 143.634 593.278 143.745C594.839 137.989 596.119 132.218 597.164 126.47Z" fill="#FFBB54"/>
<path d="M582.972 173.664C583.07 179.403 583.012 185.147 582.797 190.896C580.108 190.968 577.435 191.047 574.777 191.134C577.76 185.354 580.51 179.532 582.972 173.664Z" fill="#FFBB54"/>
<path d="M556.946 220.675C555.833 226.295 554.547 231.885 553.165 237.454C550.207 237.436 547.254 237.491 544.312 237.5C548.78 231.997 552.991 226.389 556.946 220.675Z" fill="#FFBB54"/>
<path d="M518.888 265.194C516.632 270.446 514.243 275.638 511.72 280.772C508.438 280.668 505.154 280.565 501.87 280.503C507.77 275.538 513.442 270.435 518.888 265.194Z" fill="#FFBB54"/>
<path d="M469.095 304.859C465.816 309.512 462.403 314.069 458.907 318.554C455.254 318.277 451.593 318.023 447.922 317.79C455.196 313.691 462.245 309.351 469.095 304.859Z" fill="#FFBB54"/>
<path d="M408.348 337.353C404.202 341.199 399.967 344.939 395.641 348.571C391.588 348.066 387.516 347.59 383.432 347.08C391.904 344.052 400.21 340.81 408.348 337.353Z" fill="#FFBB54"/>
<path d="M337.909 360.492C333.101 363.374 328.228 366.128 323.29 368.754C318.825 367.931 314.337 367.1 309.825 366.261C319.319 364.604 328.68 362.681 337.909 360.492Z" fill="#FFBB54"/>
<path d="M259.483 372.311C254.228 374.084 248.949 375.735 243.644 377.264C238.783 375.99 233.891 374.725 228.966 373.47C239.221 373.409 249.398 372.991 259.483 372.311Z" fill="#FFBB54"/>
<path d="M175.166 371.144C169.731 371.787 164.287 372.224 158.859 372.57C153.622 370.813 148.368 368.994 143.08 367.167C153.798 368.852 164.493 370.178 175.166 371.144Z" fill="#FFBB54"/>
<path d="M87.4089 355.685C82.0397 355.098 76.7001 354.394 71.4094 353.513C65.8839 351.09 60.3068 348.687 54.7278 346.19C65.5885 349.694 76.4822 352.859 87.4089 355.685Z" fill="#FFBB54"/>
<path d="M561.671 7.72296C563.709 9.64592 565.705 11.6138 567.679 13.6043C566.764 13.6265 565.855 13.6586 564.954 13.6753C563.907 11.6551 562.813 9.67098 561.671 7.72296Z" fill="#FFBB54"/>
<path d="M576.524 43.459C578.068 45.7854 579.597 48.1247 581.079 50.495C580.135 50.5325 579.198 50.5325 578.267 50.563C577.731 48.1727 577.15 45.8047 576.524 43.459Z" fill="#FFBB54"/>
<path d="M582.133 84.9515C583.131 87.5543 584.091 90.175 585.032 92.8045C584.031 92.8316 583.032 92.8896 582.042 92.9122C582.124 90.2454 582.154 87.5918 582.133 84.9515Z" fill="#FFBB54"/>
<path d="M577.002 130.388C577.426 133.144 577.791 135.912 578.125 138.682C577.025 138.726 575.931 138.779 574.841 138.842C575.601 136.019 576.357 133.208 577.002 130.388Z" fill="#FFBB54"/>
<path d="M560.03 177.639C559.856 180.424 559.615 183.205 559.342 185.984C558.109 186.033 556.882 186.118 555.654 186.173C557.175 183.34 558.625 180.492 560.03 177.639Z" fill="#FFBB54"/>
<path d="M530.599 224.327C529.809 227.005 529.014 229.681 528.149 232.336C526.749 232.39 525.349 232.448 523.949 232.494C526.215 229.786 528.436 227.069 530.599 224.327Z" fill="#FFBB54"/>
<path d="M488.604 267.944C487.285 270.403 485.917 272.836 484.522 275.252C482.922 275.26 481.32 275.272 479.718 275.286C482.744 272.886 485.706 270.438 488.604 267.944Z" fill="#FFBB54"/>
<path d="M434.479 305.948C432.665 308.062 430.827 310.154 428.967 312.225C427.147 312.137 425.323 312.104 423.497 312.011C427.207 310.036 430.868 308.015 434.479 305.948Z" fill="#FFBB54"/>
<path d="M369.199 335.878C367.002 337.574 364.759 339.207 362.521 340.843C360.469 340.642 358.407 340.46 356.344 340.235C360.674 338.853 364.959 337.401 369.199 335.878Z" fill="#FFBB54"/>
<path d="M294.239 355.446C291.739 356.613 289.238 357.774 286.716 358.874C284.432 358.474 282.131 358.13 279.836 357.711C284.671 357.052 289.472 356.297 294.239 355.446Z" fill="#FFBB54"/>
<path d="M211.553 362.635C208.883 363.243 206.211 363.808 203.537 364.372C201.031 363.752 198.517 363.121 195.995 362.479C201.199 362.606 206.385 362.658 211.553 362.635Z" fill="#FFBB54"/>
<path d="M123.502 355.772C120.791 355.794 118.084 355.779 115.38 355.726C112.678 354.808 109.967 353.889 107.258 352.935C112.68 353.948 118.092 354.914 123.502 355.772Z" fill="#FFBB54"/>
<path d="M32.8038 333.596C30.1789 333.005 27.5649 332.392 24.9619 331.756C22.1204 330.464 19.2551 329.195 16.3916 327.901C21.8488 329.888 27.3278 331.764 32.8038 333.596Z" fill="#FFBB54"/>
<path d="M547.711 8.62504C547.878 8.79945 548.032 8.98647 548.197 9.1623L547.999 9.14263C547.905 8.96955 547.821 8.78895 547.711 8.62504Z" fill="#FFBB54"/>
<path d="M561.652 45.0844C561.778 45.2895 561.879 45.5097 562.005 45.7152L561.796 45.7099C561.742 45.5003 561.704 45.291 561.652 45.0844Z" fill="#FFBB54"/>
<path d="M565.593 87.4461C565.652 87.6803 565.729 87.9082 565.795 88.1414L565.565 88.1496C565.568 87.9145 565.567 87.6783 565.593 87.4461Z" fill="#FFBB54"/>
<path d="M557.989 133.672C558.014 133.912 558.012 134.156 558.033 134.396L557.771 134.418C557.856 134.173 557.929 133.924 557.989 133.672Z" fill="#FFBB54"/>
<path d="M537.764 181.384C537.743 181.625 537.667 181.859 537.65 182.1L537.343 182.131C537.482 181.881 537.628 181.634 537.764 181.384Z" fill="#FFBB54"/>
<path d="M504.385 227.969C504.299 228.198 504.202 228.422 504.115 228.649L503.752 228.679C503.963 228.441 504.175 228.208 504.385 227.969Z" fill="#FFBB54"/>
<path d="M457.885 270.712C457.737 270.905 457.608 271.114 457.476 271.319C457.335 271.314 457.193 271.346 457.051 271.339C457.324 271.126 457.607 270.921 457.885 270.712Z" fill="#FFBB54"/>
<path d="M398.893 306.9C398.728 307.076 398.534 307.228 398.366 307.406C398.201 307.408 398.035 307.412 397.871 307.403C398.218 307.247 398.546 307.05 398.893 306.9Z" fill="#FFBB54"/>
<path d="M328.619 333.937C328.423 334.083 328.215 334.211 327.996 334.32C327.808 334.31 327.621 334.27 327.432 334.275C327.832 334.175 328.226 334.057 328.619 333.937Z" fill="#FFBB54"/>
<path d="M248.8 349.46C248.562 349.511 248.348 349.648 248.112 349.701C247.898 349.69 247.686 349.656 247.479 349.601C247.92 349.556 248.358 349.499 248.8 349.46Z" fill="#FFBB54"/>
<path d="M161.67 351.424C161.432 351.46 161.186 351.456 160.949 351.513C160.722 351.439 160.49 351.381 160.254 351.339C160.726 351.373 161.198 351.393 161.67 351.424Z" fill="#FFBB54"/>
<path d="M69.8828 338.19C69.6433 338.154 69.4006 338.165 69.1635 338.119C68.9051 338.064 68.6695 337.927 68.4158 337.855C68.9128 337.927 69.3958 338.073 69.8828 338.19Z" fill="#FFBB54"/>
</g>
</g>
<defs>
<filter id="filter0_f_258_65030" x="-165" y="-549.999" width="1508.16" height="1508.16" filterUnits="userSpaceOnUse" color-interpolation-filters="sRGB">
<feFlood flood-opacity="0" result="BackgroundImageFix"/>
<feBlend mode="normal" in="SourceGraphic" in2="BackgroundImageFix" result="shape"/>
<feGaussianBlur stdDeviation="77" result="effect1_foregroundBlur_258_65030"/>
</filter>
<linearGradient id="paint0_linear_258_65030" x1="410" y1="1.51124e-05" x2="4.22074e-06" y2="351" gradientUnits="userSpaceOnUse">
<stop stop-color="#C4C4C4"/>
<stop offset="1" stop-color="#C4C4C4" stop-opacity="0"/>
</linearGradient>
<clipPath id="clip0_258_65030">
<rect width="1048.32" height="648.961" fill="white" transform="translate(35.4458 391.722) rotate(-45)"/>
</clipPath>
<clipPath id="clip1_258_65030">
<rect width="1048.32" height="648.961" fill="white" transform="translate(-11 345.276) rotate(-45)"/>
</clipPath>
</defs>
</svg>
