<svg width="615" height="854" viewBox="0 0 615 854" fill="none" xmlns="http://www.w3.org/2000/svg">
<g opacity="0.1">
<mask id="mask0_17695_6201" style="mask-type:alpha" maskUnits="userSpaceOnUse" x="-774" y="-251" width="1112" height="1105">
<rect x="-773.962" y="367.314" width="894.88" height="672.308" transform="rotate(-43.6515 -773.962 367.314)" fill="url(#paint0_linear_17695_6201)"/>
</mask>
<g mask="url(#mask0_17695_6201)">
<g clip-path="url(#clip0_17695_6201)">
<path d="M231.419 26.7489C236.52 34.3754 241.403 42.1701 246.07 50.1331C241.008 56.7719 235.876 63.267 230.676 69.6183C231.506 55.3358 231.754 41.046 231.419 26.7489Z" fill="#FFBB54"/>
<path d="M224.948 123.157C228.364 131.407 231.578 139.764 234.52 148.239C228.589 154.001 222.681 159.689 216.688 165.186C219.999 151.284 222.716 137.254 224.948 123.157Z" fill="#FFBB54"/>
<path d="M201.85 216.871C203.565 225.378 205.061 233.94 206.338 242.558C199.773 247.413 193.213 252.168 186.658 256.823C192.2 243.691 197.321 230.376 201.85 216.871Z" fill="#FFBB54"/>
<path d="M163.563 305.19C163.654 313.59 163.525 321.996 163.177 330.409C156.174 334.373 149.18 338.229 142.195 341.977C149.756 329.984 156.879 317.721 163.563 305.19Z" fill="#FFBB54"/>
<path d="M111.882 385.758C110.483 393.718 108.843 401.637 107.028 409.508C99.7268 412.552 92.4607 415.535 85.2295 418.456C94.4539 407.866 103.338 396.967 111.882 385.758Z" fill="#FFBB54"/>
<path d="M48.8813 456.612C46.1521 463.822 43.2374 470.944 40.1371 477.978C32.7026 480.221 25.2956 482.374 17.925 484.482C28.5325 475.569 38.8512 466.279 48.8813 456.612Z" fill="#FFBB54"/>
<path d="M188.675 -22.1027C194.661 -15.3965 200.454 -8.49408 206.056 -1.39557C201.714 5.15398 197.35 11.6095 192.865 17.9014C192.012 4.49899 190.615 -8.83572 188.675 -22.1027Z" fill="#FFBB54"/>
<path d="M193.529 68.5281C198.004 76.0626 202.19 83.7961 206.171 91.6553C200.972 97.4933 195.733 103.208 190.455 108.799C191.999 95.402 193.057 81.9589 193.529 68.5281Z" fill="#FFBB54"/>
<path d="M182.174 158.99C184.995 167.059 187.569 175.231 189.895 183.504C183.997 188.551 178.129 193.54 172.178 198.321C176.021 185.327 179.353 172.216 182.174 158.99Z" fill="#FFBB54"/>
<path d="M155.508 246.619C156.673 254.861 157.582 263.153 158.345 271.466C151.928 275.706 145.52 279.851 139.122 283.901C144.994 271.649 150.456 259.221 155.508 246.619Z" fill="#FFBB54"/>
<path d="M114.83 328.986C114.451 337.047 113.8 345.104 113.023 353.147C106.237 356.58 99.486 359.968 92.7363 363.232C100.5 352.078 107.865 340.663 114.83 328.986Z" fill="#FFBB54"/>
<path d="M61.7587 403.95C59.9585 411.514 57.9243 419.02 55.7325 426.467C48.703 429.115 41.7215 431.768 34.7566 434.321C44.0982 424.519 53.0988 414.395 61.7587 403.95Z" fill="#FFBB54"/>
<path d="M151.713 11.3742C159.508 20.7184 166.893 30.4398 173.868 40.5384C167.468 48.7737 160.973 56.7722 154.382 64.534C154.505 46.704 153.613 28.9557 151.713 11.3742V11.3742Z" fill="#FFBB54"/>
<path d="M153.132 96.2985C158.762 106.778 163.962 117.521 168.733 128.527C161.288 135.796 153.817 142.861 146.32 149.722C149.562 131.98 151.836 114.146 153.132 96.2985V96.2985Z" fill="#FFBB54"/>
<path d="M139.541 181.176C142.957 192.298 145.905 203.588 148.384 215.045C140.142 221.327 131.901 227.419 123.66 233.321C129.856 216.165 135.158 198.759 139.541 181.176V181.176Z" fill="#FFBB54"/>
<path d="M111.672 263.583C112.882 274.876 113.545 286.256 113.843 297.661C104.985 302.93 96.1595 308.05 87.3667 313.021C96.3067 296.918 104.42 280.416 111.672 263.583V263.583Z" fill="#FFBB54"/>
<path d="M70.6142 341.283C69.6602 352.283 68.302 363.261 66.4771 374.166C57.1758 378.467 47.9238 382.654 38.7212 386.726C50.0958 372.084 60.7412 356.916 70.6142 341.283V341.283Z" fill="#FFBB54"/>
<path d="M17.7427 412.267C14.8871 422.539 11.5677 432.676 7.90976 442.663C-1.69752 446.045 -11.2504 449.354 -20.7488 452.59C-7.30113 439.747 5.52937 426.306 17.7427 412.267Z" fill="#FFBB54"/>
<path d="M102.716 -36.1859C114.06 -26.3983 124.839 -15.9861 135.008 -4.9918C128.194 5.11997 121.12 14.8217 113.961 24.2152C111.669 3.73628 107.911 -16.4479 102.716 -36.1859V-36.1859Z" fill="#FFBB54"/>
<path d="M115.524 41.1965C124.412 52.7749 132.691 64.8631 140.36 77.4613C132.192 86.549 123.949 95.3132 115.632 103.754C117.06 82.8171 117.023 61.9138 115.524 41.1965Z" fill="#FFBB54"/>
<path d="M114.134 121.079C120.404 133.946 126.009 147.175 130.948 160.764C121.738 168.811 112.493 176.548 103.211 183.975C108.247 163.175 111.896 142.162 114.134 121.079Z" fill="#FFBB54"/>
<path d="M98.7219 201.153C102.225 214.75 105.088 228.54 107.312 242.522C97.2558 249.498 87.1741 256.147 77.1658 262.626C85.6435 242.525 92.844 221.991 98.7219 201.153V201.153Z" fill="#FFBB54"/>
<path d="M69.8338 279.174C70.6467 292.901 70.8423 306.691 70.3481 320.49C59.604 326.353 48.9234 332.044 38.3062 337.564C49.993 318.696 60.5233 299.193 69.8338 279.174V279.174Z" fill="#FFBB54"/>
<path d="M28.3454 353.048C26.6535 366.301 24.2905 379.508 21.2658 392.619C10.0339 397.515 -1.1609 402.192 -12.2629 406.818C2.33083 389.683 15.8938 371.724 28.3454 353.048V353.048Z" fill="#FFBB54"/>
<path d="M71.5102 -4.21971C83.3567 6.92389 94.4821 18.8048 104.829 31.3612C96.8606 41.4441 88.7471 51.1116 80.4881 60.3638C79.2513 38.5035 76.249 16.9065 71.5102 -4.21971V-4.21971Z" fill="#FFBB54"/>
<path d="M80.8875 68.8434C90.0155 81.9179 98.354 95.5541 105.863 109.686C96.657 118.767 87.3633 127.448 78.0871 135.833C80.7457 113.482 81.682 91.0855 80.8875 68.8434V68.8434Z" fill="#FFBB54"/>
<path d="M76.9701 144.502C83.1799 158.884 88.5429 173.665 93.0335 188.775C82.7985 196.809 72.5868 204.555 62.3982 212.011C68.9172 189.78 73.7882 167.214 76.9701 144.502V144.502Z" fill="#FFBB54"/>
<path d="M59.7836 220.62C62.9955 235.67 65.3253 250.956 66.7615 266.402C55.721 273.462 44.6839 280.194 33.7471 286.781C44.0136 265.283 52.7164 243.169 59.7836 220.62V220.62Z" fill="#FFBB54"/>
<path d="M29.6938 295.099C29.9085 310.182 29.276 325.328 27.7993 340.465C16.0494 346.495 4.37825 352.375 -7.21411 358.104C6.50971 337.896 18.8435 316.84 29.6938 295.099V295.099Z" fill="#FFBB54"/>
<path d="M22.6208 -40.1848C36.8393 -30.6293 50.3336 -20.0901 63.0141 -8.6372C55.7171 1.74349 48.1868 11.6434 40.5786 21.1524C36.4431 0.0888511 30.4342 -20.4355 22.6208 -40.1848V-40.1848Z" fill="#FFBB54"/>
<path d="M41.2412 24.5848C52.915 36.6637 63.7571 49.5242 73.703 63.0896C65.0886 72.5935 56.4126 81.7116 47.6751 90.4441C47.4233 68.2108 45.2709 46.1783 41.2412 24.5848V24.5848Z" fill="#FFBB54"/>
<path d="M47.7019 94.0704C56.4944 108.063 64.369 122.649 71.2807 137.748C61.5783 146.374 51.8713 154.664 42.1597 162.616C45.8731 139.82 47.7267 116.895 47.7019 94.0704V94.0704Z" fill="#FFBB54"/>
<path d="M41.5354 166.336C47.2372 181.595 51.9643 197.26 55.6899 213.242C45.0601 221.002 34.4216 228.416 23.8865 235.658C31.594 212.926 37.4961 189.744 41.5354 166.336V166.336Z" fill="#FFBB54"/>
<path d="M22.6127 239.37C25.1116 255.23 26.6473 271.295 27.2118 287.479C15.7474 294.349 4.35471 301.037 -6.96631 307.541C4.6024 285.492 14.4921 262.699 22.6127 239.37V239.37Z" fill="#FFBB54"/>
<path d="M-3.48726 -11.4323C10.1998 -1.2003 23.1042 10.0023 35.1366 22.0979C27.484 31.5298 19.7018 40.5271 11.8693 49.1443C8.61952 28.3983 3.47998 8.12438 -3.48726 -11.4323V-11.4323Z" fill="#FFBB54"/>
<path d="M12.0675 50.4096C23.1258 63.0782 33.2708 76.5314 42.4353 90.6801C33.6495 99.3747 24.8613 107.738 16.0706 115.769C16.6541 93.7682 15.3146 71.8989 12.0675 50.4096V50.4096Z" fill="#FFBB54"/>
<path d="M16.0318 117.116C24.1058 131.623 31.1861 146.71 37.2279 162.28C27.4611 170.261 17.7437 177.989 8.07568 185.461C12.6375 162.803 15.299 139.94 16.0318 117.116V117.116Z" fill="#FFBB54"/>
<path d="M7.79499 186.848C12.6719 202.533 16.5228 218.585 19.3247 234.907C8.68383 242.215 -1.89159 249.336 -12.4016 256.269C-3.80678 233.583 2.94826 210.364 7.79499 186.848V186.848Z" fill="#FFBB54"/>
<path d="M-27.8557 15.2183C-15.6311 25.513 -4.16745 36.6606 6.45933 48.5872C-0.848941 56.5894 -8.17925 64.2801 -15.5315 71.6592C-17.947 52.3995 -22.0709 33.5134 -27.8557 15.2183V15.2183Z" fill="#FFBB54"/>
<path d="M-15.1176 75.0914C-5.46328 87.5827 3.30267 100.761 11.1227 114.54C2.90823 122.055 -5.28184 129.323 -13.4475 136.342C-12.2476 115.786 -12.8063 95.295 -15.1176 75.0914V75.0914Z" fill="#FFBB54"/>
<path d="M-13.6762 140.006C-6.93815 154.132 -1.14292 168.739 3.67422 183.739C-5.39311 190.785 -14.4081 197.661 -23.3706 204.369C-18.3834 183.089 -15.1409 161.561 -13.6762 140.006Z" fill="#FFBB54"/>
</g>
<g opacity="0.4" clip-path="url(#clip1_17695_6201)" filter="url(#filter0_f_17695_6201)">
<path d="M162.236 27.659C167.336 35.2855 172.22 43.0802 176.887 51.0432C171.824 57.6821 166.693 64.1772 161.492 70.5285C162.322 56.2459 162.57 41.9561 162.236 27.659Z" fill="#FFBB54"/>
<path d="M155.764 124.066C159.18 132.316 162.394 140.673 165.336 149.149C159.405 154.911 153.497 160.598 147.503 166.095C150.815 152.194 153.532 138.163 155.764 124.066Z" fill="#FFBB54"/>
<path d="M132.666 217.78C134.381 226.287 135.877 234.849 137.154 243.467C130.59 248.322 124.03 253.078 117.474 257.732C123.016 244.601 128.138 231.285 132.666 217.78Z" fill="#FFBB54"/>
<path d="M94.3789 306.099C94.4697 314.499 94.341 322.905 93.9929 331.318C86.9899 335.282 79.9961 339.138 73.0115 342.886C80.5723 330.893 87.6947 318.631 94.3789 306.099Z" fill="#FFBB54"/>
<path d="M42.6984 386.666C41.2992 394.626 39.6589 402.545 37.8444 410.416C30.5432 413.46 23.277 416.443 16.0459 419.364C25.2703 408.775 34.1545 397.875 42.6984 386.666Z" fill="#FFBB54"/>
<path d="M119.491 -21.1935C125.477 -14.4873 131.271 -7.58486 136.872 -0.486358C132.53 6.06318 128.166 12.5187 123.681 18.8105C122.828 5.40819 121.431 -7.9265 119.491 -21.1935Z" fill="#FFBB54"/>
<path d="M124.345 69.4383C128.821 76.9728 133.006 84.7063 136.987 92.5655C131.788 98.4035 126.549 104.118 121.271 109.709C122.815 96.3121 123.873 82.8691 124.345 69.4383Z" fill="#FFBB54"/>
<path d="M112.989 159.899C115.811 167.968 118.385 176.14 120.711 184.413C114.813 189.46 108.945 194.449 102.994 199.23C106.837 186.236 110.168 173.126 112.989 159.899Z" fill="#FFBB54"/>
<path d="M86.3246 247.528C87.4896 255.77 88.3981 264.062 89.1615 272.375C82.7441 276.615 76.3364 280.76 69.9382 284.811C75.8104 272.558 81.2725 260.13 86.3246 247.528Z" fill="#FFBB54"/>
<path d="M45.6459 329.895C45.2677 337.957 44.6166 346.013 43.8394 354.056C37.0533 357.489 30.3022 360.877 23.5525 364.142C31.3163 352.987 38.6808 341.572 45.6459 329.895Z" fill="#FFBB54"/>
<path d="M82.5287 12.2834C90.3239 21.6276 97.7089 31.349 104.684 41.4476C98.2846 49.6829 91.7895 57.6814 85.1987 65.4432C85.321 47.6132 84.4296 29.8649 82.5287 12.2834V12.2834Z" fill="#FFBB54"/>
<path d="M83.9476 97.2086C89.5776 107.688 94.7782 118.431 99.5495 129.437C92.104 136.706 84.633 143.771 77.1362 150.632C80.3779 132.89 82.6518 115.056 83.9476 97.2086V97.2086Z" fill="#FFBB54"/>
<path d="M70.3573 182.085C73.7736 193.207 76.7211 204.497 79.1997 215.955C70.9581 222.237 62.717 228.329 54.4763 234.23C60.6726 217.075 65.9737 199.668 70.3573 182.085V182.085Z" fill="#FFBB54"/>
<path d="M42.4882 264.491C43.6989 275.784 44.3613 287.164 44.6594 298.569C35.8013 303.838 26.9759 308.958 18.1831 313.93C27.1231 297.826 35.2361 281.324 42.4882 264.491V264.491Z" fill="#FFBB54"/>
<path d="M1.4306 342.192C0.476624 353.192 -0.881602 364.17 -2.70649 375.075C-12.0078 379.376 -21.2597 383.563 -30.4624 387.635C-19.0877 372.993 -8.44236 357.825 1.4306 342.192V342.192Z" fill="#FFBB54"/>
<path d="M33.5326 -35.2757C44.8767 -25.4882 55.6555 -15.0759 65.8248 -4.08164C59.0106 6.03012 51.9362 15.7319 44.7773 25.1253C42.4851 4.64644 38.7274 -15.5377 33.5326 -35.2757V-35.2757Z" fill="#FFBB54"/>
<path d="M46.3399 42.1056C55.2282 53.684 63.5069 65.7723 71.1758 78.3704C63.0081 87.4582 54.7657 96.2224 46.4485 104.663C47.8759 83.7262 47.8396 62.8229 46.3399 42.1056Z" fill="#FFBB54"/>
<path d="M44.9506 121.988C51.2205 134.856 56.8251 148.084 61.7646 161.673C52.5546 169.721 43.3088 177.458 34.0271 184.884C39.063 164.084 42.7124 143.071 44.9506 121.988Z" fill="#FFBB54"/>
<path d="M29.5381 202.062C33.0413 215.659 35.9045 229.449 38.1278 243.431C28.072 250.407 17.9903 257.056 7.98193 263.535C16.4597 243.434 23.6602 222.9 29.5381 202.062V202.062Z" fill="#FFBB54"/>
<path d="M0.65013 280.083C1.46297 293.81 1.65856 307.601 1.16439 321.399C-9.57963 327.262 -20.2603 332.953 -30.8774 338.474C-19.1906 319.605 -8.66032 300.103 0.65013 280.083V280.083Z" fill="#FFBB54"/>
<path d="M2.32638 -3.31053C14.1728 7.83307 25.2982 19.714 35.6447 32.2704C27.6767 42.3533 19.5632 52.0207 11.3042 61.2729C10.0674 39.4127 7.06517 17.8157 2.32638 -3.31053V-3.31053Z" fill="#FFBB54"/>
<path d="M11.7037 69.7534C20.8316 82.828 29.1702 96.4642 36.6792 110.597C27.4732 119.678 18.1795 128.358 8.90328 136.743C11.5619 114.392 12.4982 91.9956 11.7037 69.7534V69.7534Z" fill="#FFBB54"/>
<path d="M7.78645 145.411C13.9963 159.793 19.3593 174.574 23.8499 189.684C13.6149 197.719 3.40315 205.464 -6.7854 212.92C-0.266378 190.689 4.60457 168.123 7.78645 145.411V145.411Z" fill="#FFBB54"/>
<path d="M-9.39999 221.529C-6.18811 236.579 -3.85832 251.865 -2.42207 267.311C-13.4626 274.371 -24.4997 281.103 -35.4365 287.69C-25.17 266.193 -16.4672 244.078 -9.39999 221.529V221.529Z" fill="#FFBB54"/>
<path d="M-27.9424 25.4951C-16.2686 37.5739 -5.42652 50.4344 4.51931 63.9998C-4.09508 73.5036 -12.771 82.6218 -21.5085 91.3542C-21.7603 69.121 -23.9127 47.0885 -27.9424 25.4951V25.4951Z" fill="#FFBB54"/>
<path d="M-21.4817 94.9797C-12.6892 108.972 -4.8146 123.559 2.09706 138.657C-7.6053 147.284 -17.3123 155.573 -27.0239 163.525C-23.3105 140.729 -21.4569 117.804 -21.4817 94.9797V94.9797Z" fill="#FFBB54"/>
</g>
</g>
</g>
<g opacity="0.1" filter="url(#filter1_f_17695_6201)">
<ellipse cx="182" cy="222.5" rx="318" ry="333.5" fill="#FFBB54"/>
</g>
<defs>
<filter id="filter0_f_17695_6201" x="-609.721" y="-551.097" width="887.523" height="1248.79" filterUnits="userSpaceOnUse" color-interpolation-filters="sRGB">
<feFlood flood-opacity="0" result="BackgroundImageFix"/>
<feBlend mode="normal" in="SourceGraphic" in2="BackgroundImageFix" result="shape"/>
<feGaussianBlur stdDeviation="34.3771" result="effect1_foregroundBlur_17695_6201"/>
</filter>
<filter id="filter1_f_17695_6201" x="-250.526" y="-225.526" width="865.052" height="896.052" filterUnits="userSpaceOnUse" color-interpolation-filters="sRGB">
<feFlood flood-opacity="0" result="BackgroundImageFix"/>
<feBlend mode="normal" in="SourceGraphic" in2="BackgroundImageFix" result="shape"/>
<feGaussianBlur stdDeviation="57.263" result="effect1_foregroundBlur_17695_6201"/>
</filter>
<linearGradient id="paint0_linear_17695_6201" x1="-326.522" y1="367.314" x2="-745.898" y2="753.702" gradientUnits="userSpaceOnUse">
<stop stop-color="#C4C4C4"/>
<stop offset="1" stop-color="#C4C4C4" stop-opacity="0"/>
</linearGradient>
<clipPath id="clip0_17695_6201">
<rect width="1104.29" height="683.608" fill="white" transform="matrix(0.0601892 -0.998187 0.999914 -0.0131522 -471.781 628.025)"/>
</clipPath>
<clipPath id="clip1_17695_6201">
<rect width="1104.29" height="683.608" fill="white" transform="matrix(0.0601892 -0.998187 0.999914 -0.0131522 -540.967 628.936)"/>
</clipPath>
</defs>
</svg>
