<svg width="330" height="409" viewBox="0 0 330 409" fill="none" xmlns="http://www.w3.org/2000/svg">
<mask id="mask0_258_73013" style="mask-type:alpha" maskUnits="userSpaceOnUse" x="0" y="0" width="505" height="409">
<rect width="505" height="408.311" fill="url(#paint0_linear_258_73013)"/>
</mask>
<g mask="url(#mask0_258_73013)">
<g clip-path="url(#clip0_258_73013)">
<path d="M301.196 384.191C297.273 386.215 293.308 388.123 289.302 389.914C285.393 387.783 281.53 385.624 277.699 383.461C285.502 383.991 293.335 384.234 301.196 384.191Z" fill="#FFBB54"/>
<path d="M248.56 380.159C244.586 381.281 240.6 382.283 236.601 383.166C232.971 380.69 229.388 378.186 225.823 375.694C233.331 377.446 240.912 378.959 248.56 380.159Z" fill="#FFBB54"/>
<path d="M198.008 367.867C194.178 368.113 190.364 368.233 186.567 368.228C183.233 365.454 179.92 362.683 176.6 359.948C183.624 362.831 190.76 365.47 198.008 367.867Z" fill="#FFBB54"/>
<path d="M150.773 347.993C147.268 347.406 143.798 346.728 140.393 345.888C137.3 342.92 134.231 339.948 131.185 336.972C137.558 340.88 144.102 344.544 150.773 347.993Z" fill="#FFBB54"/>
<path d="M107.913 321.365C104.894 320.041 101.949 318.609 99.0787 317.071C96.2481 313.91 93.3892 310.785 90.548 307.653C96.1509 312.424 101.955 316.988 107.913 321.365Z" fill="#FFBB54"/>
<path d="M70.2794 288.937C67.8827 286.986 65.5813 284.945 63.3968 282.811C60.7571 279.525 58.1082 276.247 55.4502 272.976C60.1987 278.451 65.1631 283.758 70.2794 288.937Z" fill="#FFBB54"/>
<path d="M326.967 366.448C323.286 369.017 319.532 371.463 315.736 373.817C311.834 372.033 307.95 370.273 304.111 368.475C311.744 368.083 319.363 367.408 326.967 366.448Z" fill="#FFBB54"/>
<path d="M275.381 368.683C271.503 370.388 267.581 371.955 263.641 373.429C259.955 371.291 256.294 369.154 252.659 367.017C260.202 367.832 267.776 368.388 275.381 368.683Z" fill="#FFBB54"/>
<path d="M224.472 362.671C220.579 363.47 216.69 364.19 212.798 364.775C209.335 362.337 205.892 359.902 202.468 357.471C209.727 359.468 217.075 361.168 224.472 362.671Z" fill="#FFBB54"/>
<path d="M175.527 348.823C171.818 348.802 168.136 348.651 164.48 348.373C161.232 345.686 157.984 343.02 154.772 340.329C161.576 343.405 168.494 346.236 175.527 348.823Z" fill="#FFBB54"/>
<path d="M129.701 327.727C126.347 326.902 123.047 325.964 119.8 324.913C116.752 322.016 113.706 319.126 110.662 316.242C116.863 320.286 123.223 324.106 129.701 327.727Z" fill="#FFBB54"/>
<path d="M88.0078 300.103C85.1671 298.561 82.3943 296.936 79.7121 295.208C76.8398 292.13 73.9618 289.056 71.0783 285.987C76.553 290.874 82.2122 295.57 88.0078 300.103Z" fill="#FFBB54"/>
<path d="M354.994 342.622C350.32 347.056 345.489 351.311 340.496 355.337C335.023 353.328 329.614 351.289 324.271 349.221C334.618 347.555 344.874 345.353 354.994 342.622V342.622Z" fill="#FFBB54"/>
<path d="M305.755 351.65C300.588 354.967 295.284 358.03 289.9 360.886C284.66 358.344 279.47 355.793 274.332 353.233C284.825 353.227 295.3 352.7 305.755 351.65Z" fill="#FFBB54"/>
<path d="M255.648 352.689C250.223 354.787 244.75 356.651 239.228 358.28C234.225 355.295 229.263 352.304 224.344 349.308C234.717 350.935 245.152 352.063 255.648 352.689Z" fill="#FFBB54"/>
<path d="M205.965 345.857C200.56 346.739 195.163 347.385 189.773 347.795C185.008 344.42 180.269 341.046 175.557 337.674C185.557 340.871 195.702 343.633 205.965 345.857Z" fill="#FFBB54"/>
<path d="M157.929 331.446C152.8 331.156 147.734 330.63 142.732 329.868C138.197 326.145 133.665 322.433 129.137 318.731C138.517 323.435 148.14 327.658 157.929 331.446Z" fill="#FFBB54"/>
<path d="M112.67 309.913C108.094 308.536 103.592 306.929 99.179 305.097C94.8564 301.056 90.512 297.033 86.146 293.028C94.7216 299.055 103.563 304.684 112.67 309.913Z" fill="#FFBB54"/>
<path d="M71.2018 281.857C67.3345 279.53 63.6095 276.975 60.0464 274.205C55.8981 269.878 51.7455 265.535 47.5219 261.235C55.1 268.456 62.9934 275.33 71.2018 281.857Z" fill="#FFBB54"/>
<path d="M333.152 330.072C327.299 335.187 321.189 340 314.847 344.493C308.354 341.936 301.961 339.298 295.626 336.677C308.26 335.265 320.793 333.059 333.152 330.072V330.072Z" fill="#FFBB54"/>
<path d="M285.137 337.673C278.711 341.374 272.103 344.748 265.338 347.782C259.064 344.617 252.843 341.454 246.673 338.291C259.494 338.873 272.339 338.666 285.137 337.673V337.673Z" fill="#FFBB54"/>
<path d="M236.06 337.635C229.39 339.869 222.607 341.745 215.739 343.255C209.673 339.58 203.654 335.888 197.628 332.26C210.318 334.822 223.152 336.617 236.06 337.635V337.635Z" fill="#FFBB54"/>
<path d="M187.154 329.966C180.555 330.723 173.919 331.104 167.278 331.108C161.415 326.961 155.552 322.834 149.689 318.729C161.945 323.208 174.454 326.961 187.154 329.966V329.966Z" fill="#FFBB54"/>
<path d="M139.607 314.852C133.383 314.175 127.207 313.123 121.111 311.702C115.412 307.145 109.731 302.556 104.006 298.003C115.534 304.307 127.421 309.933 139.607 314.852V314.852Z" fill="#FFBB54"/>
<path d="M94.5526 292.631C88.9841 290.633 83.5559 288.266 78.304 285.545C72.7957 280.537 67.2265 275.558 61.6479 270.542C72.1664 278.553 83.1541 285.929 94.5526 292.631V292.631Z" fill="#FFBB54"/>
<path d="M356.276 305.172C350.488 311.891 344.33 318.281 337.831 324.314C330.684 322.038 323.628 319.729 316.663 317.387C330.139 314.26 343.377 310.178 356.276 305.172V305.172Z" fill="#FFBB54"/>
<path d="M311.418 318.554C304.712 323.827 297.719 328.722 290.47 333.219C283.448 330.297 276.492 327.368 269.601 324.432C283.658 323.451 297.632 321.487 311.418 318.554V318.554Z" fill="#FFBB54"/>
<path d="M264.141 324.768C256.859 328.456 249.376 331.732 241.727 334.581C234.84 331.065 227.986 327.561 221.165 324.07C235.455 325.283 249.814 325.516 264.141 324.768V324.768Z" fill="#FFBB54"/>
<path d="M215.623 323.554C208.124 325.601 200.511 327.201 192.824 328.346C186.066 324.274 179.307 320.224 172.548 316.197C186.722 319.618 201.113 322.076 215.623 323.554V323.554Z" fill="#FFBB54"/>
<path d="M167.063 314.826C159.697 315.218 152.314 315.152 144.958 314.628C138.318 310.024 131.648 305.438 124.947 300.872C138.658 306.457 152.728 311.118 167.063 314.826V314.826Z" fill="#FFBB54"/>
<path d="M119.651 298.665C112.753 297.48 105.945 295.824 99.2739 293.71C92.7444 288.575 86.1614 283.445 79.5249 278.32C92.4348 285.981 105.84 292.778 119.651 298.665V298.665Z" fill="#FFBB54"/>
<path d="M74.5486 275.314C68.4272 272.661 62.514 269.554 56.8586 266.017C50.4344 260.347 43.9489 254.648 37.4023 248.922C49.1888 258.528 61.5978 267.344 74.5486 275.314V275.314Z" fill="#FFBB54"/>
<path d="M334.281 296.056C327.894 302.736 321.104 309.021 313.951 314.873C306.613 312.433 299.36 309.946 292.164 307.469C306.47 304.736 320.55 300.921 334.281 296.056V296.056Z" fill="#FFBB54"/>
<path d="M289.826 307.907C282.528 313.031 274.923 317.703 267.053 321.894C259.748 318.821 252.493 315.735 245.254 312.687C260.206 312.183 275.103 310.585 289.826 307.907V307.907Z" fill="#FFBB54"/>
<path d="M242.813 312.758C234.967 316.187 226.916 319.123 218.705 321.547C211.43 317.868 204.155 314.21 196.879 310.571C212.116 312.408 227.467 313.139 242.813 312.758V312.758Z" fill="#FFBB54"/>
<path d="M194.395 310.262C186.38 311.94 178.265 313.087 170.101 313.698C162.841 309.435 155.566 305.167 148.24 300.933C163.383 305.129 178.807 308.247 194.395 310.262V310.262Z" fill="#FFBB54"/>
<path d="M145.774 300.237C137.959 300.166 130.16 299.546 122.434 298.384C115.192 293.521 107.914 288.626 100.555 283.753C115.217 290.311 130.328 295.819 145.774 300.237V300.237Z" fill="#FFBB54"/>
<path d="M98.1707 282.68C90.9127 280.922 83.7972 278.624 76.8835 275.806C69.6913 270.282 62.3954 264.772 55.0449 259.195C68.8469 268.031 83.258 275.879 98.1707 282.68V282.68Z" fill="#FFBB54"/>
<path d="M353.456 270.851C347.826 278.636 341.712 286.06 335.15 293.079C327.879 291.183 320.676 289.281 313.542 287.375C327.263 282.937 340.611 277.411 353.456 270.851V270.851Z" fill="#FFBB54"/>
<path d="M312.702 287.646C305.871 294.019 298.636 299.945 291.042 305.387C283.69 302.891 276.371 300.405 269.087 297.929C283.87 295.645 298.453 292.207 312.702 287.646V287.646Z" fill="#FFBB54"/>
<path d="M268.184 298.067C260.479 302.797 252.483 307.034 244.243 310.753C236.803 307.653 229.36 304.575 221.915 301.521C237.401 301.542 252.869 300.388 268.184 298.067V298.067Z" fill="#FFBB54"/>
<path d="M220.969 301.519C212.776 304.491 204.399 306.924 195.891 308.803C188.359 305.09 180.79 301.396 173.184 297.72C188.994 300.17 204.966 301.44 220.969 301.519V301.519Z" fill="#FFBB54"/>
<path d="M172.221 297.567C163.926 298.713 155.563 299.299 147.191 299.321C139.567 294.972 131.88 290.617 124.132 286.257C139.858 291.211 155.932 294.992 172.221 297.567V297.567Z" fill="#FFBB54"/>
<path d="M123.174 285.955C115.161 285.295 107.206 284.065 99.37 282.273C91.6861 277.214 83.9083 272.142 76.0366 267.055C91.2699 274.486 107.023 280.802 123.174 285.955V285.955Z" fill="#FFBB54"/>
<path d="M75.1104 266.601C67.7458 264.215 60.5745 261.271 53.6586 257.795C45.9282 252.007 38.1089 246.149 30.2007 240.221C44.5049 250.099 59.5149 258.916 75.1104 266.601V266.601Z" fill="#FFBB54"/>
<path d="M331.642 265.197C325.85 272.19 319.641 278.827 313.048 285.072C306.253 283.288 299.487 281.52 292.75 279.768C306.067 275.915 319.069 271.043 331.642 265.197V265.197Z" fill="#FFBB54"/>
<path d="M290.375 280.445C283.499 286.024 276.286 291.175 268.777 295.868C261.788 293.552 254.797 291.252 247.803 288.971C262.185 287.193 276.415 284.343 290.375 280.445V280.445Z" fill="#FFBB54"/>
<path d="M245.243 289.278C237.615 293.251 229.748 296.744 221.686 299.736C214.5 296.84 207.286 293.953 200.014 291.12C215.113 291.613 230.23 290.998 245.243 289.278V289.278Z" fill="#FFBB54"/>
<path d="M197.332 291.022C189.316 293.266 181.167 295 172.934 296.214C165.551 292.698 158.095 289.215 150.585 285.7C166.017 288.595 181.64 290.373 197.332 291.022V291.022Z" fill="#FFBB54"/>
<path d="M147.85 285.176C139.824 285.654 131.777 285.6 123.761 285.014C116.193 280.831 108.545 276.62 100.816 272.382C116.167 277.763 131.885 282.039 147.85 285.176V285.176Z" fill="#FFBB54"/>
<path d="M98.0994 271.42C90.4339 270.156 82.8677 268.355 75.4569 266.029C67.7565 261.082 59.9369 256.125 52.0664 251.039C66.8969 258.935 82.2814 265.747 98.0994 271.42V271.42Z" fill="#FFBB54"/>
<path d="M347.064 240.95C342.568 248.043 337.684 254.882 332.434 261.436C326.54 260.32 320.669 259.22 314.823 258.137C325.975 253.204 336.75 247.46 347.064 240.95V240.95Z" fill="#FFBB54"/>
<path d="M309.689 260.346C304.001 266.315 297.969 271.946 291.624 277.211C285.462 275.652 279.3 274.102 273.121 272.612C285.585 269.398 297.806 265.299 309.689 260.346V260.346Z" fill="#FFBB54"/>
<path d="M267.401 274.028C260.77 278.617 253.887 282.83 246.785 286.647C240.336 284.607 233.855 282.588 227.342 280.589C240.83 279.336 254.215 277.144 267.401 274.028V274.028Z" fill="#FFBB54"/>
<path d="M221.175 281.105C213.935 284.165 206.529 286.814 198.992 289.042C192.256 286.452 185.463 283.875 178.612 281.31C192.787 282.196 207.007 282.127 221.175 281.105V281.105Z" fill="#FFBB54"/>
<path d="M172.153 280.84C164.65 282.29 157.069 283.295 149.449 283.851C142.436 280.656 135.352 277.436 128.198 274.192C142.683 277.385 157.368 279.606 172.153 280.84V280.84Z" fill="#FFBB54"/>
<path d="M121.62 272.676C114.201 272.483 106.803 271.828 99.4671 270.716C92.2185 266.814 84.9028 262.843 77.4824 258.857C91.8703 264.438 106.615 269.055 121.62 272.676V272.676Z" fill="#FFBB54"/>
<path d="M70.9706 256.26C63.9807 254.452 57.1173 252.188 50.4243 249.484C43.0011 244.798 35.5186 239.997 27.9316 235.141C41.7951 243.122 56.1728 250.177 70.9706 256.26V256.26Z" fill="#FFBB54"/>
<path d="M325.626 238.633C321.401 244.302 316.886 249.744 312.138 254.956C307.206 254.1 302.273 253.255 297.336 252.421C307.045 248.423 316.494 243.818 325.626 238.633V238.633Z" fill="#FFBB54"/>
<path d="M286.762 256.517C281.549 261.143 276.115 265.495 270.518 269.585C265.264 268.357 259.986 267.149 254.684 265.964C265.557 263.467 276.269 260.312 286.762 256.517V256.517Z" fill="#FFBB54"/>
<path d="M242.912 268.413C236.961 271.808 230.891 274.941 224.693 277.724C219.104 276.078 213.473 274.436 207.802 272.798C219.581 272.04 231.305 270.575 242.912 268.413V268.413Z" fill="#FFBB54"/>
<path d="M195.122 273.366C188.735 275.433 182.292 277.171 175.794 278.577C169.884 276.405 163.904 274.27 157.879 272.088C170.257 273.242 182.693 273.669 195.122 273.366V273.366Z" fill="#FFBB54"/>
<path d="M144.627 270.594C138.095 271.242 131.574 271.536 125.1 271.531C118.887 268.782 112.611 266.004 106.27 263.197C118.902 266.398 131.709 268.868 144.627 270.594V270.594Z" fill="#FFBB54"/>
<path d="M92.8204 259.507C86.4993 258.719 80.2236 257.606 74.0185 256.171C67.5608 252.747 61.0416 249.259 54.4609 245.707C66.9736 251.032 79.7809 255.64 92.8204 259.507V259.507Z" fill="#FFBB54"/>
<path d="M338.431 215.68C335.718 220.432 332.768 225.042 329.697 229.565C326.196 229.2 322.69 228.871 319.186 228.541C325.815 224.584 332.239 220.291 338.431 215.68V215.68Z" fill="#FFBB54"/>
<path d="M303.476 237.147C299.858 241.189 296.102 245.09 292.208 248.851C288.4 248.27 284.577 247.703 280.74 247.151C288.575 244.151 296.153 240.816 303.476 237.147Z" fill="#FFBB54"/>
<path d="M262.597 253.361C258.286 256.549 253.855 259.552 249.343 262.402C245.208 261.55 241.058 260.662 236.87 259.829C245.644 258.054 254.22 255.898 262.597 253.361Z" fill="#FFBB54"/>
<path d="M216.718 263.168C211.904 265.351 207.037 267.372 202.108 269.179C197.652 267.952 193.161 266.726 188.635 265.501C198.128 265.157 207.489 264.379 216.718 263.168Z" fill="#FFBB54"/>
<path d="M166.994 265.56C161.919 266.683 156.827 267.598 151.719 268.306C146.951 266.655 142.154 264.96 137.308 263.271C147.259 264.499 157.155 265.262 166.994 265.56Z" fill="#FFBB54"/>
<path d="M114.783 259.73C109.677 259.723 104.605 259.515 99.5643 259.106C94.5403 256.91 89.4684 254.693 84.3486 252.455C94.467 255.36 104.612 257.785 114.783 259.73Z" fill="#FFBB54"/>
<path d="M61.606 245.097C56.716 243.965 51.9054 242.645 47.174 241.137C41.9408 238.347 36.6688 235.507 31.3579 232.615C41.3244 237.266 51.4071 241.426 61.606 245.097Z" fill="#FFBB54"/>
<path d="M317.498 216.352C315.478 219.218 313.376 222.024 311.224 224.786C308.974 224.616 306.719 224.459 304.458 224.315C308.938 221.791 313.279 219.118 317.498 216.352Z" fill="#FFBB54"/>
<path d="M280.086 236.364C277.533 238.733 274.924 241.036 272.26 243.273C269.764 242.962 267.257 242.668 264.741 242.354C269.959 240.49 275.074 238.493 280.086 236.364Z" fill="#FFBB54"/>
<path d="M236.705 250.614C233.744 252.389 230.743 254.085 227.702 255.702C224.952 255.196 222.188 254.684 219.41 254.167C225.257 253.147 231.022 251.962 236.705 250.614Z" fill="#FFBB54"/>
<path d="M188.407 257.892C185.171 258.983 181.919 260 178.652 260.942C175.659 260.158 172.646 259.379 169.613 258.605C175.929 258.568 182.196 258.311 188.407 257.892Z" fill="#FFBB54"/>
<path d="M136.48 257.174C133.133 257.57 129.78 257.839 126.438 258.052C123.212 256.97 119.977 255.85 116.72 254.725C123.321 255.762 129.907 256.579 136.48 257.174Z" fill="#FFBB54"/>
<path d="M82.4344 247.654C79.1278 247.292 75.8393 246.859 72.581 246.316C69.1782 244.824 65.7435 243.344 62.3076 241.807C68.9962 243.964 75.7052 245.913 82.4344 247.654Z" fill="#FFBB54"/>
<path d="M329.512 193.618C328.7 195.132 327.857 196.631 326.998 198.119C326.013 198.124 325.027 198.131 324.04 198.14C325.903 196.661 327.728 195.154 329.512 193.618Z" fill="#FFBB54"/>
<path d="M296.179 217.023C295.062 218.325 293.93 219.614 292.784 220.889C291.663 220.835 290.54 220.815 289.416 220.757C291.701 219.541 293.955 218.296 296.179 217.023Z" fill="#FFBB54"/>
<path d="M255.976 235.455C254.623 236.5 253.242 237.506 251.863 238.513C250.6 238.389 249.33 238.277 248.059 238.139C250.726 237.288 253.365 236.393 255.976 235.455Z" fill="#FFBB54"/>
<path d="M209.812 247.505C208.272 248.224 206.732 248.939 205.178 249.617C203.772 249.37 202.355 249.159 200.941 248.9C203.919 248.494 206.876 248.029 209.812 247.505Z" fill="#FFBB54"/>
<path d="M158.889 251.933C157.245 252.308 155.599 252.656 153.952 253.003C152.409 252.621 150.86 252.232 149.308 251.837C152.512 251.915 155.706 251.948 158.889 251.933Z" fill="#FFBB54"/>
<path d="M104.663 247.706C102.993 247.72 101.326 247.711 99.661 247.678C97.997 247.113 96.3275 246.547 94.6587 245.959C97.9981 246.583 101.331 247.178 104.663 247.706Z" fill="#FFBB54"/>
<path d="M48.8057 234.05C47.1892 233.686 45.5794 233.308 43.9763 232.917C42.2263 232.121 40.4617 231.34 38.6982 230.543C42.0591 231.766 45.4333 232.922 48.8057 234.05Z" fill="#FFBB54"/>
<path d="M258.06 9.22461C258.201 9.14752 258.339 9.06794 258.477 8.99049L258.323 9.04444C258.236 9.10471 258.147 9.16522 258.06 9.22461Z" fill="#FFBB54"/>
<path d="M275.941 0.0078125C276.091 -0.0388823 276.241 -0.0816968 276.391 -0.127641L276.24 -0.100096C276.14 -0.0647114 276.042 -0.0289499 275.941 0.0078125Z" fill="#FFBB54"/>
<path d="M310.594 195.323C310.503 195.442 310.423 195.57 310.342 195.697C310.255 195.693 310.167 195.714 310.08 195.709C310.248 195.578 310.422 195.452 310.594 195.323Z" fill="#FFBB54"/>
<path d="M274.263 217.609C274.161 217.717 274.042 217.811 273.939 217.92C273.837 217.922 273.735 217.924 273.634 217.919C273.847 217.823 274.049 217.701 274.263 217.609Z" fill="#FFBB54"/>
<path d="M230.985 234.26C230.864 234.35 230.736 234.429 230.601 234.496C230.485 234.49 230.37 234.466 230.253 234.469C230.5 234.407 230.742 234.334 230.985 234.26Z" fill="#FFBB54"/>
<path d="M181.828 243.819C181.681 243.851 181.55 243.935 181.404 243.968C181.272 243.961 181.142 243.94 181.014 243.906C181.286 243.879 181.556 243.844 181.828 243.819Z" fill="#FFBB54"/>
<path d="M128.169 245.029C128.022 245.051 127.871 245.049 127.725 245.084C127.585 245.038 127.442 245.002 127.297 244.977C127.587 244.998 127.878 245.01 128.169 245.029Z" fill="#FFBB54"/>
<path d="M71.6413 236.879C71.4938 236.857 71.3443 236.864 71.1983 236.835C71.0392 236.801 70.8941 236.717 70.7378 236.673C71.0439 236.717 71.3414 236.807 71.6413 236.879Z" fill="#FFBB54"/>
</g>
<g opacity="0.4" clip-path="url(#clip1_258_73013)" filter="url(#filter0_f_258_73013)">
<path d="M325.917 350.862C322.245 353.774 318.491 356.566 314.684 359.264C310.517 357.541 306.388 355.805 302.297 354.058C310.189 353.271 318.062 352.206 325.917 350.862Z" fill="#FFBB54"/>
<path d="M272.593 355.588C268.67 357.612 264.705 359.52 260.699 361.311C256.79 359.18 252.927 357.021 249.096 354.857C256.899 355.387 264.732 355.631 272.593 355.588Z" fill="#FFBB54"/>
<path d="M219.957 351.556C215.983 352.678 211.997 353.68 207.998 354.562C204.368 352.086 200.785 349.582 197.22 347.091C204.728 348.842 212.309 350.355 219.957 351.556Z" fill="#FFBB54"/>
<path d="M169.405 339.263C165.575 339.509 161.761 339.629 157.964 339.624C154.63 336.85 151.317 334.08 147.997 331.345C155.021 334.227 162.157 336.867 169.405 339.263Z" fill="#FFBB54"/>
<path d="M122.17 319.389C118.665 318.802 115.195 318.124 111.79 317.285C108.697 314.317 105.628 311.345 102.582 308.368C108.955 312.277 115.499 315.941 122.17 319.389Z" fill="#FFBB54"/>
<path d="M79.3103 292.762C76.2905 291.437 73.3456 290.006 70.4757 288.468C67.6451 285.307 64.7862 282.181 61.945 279.049C67.5479 283.821 73.352 288.384 79.3103 292.762Z" fill="#FFBB54"/>
<path d="M41.6763 260.334C39.2796 258.382 36.9783 256.342 34.7938 254.207C32.154 250.921 29.5052 247.643 26.8471 244.372C31.5957 249.847 36.5601 255.154 41.6763 260.334Z" fill="#FFBB54"/>
<path d="M349.235 327.151C345.94 330.535 342.536 333.803 339.086 337.011C334.977 335.675 330.901 334.334 326.874 332.938C334.389 331.292 341.842 329.363 349.235 327.151Z" fill="#FFBB54"/>
<path d="M298.364 337.845C294.683 340.414 290.929 342.859 287.133 345.213C283.231 343.43 279.347 341.669 275.508 339.871C283.141 339.48 290.76 338.804 298.364 337.845Z" fill="#FFBB54"/>
<path d="M246.778 340.08C242.9 341.784 238.977 343.351 235.037 344.825C231.352 342.688 227.691 340.551 224.056 338.413C231.599 339.229 239.173 339.784 246.778 340.08Z" fill="#FFBB54"/>
<path d="M195.869 334.067C191.976 334.866 188.087 335.586 184.195 336.171C180.732 333.734 177.289 331.299 173.865 328.867C181.124 330.864 188.472 332.564 195.869 334.067Z" fill="#FFBB54"/>
<path d="M146.924 320.22C143.216 320.198 139.533 320.048 135.877 319.77C132.63 317.083 129.381 314.416 126.169 311.726C132.973 314.801 139.891 317.633 146.924 320.22Z" fill="#FFBB54"/>
<path d="M101.098 299.123C97.7442 298.299 94.4439 297.361 91.1971 296.31C88.1488 293.413 85.1028 290.522 82.0591 287.639C88.2602 291.682 94.6198 295.502 101.098 299.123Z" fill="#FFBB54"/>
<path d="M59.4047 271.499C56.5641 269.958 53.7913 268.332 51.1091 266.604C48.2367 263.526 45.3588 260.453 42.4752 257.383C47.95 262.271 53.6092 266.966 59.4047 271.499Z" fill="#FFBB54"/>
<path d="M326.391 314.018C321.717 318.452 316.886 322.707 311.893 326.734C306.42 324.725 301.011 322.686 295.667 320.617C306.015 318.952 316.27 316.749 326.391 314.018V314.018Z" fill="#FFBB54"/>
<path d="M277.152 323.047C271.985 326.364 266.681 329.427 261.297 332.282C256.057 329.74 250.867 327.19 245.729 324.63C256.222 324.624 266.697 324.096 277.152 323.047Z" fill="#FFBB54"/>
<path d="M227.045 324.086C221.62 326.184 216.147 328.047 210.625 329.676C205.622 326.691 200.66 323.701 195.741 320.704C206.114 322.332 216.549 323.459 227.045 324.086Z" fill="#FFBB54"/>
<path d="M177.362 317.253C171.957 318.136 166.56 318.782 161.17 319.192C156.405 315.816 151.666 312.442 146.954 309.07C156.954 312.268 167.099 315.029 177.362 317.253Z" fill="#FFBB54"/>
<path d="M129.326 302.842C124.197 302.552 119.131 302.026 114.129 301.265C109.594 297.542 105.062 293.829 100.534 290.128C109.914 294.832 119.537 299.054 129.326 302.842Z" fill="#FFBB54"/>
<path d="M84.067 281.31C79.4915 279.933 74.9887 278.325 70.576 276.494C66.2533 272.453 61.909 268.43 57.543 264.425C66.1186 270.452 74.9599 276.08 84.067 281.31Z" fill="#FFBB54"/>
<path d="M42.5988 253.254C38.7315 250.927 35.0065 248.372 31.4434 245.602C27.2951 241.275 23.1425 236.931 18.9189 232.632C26.497 239.853 34.3903 246.727 42.5988 253.254Z" fill="#FFBB54"/>
<path d="M350.266 286.399C345.25 292.772 339.959 298.914 334.382 304.77C327.711 302.842 321.133 300.866 314.647 298.841C326.769 295.449 338.666 291.293 350.266 286.399V286.399Z" fill="#FFBB54"/>
<path d="M304.549 301.469C298.696 306.583 292.586 311.396 286.244 315.89C279.751 313.332 273.358 310.694 267.023 308.073C279.657 306.661 292.19 304.456 304.549 301.469V301.469Z" fill="#FFBB54"/>
<path d="M256.534 309.069C250.108 312.77 243.5 316.145 236.735 319.178C230.461 316.014 224.24 312.85 218.07 309.688C230.891 310.269 243.736 310.063 256.534 309.069V309.069Z" fill="#FFBB54"/>
<path d="M207.457 309.032C200.787 311.265 194.004 313.141 187.136 314.652C181.07 310.976 175.051 307.284 169.025 303.656C181.715 306.219 194.549 308.014 207.457 309.032V309.032Z" fill="#FFBB54"/>
<path d="M158.551 301.363C151.952 302.119 145.316 302.501 138.675 302.505C132.812 298.357 126.949 294.231 121.086 290.125C133.341 294.605 145.851 298.357 158.551 301.363V301.363Z" fill="#FFBB54"/>
<path d="M111.004 286.248C104.78 285.571 98.6039 284.52 92.5082 283.099C86.8086 278.542 81.1279 273.952 75.4033 269.399C86.9313 275.704 98.8184 281.33 111.004 286.248V286.248Z" fill="#FFBB54"/>
<path d="M65.9495 264.028C60.3811 262.03 54.9529 259.662 49.701 256.941C44.1926 251.934 38.6234 246.955 33.0449 241.938C43.5634 249.95 54.551 257.326 65.9495 264.028V264.028Z" fill="#FFBB54"/>
<path d="M327.673 276.569C321.885 283.287 315.727 289.678 309.228 295.71C302.081 293.434 295.025 291.125 288.06 288.783C301.536 285.656 314.774 281.574 327.673 276.569V276.569Z" fill="#FFBB54"/>
<path d="M282.815 289.951C276.109 295.223 269.116 300.119 261.867 304.615C254.845 301.693 247.889 298.764 240.998 295.828C255.055 294.847 269.029 292.884 282.815 289.951V289.951Z" fill="#FFBB54"/>
<path d="M235.538 296.164C228.256 299.853 220.773 303.129 213.124 305.977C206.237 302.461 199.383 298.958 192.562 295.467C206.852 296.679 221.211 296.912 235.538 296.164V296.164Z" fill="#FFBB54"/>
<path d="M187.02 294.951C179.521 296.997 171.908 298.598 164.221 299.743C157.463 295.67 150.704 291.621 143.945 287.594C158.119 291.015 172.51 293.473 187.02 294.951V294.951Z" fill="#FFBB54"/>
<path d="M138.46 286.223C131.094 286.614 123.711 286.548 116.355 286.025C109.715 281.42 103.045 276.835 96.3442 272.269C110.055 277.853 124.125 282.515 138.46 286.223V286.223Z" fill="#FFBB54"/>
<path d="M91.048 270.062C84.1499 268.876 77.3417 267.221 70.6709 265.107C64.1414 259.972 57.5584 254.842 50.9219 249.717C63.8318 257.378 77.2365 264.174 91.048 270.062V270.062Z" fill="#FFBB54"/>
<path d="M45.9455 246.71C39.8242 244.058 33.911 240.95 28.2556 237.414C21.8314 231.743 15.3459 226.045 8.79932 220.318C20.5857 229.924 32.9948 238.741 45.9455 246.71V246.71Z" fill="#FFBB54"/>
<path d="M346.49 249.112C341.332 257.129 335.701 264.832 329.628 272.18C322.27 270.393 315.014 268.556 307.857 266.668C321.17 261.829 334.087 255.959 346.49 249.112V249.112Z" fill="#FFBB54"/>
<path d="M305.678 267.452C299.291 274.133 292.501 280.417 285.348 286.27C278.01 283.83 270.757 281.342 263.561 278.865C277.867 276.132 291.946 272.317 305.678 267.452V267.452Z" fill="#FFBB54"/>
<path d="M261.223 279.303C253.925 284.428 246.32 289.099 238.45 293.291C231.145 290.218 223.89 287.131 216.651 284.083C231.603 283.579 246.5 281.982 261.223 279.303V279.303Z" fill="#FFBB54"/>
<path d="M214.21 284.154C206.364 287.584 198.313 290.519 190.102 292.944C182.827 289.265 175.552 285.606 168.276 281.968C183.513 283.805 198.864 284.536 214.21 284.154V284.154Z" fill="#FFBB54"/>
<path d="M165.792 281.659C157.777 283.336 149.662 284.484 141.498 285.094C134.238 280.831 126.963 276.563 119.637 272.329C134.78 276.526 150.204 279.643 165.792 281.659V281.659Z" fill="#FFBB54"/>
<path d="M117.171 271.634C109.356 271.562 101.557 270.943 93.8311 269.78C86.5885 264.917 79.3106 260.023 71.9517 255.149C86.6142 261.707 101.725 267.216 117.171 271.634V271.634Z" fill="#FFBB54"/>
<path d="M69.5676 254.076C62.3097 252.319 55.1942 250.021 48.2805 247.202C41.0883 241.679 33.7924 236.169 26.4419 230.592C40.2438 239.428 54.655 247.275 69.5676 254.076V254.076Z" fill="#FFBB54"/>
<path d="M360.898 219.821C356.78 228.758 352.1 237.426 346.886 245.773C339.694 244.523 332.602 243.219 325.61 241.859C337.957 235.494 349.759 228.122 360.898 219.821V219.821Z" fill="#FFBB54"/>
<path d="M324.853 242.247C319.223 250.033 313.109 257.457 306.547 264.475C299.276 262.579 292.073 260.678 284.939 258.771C298.66 254.333 312.008 248.808 324.853 242.247V242.247Z" fill="#FFBB54"/>
<path d="M284.099 259.043C277.268 265.416 270.033 271.341 262.439 276.783C255.087 274.287 247.768 271.801 240.484 269.325C255.267 267.041 269.85 263.603 284.099 259.043V259.043Z" fill="#FFBB54"/>
<path d="M239.581 269.463C231.876 274.194 223.88 278.431 215.639 282.149C208.2 279.049 200.757 275.972 193.312 272.917C208.798 272.939 224.266 271.784 239.581 269.463V269.463Z" fill="#FFBB54"/>
<path d="M192.366 272.916C184.173 275.888 175.796 278.321 167.288 280.199C159.756 276.486 152.187 272.792 144.581 269.116C160.391 271.566 176.363 272.836 192.366 272.916V272.916Z" fill="#FFBB54"/>
<path d="M143.618 268.964C135.323 270.11 126.96 270.695 118.588 270.717C110.964 266.368 103.277 262.014 95.5288 257.653C111.255 262.608 127.329 266.388 143.618 268.964V268.964Z" fill="#FFBB54"/>
<path d="M94.5706 257.352C86.5576 256.692 78.6029 255.461 70.7669 253.67C63.0831 248.611 55.3053 243.538 47.4336 238.451C62.6668 245.882 78.4204 252.199 94.5706 257.352V257.352Z" fill="#FFBB54"/>
<path d="M46.5074 237.998C39.1428 235.611 31.9714 232.667 25.0556 229.191C17.3251 223.403 9.50583 217.545 1.59766 211.617C15.9019 221.496 30.9119 230.313 46.5074 237.998V237.998Z" fill="#FFBB54"/>
<path d="M339.501 215.743C335.104 223.911 330.207 231.8 324.84 239.367C318.226 238.109 311.67 236.848 305.175 235.584C317.125 229.892 328.603 223.258 339.501 215.743V215.743Z" fill="#FFBB54"/>
<path d="M303.039 236.593C297.247 243.587 291.038 250.224 284.445 256.468C277.65 254.684 270.884 252.916 264.146 251.164C277.464 247.311 290.466 242.44 303.039 236.593V236.593Z" fill="#FFBB54"/>
<path d="M261.772 251.841C254.896 257.42 247.682 262.571 240.174 267.265C233.185 264.948 226.194 262.649 219.2 260.367C233.582 258.589 247.812 255.739 261.772 251.841V251.841Z" fill="#FFBB54"/>
<path d="M216.64 260.674C209.012 264.647 201.145 268.14 193.083 271.132C185.897 268.237 178.683 265.35 171.411 262.517C186.51 263.01 201.627 262.394 216.64 260.674V260.674Z" fill="#FFBB54"/>
<path d="M168.729 262.418C160.713 264.662 152.564 266.397 144.331 267.61C136.948 264.095 129.492 260.612 121.982 257.097C137.414 259.991 153.037 261.769 168.729 262.418V262.418Z" fill="#FFBB54"/>
<path d="M119.247 256.573C111.221 257.051 103.174 256.996 95.1581 256.41C87.59 252.227 79.9416 248.017 72.2129 243.778C87.5636 249.16 103.282 253.436 119.247 256.573V256.573Z" fill="#FFBB54"/>
<path d="M69.4964 242.816C61.8309 241.553 54.2647 239.751 46.8539 237.426C39.1534 232.479 31.3339 227.522 23.4634 222.436C38.2939 230.332 53.6784 237.143 69.4964 242.816V242.816Z" fill="#FFBB54"/>
<path d="M350.134 188.256C347.104 196.225 343.615 204.013 339.685 211.58C334.039 210.883 328.443 210.18 322.896 209.47C332.5 203.1 341.606 196.008 350.134 188.256V188.256Z" fill="#FFBB54"/>
<path d="M318.461 212.347C313.965 219.439 309.081 226.278 303.831 232.833C297.937 231.716 292.066 230.617 286.22 229.533C297.371 224.6 308.147 218.856 318.461 212.347V212.347Z" fill="#FFBB54"/>
<path d="M281.086 231.742C275.398 237.711 269.366 243.342 263.021 248.607C256.859 247.049 250.697 245.499 244.518 244.009C256.982 240.795 269.203 236.696 281.086 231.742V231.742Z" fill="#FFBB54"/>
<path d="M238.798 245.425C232.167 250.014 225.284 254.227 218.182 258.043C211.733 256.003 205.252 253.984 198.739 251.985C212.227 250.733 225.612 248.541 238.798 245.425V245.425Z" fill="#FFBB54"/>
<path d="M192.572 252.502C185.332 255.561 177.926 258.211 170.389 260.438C163.653 257.849 156.86 255.271 150.009 252.706C164.184 253.592 178.404 253.524 192.572 252.502V252.502Z" fill="#FFBB54"/>
<path d="M143.55 252.237C136.047 253.686 128.466 254.692 120.846 255.248C113.833 252.052 106.749 248.833 99.5947 245.589C114.08 248.781 128.765 251.002 143.55 252.237V252.237Z" fill="#FFBB54"/>
<path d="M93.017 244.073C85.5984 243.879 78.1998 243.225 70.864 242.113C63.6154 238.211 56.2997 234.239 48.8794 230.254C63.2673 235.835 78.0124 240.451 93.017 244.073V244.073Z" fill="#FFBB54"/>
<path d="M42.3676 227.656C35.3777 225.848 28.5143 223.585 21.8213 220.881C14.398 216.195 6.91561 211.394 -0.671387 206.537C13.1921 214.519 27.5698 221.574 42.3676 227.656V227.656Z" fill="#FFBB54"/>
<path d="M330.064 187.251C327.031 193.727 323.671 200.046 319.999 206.183C315.368 205.633 310.76 205.066 306.161 204.558C314.493 199.311 322.478 193.53 330.064 187.251V187.251Z" fill="#FFBB54"/>
<path d="M297.023 210.03C292.798 215.699 288.283 221.141 283.535 226.353C278.603 225.497 273.669 224.651 268.733 223.817C278.442 219.82 287.891 215.215 297.023 210.03V210.03Z" fill="#FFBB54"/>
<path d="M258.159 227.913C252.946 232.54 247.512 236.892 241.914 240.982C236.661 239.753 231.383 238.546 226.081 237.36C236.954 234.864 247.666 231.709 258.159 227.913V227.913Z" fill="#FFBB54"/>
<path d="M214.309 239.809C208.358 243.204 202.288 246.338 196.09 249.12C190.501 247.475 184.87 245.833 179.199 244.194C190.978 243.436 202.702 241.972 214.309 239.809V239.809Z" fill="#FFBB54"/>
<path d="M166.519 244.763C160.132 246.83 153.689 248.567 147.191 249.974C141.281 247.802 135.301 245.666 129.276 243.484C141.654 244.639 154.089 245.065 166.519 244.763V244.763Z" fill="#FFBB54"/>
<path d="M116.024 241.99C109.492 242.638 102.971 242.933 96.4968 242.927C90.2841 240.178 84.0075 237.401 77.667 234.594C90.2986 237.795 103.106 240.264 116.024 241.99V241.99Z" fill="#FFBB54"/>
<path d="M64.2173 230.903C57.8962 230.116 51.6206 229.002 45.4155 227.567C38.9578 224.143 32.4386 220.655 25.8579 217.104C38.3706 222.429 51.1778 227.036 64.2173 230.903V230.903Z" fill="#FFBB54"/>
<path d="M338.188 161.63C336.467 166.861 334.563 172.035 332.429 177.118C329.204 176.936 325.99 176.767 322.787 176.61C328.184 171.895 333.325 166.894 338.188 161.63V161.63Z" fill="#FFBB54"/>
<path d="M309.828 187.076C307.115 191.828 304.165 196.439 301.094 200.961C297.593 200.596 294.087 200.268 290.583 199.938C297.212 195.98 303.636 191.688 309.828 187.076V187.076Z" fill="#FFBB54"/>
<path d="M274.873 208.543C271.255 212.585 267.499 216.487 263.605 220.248C259.797 219.666 255.974 219.1 252.137 218.548C259.972 215.547 267.55 212.212 274.873 208.543Z" fill="#FFBB54"/>
<path d="M233.994 224.758C229.683 227.945 225.252 230.948 220.74 233.798C216.605 232.946 212.455 232.059 208.267 231.226C217.041 229.45 225.617 227.295 233.994 224.758Z" fill="#FFBB54"/>
<path d="M188.115 234.564C183.301 236.747 178.434 238.769 173.505 240.575C169.049 239.348 164.558 238.123 160.032 236.897C169.525 236.554 178.886 235.776 188.115 234.564Z" fill="#FFBB54"/>
<path d="M138.391 236.957C133.316 238.079 128.224 238.994 123.116 239.702C118.348 238.051 113.551 236.356 108.705 234.668C118.656 235.895 128.551 236.658 138.391 236.957Z" fill="#FFBB54"/>
<path d="M86.1797 231.127C81.0744 231.12 76.0016 230.911 70.9612 230.502C65.9373 228.306 60.8654 226.089 55.7456 223.852C65.8639 226.757 76.0087 229.182 86.1797 231.127Z" fill="#FFBB54"/>
<path d="M33.0029 216.494C28.113 215.361 23.3023 214.041 18.5709 212.533C13.3378 209.744 8.06573 206.903 2.75488 204.012C12.7214 208.662 22.8041 212.823 33.0029 216.494Z" fill="#FFBB54"/>
<path d="M319.559 163.321C318.17 166.555 316.698 169.753 315.145 172.915C313.123 172.851 311.101 172.788 309.078 172.749C312.712 169.692 316.205 166.549 319.559 163.321Z" fill="#FFBB54"/>
<path d="M288.895 187.748C286.875 190.614 284.773 193.42 282.621 196.182C280.371 196.012 278.116 195.855 275.855 195.712C280.335 193.187 284.676 190.515 288.895 187.748Z" fill="#FFBB54"/>
<path d="M251.483 207.761C248.93 210.129 246.321 212.432 243.657 214.669C241.161 214.358 238.654 214.065 236.138 213.751C241.356 211.886 246.471 209.889 251.483 207.761Z" fill="#FFBB54"/>
<path d="M208.103 222.011C205.142 223.786 202.141 225.482 199.1 227.099C196.35 226.592 193.586 226.08 190.808 225.563C196.654 224.543 202.419 223.359 208.103 222.011Z" fill="#FFBB54"/>
<path d="M159.804 229.288C156.568 230.38 153.316 231.397 150.049 232.339C147.056 231.554 144.043 230.775 141.01 230.002C147.326 229.965 153.593 229.707 159.804 229.288Z" fill="#FFBB54"/>
<path d="M107.877 228.57C104.53 228.967 101.177 229.236 97.8345 229.449C94.609 228.366 91.3735 227.247 88.1167 226.121C94.7176 227.159 101.304 227.975 107.877 228.57Z" fill="#FFBB54"/>
<path d="M53.8314 219.05C50.5248 218.689 47.2363 218.255 43.978 217.713C40.5751 216.221 37.1405 214.741 33.7046 213.203C40.3932 215.361 47.1021 217.31 53.8314 219.05Z" fill="#FFBB54"/>
<path d="M326.772 138.152C326.286 139.801 325.796 141.45 325.264 143.085C324.401 143.118 323.539 143.154 322.677 143.182C324.072 141.515 325.44 139.841 326.772 138.152Z" fill="#FFBB54"/>
<path d="M300.909 165.015C300.097 166.529 299.254 168.027 298.395 169.515C297.41 169.52 296.424 169.527 295.437 169.536C297.3 168.058 299.125 166.551 300.909 165.015Z" fill="#FFBB54"/>
<path d="M267.576 188.419C266.459 189.721 265.327 191.01 264.181 192.285C263.06 192.231 261.937 192.211 260.812 192.153C263.097 190.937 265.352 189.693 267.576 188.419Z" fill="#FFBB54"/>
<path d="M227.373 206.852C226.02 207.896 224.639 208.902 223.26 209.909C221.997 209.786 220.727 209.673 219.456 209.535C222.123 208.684 224.762 207.79 227.373 206.852Z" fill="#FFBB54"/>
<path d="M181.209 218.902C179.669 219.621 178.129 220.336 176.575 221.013C175.169 220.767 173.752 220.555 172.338 220.297C175.316 219.891 178.273 219.426 181.209 218.902Z" fill="#FFBB54"/>
<path d="M130.286 223.33C128.642 223.704 126.996 224.052 125.349 224.399C123.806 224.018 122.257 223.629 120.705 223.233C123.909 223.312 127.103 223.344 130.286 223.33Z" fill="#FFBB54"/>
<path d="M76.0596 219.103C74.3902 219.116 72.723 219.107 71.0579 219.075C69.394 218.509 67.7245 217.943 66.0557 217.355C69.3951 217.979 72.7279 218.575 76.0596 219.103Z" fill="#FFBB54"/>
<path d="M20.2027 205.446C18.5862 205.082 16.9763 204.705 15.3732 204.314C13.6233 203.518 11.8587 202.736 10.0952 201.939C13.456 203.163 16.8303 204.318 20.2027 205.446Z" fill="#FFBB54"/>
<path d="M310.628 140.395C310.575 140.536 310.515 140.674 310.462 140.814L310.238 140.832C310.368 140.686 310.499 140.542 310.628 140.395Z" fill="#FFBB54"/>
<path d="M281.991 166.719C281.9 166.839 281.82 166.967 281.739 167.093C281.652 167.09 281.564 167.11 281.477 167.105C281.645 166.975 281.819 166.848 281.991 166.719Z" fill="#FFBB54"/>
<path d="M245.66 189.006C245.558 189.114 245.439 189.207 245.336 189.317C245.234 189.318 245.132 189.321 245.031 189.315C245.244 189.219 245.446 189.098 245.66 189.006Z" fill="#FFBB54"/>
<path d="M202.382 205.657C202.261 205.747 202.133 205.826 201.998 205.893C201.882 205.887 201.767 205.862 201.65 205.865C201.897 205.803 202.139 205.731 202.382 205.657Z" fill="#FFBB54"/>
<path d="M153.225 215.216C153.078 215.248 152.947 215.332 152.801 215.365C152.669 215.358 152.539 215.337 152.411 215.303C152.683 215.275 152.953 215.24 153.225 215.216Z" fill="#FFBB54"/>
<path d="M99.5658 216.426C99.419 216.447 99.2677 216.445 99.1215 216.48C98.9816 216.435 98.8387 216.399 98.6938 216.373C98.9842 216.394 99.275 216.406 99.5658 216.426Z" fill="#FFBB54"/>
<path d="M43.0383 208.276C42.8907 208.253 42.7413 208.26 42.5953 208.231C42.4361 208.198 42.291 208.113 42.1348 208.069C42.4408 208.114 42.7383 208.203 43.0383 208.276Z" fill="#FFBB54"/>
</g>
</g>
<defs>
<filter id="filter0_f_258_73013" x="-101.616" y="-338.719" width="928.806" height="928.807" filterUnits="userSpaceOnUse" color-interpolation-filters="sRGB">
<feFlood flood-opacity="0" result="BackgroundImageFix"/>
<feBlend mode="normal" in="SourceGraphic" in2="BackgroundImageFix" result="shape"/>
<feGaussianBlur stdDeviation="47.4207" result="effect1_foregroundBlur_258_73013"/>
</filter>
<linearGradient id="paint0_linear_258_73013" x1="252.5" y1="9.30705e-06" x2="3.37805e-06" y2="216.165" gradientUnits="userSpaceOnUse">
<stop stop-color="#C4C4C4"/>
<stop offset="1" stop-color="#C4C4C4" stop-opacity="0"/>
</linearGradient>
<clipPath id="clip0_258_73013">
<rect width="645.613" height="399.665" fill="white" transform="translate(21.8296 241.243) rotate(-45)"/>
</clipPath>
<clipPath id="clip1_258_73013">
<rect width="645.613" height="399.665" fill="white" transform="translate(-6.77441 212.64) rotate(-45)"/>
</clipPath>
</defs>
</svg>
