<svg width="255" height="419" viewBox="0 0 255 419" fill="none" xmlns="http://www.w3.org/2000/svg">
<g opacity="0.1" filter="url(#filter0_f_17695_6202)">
<ellipse cx="-34" cy="177.776" rx="174" ry="126.224" fill="#FFBB54"/>
</g>
<g opacity="0.1">
<mask id="mask0_17695_6202" style="mask-type:alpha" maskUnits="userSpaceOnUse" x="-312" y="-124" width="503" height="296">
<rect x="-312" y="-124" width="503" height="295.025" fill="url(#paint0_linear_17695_6202)"/>
</mask>
<g mask="url(#mask0_17695_6202)">
<g clip-path="url(#clip0_17695_6202)">
<path d="M188.988 101.053C187.176 104.707 185.241 108.334 183.149 111.916C178.501 111.95 173.891 111.966 169.321 111.896C176.062 108.485 182.61 104.853 188.988 101.053Z" fill="#FFBB54"/>
<path d="M143.233 123.812C140.63 127.032 137.917 130.204 135.092 133.327C130.539 132.88 126.026 132.403 121.554 131.896C128.902 129.405 136.152 126.728 143.233 123.812Z" fill="#FFBB54"/>
<path d="M93.3952 140.257C90.1731 142.951 86.8591 145.582 83.4533 148.147C79.0671 147.285 74.7268 146.391 70.4321 145.465C78.1602 143.947 85.8146 142.211 93.3952 140.257Z" fill="#FFBB54"/>
<path d="M41.117 150.183C37.4595 152.287 33.72 154.304 29.9282 156.254C25.7776 155.009 21.6652 153.755 17.5908 152.492C25.4511 151.924 33.2932 151.154 41.117 150.183Z" fill="#FFBB54"/>
<path d="M197.405 74.1907C196.302 77.9386 195.004 81.662 193.573 85.3632C189.194 85.642 184.846 85.8696 180.53 86.0459C186.356 82.2599 192.002 78.3122 197.405 74.1907Z" fill="#FFBB54"/>
<path d="M157.688 99.474C155.705 102.891 153.581 106.265 151.318 109.596C146.96 109.413 142.638 109.219 138.363 108.935C144.967 105.973 151.409 102.819 157.688 99.474Z" fill="#FFBB54"/>
<path d="M112.844 119.221C110.12 122.191 107.273 125.098 104.358 127.969C100.103 127.371 95.8886 126.747 91.7148 126.095C98.857 123.983 105.9 121.692 112.844 119.221Z" fill="#FFBB54"/>
<path d="M64.3425 133.051C61.0609 135.496 57.6703 137.857 54.2335 140.175C50.1417 139.21 46.0814 138.24 42.0698 137.232C49.5551 136.043 56.9793 134.649 64.3425 133.051Z" fill="#FFBB54"/>
<path d="M13.6733 140.777C10.0064 142.633 6.26691 144.4 2.48607 146.101C-1.40031 144.813 -5.26912 143.54 -9.09229 142.241C-1.48971 141.958 6.0988 141.47 13.6733 140.777Z" fill="#FFBB54"/>
<path d="M202.573 43.3775C202.118 48.7056 201.35 54.0293 200.268 59.3485C194.471 60.0249 188.726 60.5971 183.034 61.0651C190.001 55.441 196.525 49.5356 202.573 43.3775V43.3775Z" fill="#FFBB54"/>
<path d="M170.201 70.7716C168.424 75.8043 166.371 80.7905 164.041 85.7304C158.193 85.7831 152.413 85.7633 146.703 85.6709C154.905 81.0197 162.749 76.0458 170.201 70.7716V70.7716Z" fill="#FFBB54"/>
<path d="M131.742 93.6043C128.816 98.1706 125.634 102.648 122.197 107.037C116.408 106.535 110.693 105.973 105.051 105.351C114.228 101.78 123.137 97.8593 131.742 93.6043V93.6043Z" fill="#FFBB54"/>
<path d="M88.4344 111.328C84.5452 115.28 80.3993 119.094 76.0953 122.806C70.4483 121.796 64.8725 120.748 59.3677 119.663C69.2515 117.258 78.9539 114.476 88.4344 111.328V111.328Z" fill="#FFBB54"/>
<path d="M41.5895 123.562C36.9336 126.766 32.1218 129.84 27.1485 132.75C21.6969 131.298 16.3098 129.825 10.9873 128.33C21.2942 127.127 31.5087 125.535 41.5895 123.562V123.562Z" fill="#FFBB54"/>
<path d="M201.1 13.4348C201.916 19.9787 202.26 26.5497 202.13 33.1209C195.435 34.2675 188.794 35.205 182.238 36.0191C189.251 28.8224 195.554 21.2755 201.1 13.4348V13.4348Z" fill="#FFBB54"/>
<path d="M176.285 41.8847C175.407 48.2534 174.084 54.5992 172.315 60.9223C165.467 61.3337 158.715 61.6197 152.057 61.7803C160.761 55.5651 168.857 48.917 176.285 41.8847Z" fill="#FFBB54"/>
<path d="M144.726 66.8269C142.283 72.8117 139.43 78.7095 136.167 84.5203C129.299 84.2859 122.537 83.9418 115.88 83.4883C125.999 78.4094 135.636 72.8431 144.726 66.8269Z" fill="#FFBB54"/>
<path d="M107.39 87.5834C103.539 92.9617 99.3532 98.2074 94.8325 103.32C88.0362 102.489 81.3563 101.547 74.772 100.572C86.0188 96.758 96.9143 92.4192 107.39 87.5834V87.5834Z" fill="#FFBB54"/>
<path d="M65.3692 103.606C60.3738 108.211 55.1029 112.649 49.5484 116.88C42.904 115.487 36.3519 114.059 29.8921 112.596C41.966 110.145 53.8154 107.142 65.3692 103.606V103.606Z" fill="#FFBB54"/>
<path d="M19.8338 114.494C14.0037 118.19 7.91834 121.668 1.60133 124.914C-4.86636 123.067 -11.2336 121.16 -17.5439 119.267C-4.96036 118.247 7.52359 116.653 19.8338 114.494V114.494Z" fill="#FFBB54"/>
<path d="M193.45 -14.3413C195.846 -7.28519 197.662 -0.131262 198.888 7.08264C191.98 8.61129 185.122 9.89214 178.358 11.0008C184.32 2.86066 189.367 -5.61425 193.45 -14.3413V-14.3413Z" fill="#FFBB54"/>
<path d="M176.005 14.1326C176.5 21.2592 176.415 28.4015 175.751 35.5224C168.598 36.3102 161.548 36.9222 154.599 37.3581C162.578 30.0426 169.736 22.2759 176.005 14.1326V14.1326Z" fill="#FFBB54"/>
<path d="M151.471 40.1712C150.111 47.0874 148.211 53.9429 145.782 60.7046C138.514 60.7994 131.367 60.7404 124.341 60.5931C134.094 54.3016 143.164 47.474 151.471 40.1712V40.1712Z" fill="#FFBB54"/>
<path d="M120.523 63.0074C117.469 69.4547 113.915 75.7724 109.879 81.9302C102.599 81.3811 95.4408 80.7472 88.4043 80.0283C99.6809 74.9445 110.417 69.2549 120.523 63.0074V63.0074Z" fill="#FFBB54"/>
<path d="M84.0008 81.9694C79.4676 87.721 74.4844 93.2802 69.0757 98.6195C61.8463 97.5168 54.7455 96.3111 47.7417 95.0898C60.2581 91.3738 72.3778 86.9882 84.0008 81.9694V81.9694Z" fill="#FFBB54"/>
<path d="M42.8658 96.5027C37.1008 101.357 30.9672 105.974 24.4935 110.333C17.3752 108.689 10.3472 107.02 3.40967 105.328C16.832 103.069 30.0173 100.119 42.8658 96.5027V96.5027Z" fill="#FFBB54"/>
<path d="M170.076 -12.0966C172.152 -4.75571 173.551 2.67814 174.264 10.1556C167.269 11.2413 160.365 12.1037 153.581 12.8183C160.072 4.8777 165.591 -3.45919 170.076 -12.0966V-12.0966Z" fill="#FFBB54"/>
<path d="M152.519 14.1092C152.581 21.4804 152 28.848 150.782 36.1678C143.591 36.5761 136.525 36.8432 129.583 36.9692C138.107 29.8336 145.78 22.186 152.519 14.1092V14.1092Z" fill="#FFBB54"/>
<path d="M128.187 38.1285C126.334 45.2345 123.877 52.2513 120.83 59.1387C113.537 58.9389 106.373 58.6306 99.3379 58.2139C109.693 52.1006 119.342 45.383 128.187 38.1285V38.1285Z" fill="#FFBB54"/>
<path d="M97.6405 59.2065C94.0391 65.7785 89.8838 72.1842 85.1981 78.3871C77.8643 77.6311 70.6609 76.7628 63.5664 75.8711C75.521 70.9879 86.9159 65.4151 97.6405 59.2065V59.2065Z" fill="#FFBB54"/>
<path d="M61.6083 76.6633C56.471 82.456 50.8627 88.0219 44.8131 93.3314C37.4848 92.0402 30.2568 90.7126 23.1289 89.3486C36.3888 85.8519 49.2543 81.6106 61.6083 76.6633V76.6633Z" fill="#FFBB54"/>
<path d="M20.9587 89.9156C14.5966 94.7427 7.83404 99.2834 0.70886 103.512C-6.59981 101.749 -13.824 99.9519 -20.9917 98.1621C-6.74247 96.1874 7.28134 93.4307 20.9587 89.9156V89.9156Z" fill="#FFBB54"/>
<path d="M148.303 -10.8752C149.899 -3.48044 150.801 3.98533 151.002 11.4706C144.23 12.1473 137.574 12.6468 131.045 13.0103C137.773 5.43882 143.549 -2.55522 148.303 -10.8752V-10.8752Z" fill="#FFBB54"/>
<path d="M130.634 13.4724C130.216 20.8445 129.123 28.189 127.36 35.4574C120.414 35.5568 113.595 35.5502 106.903 35.4375C115.677 28.6286 123.617 21.2791 130.634 13.4724V13.4724Z" fill="#FFBB54"/>
<path d="M106.365 35.8533C104.02 42.9051 101.046 49.8399 97.4626 56.6136C90.3936 56.1895 83.4435 55.6995 76.6123 55.1436C87.2588 49.3311 97.2117 42.8781 106.365 35.8533V35.8533Z" fill="#FFBB54"/>
<path d="M75.9599 55.4987C71.8577 61.9562 67.196 68.2192 62.0028 74.2503C54.8396 73.3476 47.7758 72.4051 40.8115 71.4229C53.1089 66.8233 64.8648 61.4972 75.9599 55.4987V55.4987Z" fill="#FFBB54"/>
<path d="M40.0577 71.7039C34.4498 77.3294 28.3598 82.6937 21.8237 87.765C14.5813 86.3948 7.40719 85.021 0.30127 83.6436C13.9683 80.4368 27.2627 76.4442 40.0577 71.7039V71.7039Z" fill="#FFBB54"/>
<path d="M128.052 -9.79455C129.029 -2.82289 129.366 4.18903 129.061 11.1948C122.984 11.5219 117.019 11.7433 111.165 11.8592C117.656 5.01239 123.306 -2.23332 128.052 -9.79455V-9.79455Z" fill="#FFBB54"/>
<path d="M110.002 13.0747C109.082 19.9652 107.534 26.8048 105.369 33.5485C99.1117 33.4466 92.9612 33.2731 86.917 33.0283C95.3802 26.8652 103.103 20.1897 110.002 13.0747V13.0747Z" fill="#FFBB54"/>
<path d="M85.4017 34.1226C82.6615 40.6486 79.351 47.0419 75.4903 53.2638C69.069 52.7543 62.7345 52.2071 56.4868 51.6221C66.7718 46.3759 76.443 40.5228 85.4017 34.1226Z" fill="#FFBB54"/>
<path d="M54.6474 52.5538C50.2674 58.4551 45.3906 64.1555 40.0448 69.6228C33.456 68.7143 26.927 67.8033 20.4575 66.8896C32.3595 62.7769 43.7923 57.9831 54.6474 52.5538V52.5538Z" fill="#FFBB54"/>
<path d="M18.3297 67.6182C12.5606 72.6714 6.37564 77.4672 -0.191226 81.9792C-6.95887 80.6899 -13.6982 79.4124 -20.4092 78.1465C-7.14485 75.3625 5.80635 71.8427 18.3297 67.6182V67.6182Z" fill="#FFBB54"/>
<path d="M109.216 -9.04942C109.568 -2.75566 109.382 3.54853 108.66 9.82701C103.463 9.92832 98.3532 9.97342 93.3295 9.96231C99.3344 3.95111 104.648 -2.4076 109.216 -9.04942V-9.04942Z" fill="#FFBB54"/>
<path d="M90.5329 12.6964C89.1562 18.8519 87.2631 24.9414 84.8641 30.9309C79.4622 30.726 74.1324 30.4934 68.8749 30.2331C76.7282 24.8163 83.9708 18.9519 90.5329 12.6964V12.6964Z" fill="#FFBB54"/>
<path d="M65.2385 32.6928C62.2204 38.4508 58.7453 44.0778 54.8309 49.5454C49.207 49.0417 43.6328 48.5334 38.1084 48.0205C47.6742 43.418 56.7438 38.2939 65.2385 32.6928V32.6928Z" fill="#FFBB54"/>
<path d="M33.6898 50.0983C29.212 55.2231 24.3472 60.1647 19.1178 64.9005C13.2473 64.0941 7.40025 63.2995 1.57666 62.5166C12.6843 58.9525 23.4175 54.8019 33.6898 50.0983V50.0983Z" fill="#FFBB54"/>
<path d="M91.5085 -8.07917C91.2886 -2.82383 90.6881 2.41999 89.7096 7.63059C85.5958 7.62482 81.5369 7.58646 77.5263 7.55333C82.6941 2.59025 87.3668 -2.6339 91.5085 -8.07917V-8.07917Z" fill="#FFBB54"/>
<path d="M71.7583 12.8329C70.0752 17.9054 68.0424 22.9138 65.6678 27.8394C61.3228 27.6343 57.0138 27.4333 52.7409 27.2366C59.5215 22.7527 65.8753 17.9404 71.7583 12.8329V12.8329Z" fill="#FFBB54"/>
<path d="M45.2479 31.966C42.2264 36.6452 38.8802 41.2108 35.222 45.6451C30.6096 45.2476 26.0198 44.8382 21.439 44.4707C29.7384 40.6795 37.6914 36.5025 45.2479 31.966V31.966Z" fill="#FFBB54"/>
<path d="M12.337 48.4245C8.12916 52.5206 3.63197 56.4526 -1.09749 60.2188C-6.00935 59.6 -10.9238 58.9893 -15.8408 58.3867C-6.17013 55.4982 3.24112 52.1709 12.337 48.4245V48.4245Z" fill="#FFBB54"/>
<path d="M74.6222 -6.84304C74.0198 -2.86979 73.2157 1.09346 72.1573 5.02576C69.1824 4.99959 66.2306 4.97611 63.302 4.95534C67.3739 1.17756 71.1531 -2.76133 74.6222 -6.84304V-6.84304Z" fill="#FFBB54"/>
<path d="M53.3398 13.4534C51.6249 17.233 49.7292 20.9718 47.603 24.6438C44.3906 24.5125 41.1893 24.3904 37.999 24.2773C43.3748 20.8703 48.4958 17.2571 53.3398 13.4534V13.4534Z" fill="#FFBB54"/>
<path d="M25.0919 31.8397C22.3895 35.2734 19.4512 38.6049 16.3924 41.8727C12.9047 41.6088 9.41325 41.3713 5.92285 41.1328C12.5259 38.2736 18.924 35.1719 25.0919 31.8397V31.8397Z" fill="#FFBB54"/>
<path d="M58.13 -5.13547C57.4474 -2.63463 56.6584 -0.147001 55.8105 2.33116C53.9961 2.3231 52.1848 2.34733 50.3802 2.35148C53.1208 -0.0972193 55.704 -2.59288 58.13 -5.13547Z" fill="#FFBB54"/>
<path d="M34.7845 14.6749C33.4006 17.012 31.935 19.3227 30.3877 21.607C28.3743 21.5607 26.3598 21.5151 24.3452 21.4873C27.9643 19.2781 31.4441 17.0073 34.7845 14.6749Z" fill="#FFBB54"/>
<path d="M4.24081 32.3261C2.22942 34.3966 0.135819 36.4242 -2.00823 38.4201C-4.2491 38.297 -6.49521 38.1836 -8.74658 38.0801C-4.28489 36.2559 0.039426 34.325 4.24081 32.3261Z" fill="#FFBB54"/>
<path d="M41.9687 -3.50949C41.4841 -2.31794 40.9962 -1.12692 40.4659 0.0544414C39.6071 0.0785052 38.7482 0.104182 37.8895 0.124538C39.2794 -1.08016 40.6417 -2.28919 41.9687 -3.50949Z" fill="#FFBB54"/>
<path d="M16.2082 15.8989C15.3993 16.9931 14.5598 18.0759 13.7044 19.1508C12.7228 19.1545 11.7404 19.1596 10.7573 19.166C12.6138 18.0979 14.4308 17.0089 16.2082 15.8989Z" fill="#FFBB54"/>
</g>
<g opacity="0.4" clip-path="url(#clip1_17695_6202)" filter="url(#filter1_f_17695_6202)">
<path d="M200.535 51.7345C199.65 55.7009 198.612 59.6551 197.42 63.5971C192.785 64.1715 188.178 64.6794 183.599 65.1209C189.478 60.8374 195.123 56.3752 200.535 51.7345Z" fill="#FFBB54"/>
<path d="M160.497 80.385C158.685 84.0394 156.75 87.6663 154.658 91.2485C150.01 91.2816 145.401 91.2977 140.831 91.2275C147.571 87.8169 154.12 84.1851 160.497 80.385Z" fill="#FFBB54"/>
<path d="M114.743 103.144C112.14 106.364 109.426 109.536 106.602 112.659C102.048 112.212 97.5355 111.735 93.0635 111.228C100.412 108.737 107.661 106.06 114.743 103.144Z" fill="#FFBB54"/>
<path d="M64.9045 119.589C61.6824 122.283 58.3684 124.914 54.9625 127.48C50.5764 126.617 46.236 125.723 41.9414 124.797C49.6695 123.279 57.3238 121.543 64.9045 119.589Z" fill="#FFBB54"/>
<path d="M12.6268 129.515C8.96923 131.619 5.22976 133.636 1.43791 135.586C-2.71265 134.341 -6.82509 133.087 -10.8994 131.824C-3.03915 131.256 4.80291 130.486 12.6268 129.515Z" fill="#FFBB54"/>
<path d="M202.105 23.2763C201.937 27.2188 201.615 31.1654 201.139 35.1159C196.832 35.8803 192.553 36.608 188.288 37.2474C193.141 32.7336 197.746 28.0765 202.105 23.2763Z" fill="#FFBB54"/>
<path d="M168.914 53.5227C167.811 57.2707 166.513 60.9941 165.082 64.6952C160.703 64.974 156.355 65.2016 152.039 65.3779C157.865 61.5919 163.511 57.6442 168.914 53.5227Z" fill="#FFBB54"/>
<path d="M129.198 78.8061C127.215 82.2229 125.091 85.5971 122.827 88.9285C118.47 88.7446 114.148 88.5513 109.873 88.2666C116.477 85.3048 122.919 82.1513 129.198 78.8061Z" fill="#FFBB54"/>
<path d="M84.3535 98.5528C81.6296 101.523 78.7821 104.43 75.867 107.301C71.6121 106.704 67.3978 106.079 63.2241 105.427C70.3663 103.315 77.4094 101.024 84.3535 98.5528Z" fill="#FFBB54"/>
<path d="M35.8523 112.383C32.5707 114.828 29.1801 117.189 25.7433 119.507C21.6515 118.542 17.5912 117.573 13.5796 116.564C21.0648 115.375 28.4891 113.981 35.8523 112.383Z" fill="#FFBB54"/>
<path d="M199.256 -8.53364C200.199 -3.11045 200.795 2.36533 201.124 7.86777C195.506 9.19948 189.917 10.4029 184.357 11.4779C189.854 5.02194 194.828 -1.65987 199.256 -8.53364V-8.53364Z" fill="#FFBB54"/>
<path d="M174.083 22.7095C173.628 28.0377 172.86 33.3613 171.778 38.6805C165.98 39.3569 160.235 39.9292 154.543 40.3972C161.511 34.773 168.035 28.8677 174.083 22.7095V22.7095Z" fill="#FFBB54"/>
<path d="M141.71 50.1036C139.934 55.1363 137.881 60.1226 135.551 65.0624C129.703 65.1152 123.923 65.0954 118.212 65.0029C126.414 60.3517 134.259 55.3778 141.71 50.1036V50.1036Z" fill="#FFBB54"/>
<path d="M103.251 72.9364C100.325 77.5026 97.1437 81.98 93.7064 86.3687C87.9172 85.8669 82.2019 85.3048 76.5605 84.6826C85.7369 81.1123 94.6463 77.1913 103.251 72.9364V72.9364Z" fill="#FFBB54"/>
<path d="M59.9441 90.6598C56.0549 94.6122 51.909 98.4262 47.6051 102.138C41.9581 101.128 36.3822 100.08 30.8774 98.9951C40.7612 96.5901 50.4637 93.8078 59.9441 90.6598V90.6598Z" fill="#FFBB54"/>
<path d="M13.0988 102.894C8.44293 106.098 3.63105 109.172 -1.34217 112.082C-6.79381 110.63 -12.1809 109.157 -17.5034 107.662C-7.19655 106.459 3.01799 104.867 13.0988 102.894V102.894Z" fill="#FFBB54"/>
<path d="M172.609 -7.23312C173.425 -0.689224 173.769 5.88177 173.639 12.4529C166.945 13.5995 160.303 14.537 153.747 15.3511C160.76 8.15443 167.064 0.607489 172.609 -7.23312V-7.23312Z" fill="#FFBB54"/>
<path d="M147.795 21.2168C146.917 27.5854 145.594 33.9313 143.825 40.2543C136.977 40.6657 130.225 40.9518 123.567 41.1124C132.271 34.8971 140.366 28.2491 147.795 21.2168Z" fill="#FFBB54"/>
<path d="M116.236 46.159C113.793 52.1437 110.94 58.0415 107.677 63.8524C100.808 63.6179 94.0463 63.2739 87.3901 62.8203C97.5084 57.7415 107.145 52.1751 116.236 46.159Z" fill="#FFBB54"/>
<path d="M78.8996 66.9154C75.0488 72.2938 70.863 77.5394 66.3423 82.6524C59.546 81.8213 52.866 80.8786 46.2817 79.9043C57.5286 76.09 68.424 71.7513 78.8996 66.9154V66.9154Z" fill="#FFBB54"/>
<path d="M36.8789 82.9381C31.8836 87.5428 26.6127 91.9806 21.0581 96.212C14.4137 94.8191 7.86164 93.391 1.40186 91.9277C13.4758 89.4767 25.3252 86.4742 36.8789 82.9381V82.9381Z" fill="#FFBB54"/>
<path d="M147.515 -6.53635C148.01 0.59026 147.925 7.73257 147.261 14.8534C140.108 15.6413 133.057 16.2532 126.109 16.6892C134.087 9.37363 141.246 1.60691 147.515 -6.53635V-6.53635Z" fill="#FFBB54"/>
<path d="M122.981 19.5032C121.62 26.4194 119.721 33.2749 117.292 40.0367C110.024 40.1314 102.877 40.0725 95.8505 39.9251C105.604 33.6336 114.674 26.806 122.981 19.5032V19.5032Z" fill="#FFBB54"/>
<path d="M92.0332 42.3394C88.9788 48.7867 85.425 55.1044 81.3888 61.2622C74.1088 60.7131 66.9506 60.0792 59.9141 59.3604C71.1906 54.2765 81.9271 48.5869 92.0332 42.3394V42.3394Z" fill="#FFBB54"/>
<path d="M55.5106 61.3014C50.9774 67.0531 45.9942 72.6122 40.5854 77.9515C33.3561 76.8488 26.2553 75.6431 19.2515 74.4219C31.7678 70.7058 43.8876 66.3202 55.5106 61.3014V61.3014Z" fill="#FFBB54"/>
<path d="M14.3756 75.8347C8.61061 80.689 2.47696 85.3064 -3.99672 89.6653C-11.115 88.0208 -18.143 86.3524 -25.0806 84.6602C-11.6582 82.4006 1.52712 79.4514 14.3756 75.8347V75.8347Z" fill="#FFBB54"/>
<path d="M124.029 -6.55877C124.09 0.812478 123.51 8.18 122.292 15.4999C115.101 15.9081 108.035 16.1752 101.093 16.3012C109.617 9.16563 117.29 1.51806 124.029 -6.55877V-6.55877Z" fill="#FFBB54"/>
<path d="M99.6968 17.4606C97.8439 24.5665 95.3869 31.5833 92.34 38.4707C85.0469 38.271 77.8828 37.9627 70.8477 37.5459C81.2027 31.4326 90.8513 24.715 99.6968 17.4606V17.4606Z" fill="#FFBB54"/>
<path d="M69.1502 38.5386C65.5489 45.1106 61.3935 51.5162 56.7079 57.7192C49.3741 56.9631 42.1706 56.0948 35.0762 55.2031C47.0308 50.32 58.4256 44.7471 69.1502 38.5386V38.5386Z" fill="#FFBB54"/>
<path d="M33.1181 55.9953C27.9808 61.788 22.3724 67.3539 16.3228 72.6634C8.99461 71.3723 1.76655 70.0447 -5.36133 68.6807C7.89861 65.184 20.7641 60.9426 33.1181 55.9953V55.9953Z" fill="#FFBB54"/>
<path d="M102.144 -7.19553C101.726 0.176517 100.632 7.52109 98.8701 14.7895C91.9235 14.8888 85.1045 14.8822 78.4132 14.7696C87.1867 7.96066 95.1271 0.611167 102.144 -7.19553V-7.19553Z" fill="#FFBB54"/>
<path d="M77.8749 15.1853C75.53 22.2372 72.5562 29.1719 68.9724 35.9456C61.9034 35.5215 54.9533 35.0315 48.1221 34.4756C58.7686 28.6631 68.7215 22.2101 77.8749 15.1853V15.1853Z" fill="#FFBB54"/>
<path d="M47.4692 34.8308C43.367 41.2882 38.7053 47.5513 33.512 53.5823C26.3488 52.6796 19.2851 51.7372 12.3208 50.7549C24.6182 46.1553 36.3741 40.8292 47.4692 34.8308V34.8308Z" fill="#FFBB54"/>
<path d="M11.5675 51.0359C5.95962 56.6614 -0.130425 62.0257 -6.6665 67.097C-13.9089 65.7268 -21.083 64.353 -28.189 62.9756C-14.5219 59.7688 -1.22754 55.7762 11.5675 51.0359V51.0359Z" fill="#FFBB54"/>
<path d="M81.5115 -7.59324C80.5914 -0.702736 79.0434 6.13681 76.8778 12.8805C70.621 12.7786 64.4705 12.6052 58.4263 12.3603C66.8895 6.19722 74.6127 -0.478234 81.5115 -7.59324V-7.59324Z" fill="#FFBB54"/>
<path d="M56.9114 13.4546C54.1713 19.9806 50.8608 26.3739 47 32.5958C40.5787 32.0863 34.2442 31.5391 27.9966 30.9541C38.2816 25.7079 47.9528 19.8548 56.9114 13.4546Z" fill="#FFBB54"/>
<path d="M26.1567 31.8858C21.7767 37.7871 16.8999 43.4876 11.554 48.9548C4.96534 48.0464 -1.56375 47.1353 -8.0332 46.2217C3.86879 42.109 15.3016 37.3152 26.1567 31.8858V31.8858Z" fill="#FFBB54"/>
<path d="M62.0421 -7.97156C60.6654 -1.81605 58.7723 4.27345 56.3734 10.263C50.9714 10.0581 45.6417 9.82543 40.3842 9.56508C48.2375 4.14836 55.48 -1.716 62.0421 -7.97156V-7.97156Z" fill="#FFBB54"/>
<path d="M36.7483 12.0248C33.7302 17.7828 30.2551 23.4098 26.3407 28.8774C20.7168 28.3737 15.1426 27.8654 9.61816 27.3525C19.1839 22.75 28.2536 17.6259 36.7483 12.0248V12.0248Z" fill="#FFBB54"/>
<path d="M5.19953 29.4304C0.721705 34.5551 -4.14304 39.4967 -9.37242 44.2326C-15.2429 43.4261 -21.09 42.6315 -26.9136 41.8486C-15.806 38.2845 -5.07275 34.1339 5.19953 29.4304V29.4304Z" fill="#FFBB54"/>
<path d="M43.2681 -7.83507C41.5849 -2.76262 39.5522 2.24584 37.1775 7.17141C32.8326 6.9663 28.5236 6.76537 24.2506 6.56866C31.0313 2.08474 37.385 -2.72758 43.2681 -7.83507V-7.83507Z" fill="#FFBB54"/>
<path d="M16.7577 11.298C13.7362 15.9773 10.39 20.5428 6.7318 24.9771C2.11938 24.5796 -2.47047 24.1702 -7.05127 23.8027C1.2482 20.0115 9.20118 15.8345 16.7577 11.298V11.298Z" fill="#FFBB54"/>
<path d="M24.8491 -7.21456C23.1341 -3.43491 21.2385 0.303791 19.1122 3.97582C15.8999 3.84455 12.6986 3.7224 9.5083 3.60938C14.8841 0.202305 20.005 -3.41085 24.8491 -7.21456V-7.21456Z" fill="#FFBB54"/>
<path d="M6.29378 -5.99306C4.90988 -3.65604 3.44429 -1.34533 1.897 0.939051C-0.116414 0.892696 -2.13095 0.847153 -4.14551 0.819336C-0.526376 -1.38989 2.95338 -3.66068 6.29378 -5.99306Z" fill="#FFBB54"/>
</g>
</g>
</g>
<defs>
<filter id="filter0_f_17695_6202" x="-322.526" y="-62.9733" width="577.052" height="481.499" filterUnits="userSpaceOnUse" color-interpolation-filters="sRGB">
<feFlood flood-opacity="0" result="BackgroundImageFix"/>
<feBlend mode="normal" in="SourceGraphic" in2="BackgroundImageFix" result="shape"/>
<feGaussianBlur stdDeviation="57.263" result="effect1_foregroundBlur_17695_6202"/>
</filter>
<filter id="filter1_f_17695_6202" x="-387.502" y="-368.969" width="873.705" height="671.563" filterUnits="userSpaceOnUse" color-interpolation-filters="sRGB">
<feFlood flood-opacity="0" result="BackgroundImageFix"/>
<feBlend mode="normal" in="SourceGraphic" in2="BackgroundImageFix" result="shape"/>
<feGaussianBlur stdDeviation="34.3771" result="effect1_foregroundBlur_17695_6202"/>
</filter>
<linearGradient id="paint0_linear_17695_6202" x1="-60.5" y1="-124" x2="-242.647" y2="90.9574" gradientUnits="userSpaceOnUse">
<stop stop-color="#C4C4C4"/>
<stop offset="1" stop-color="#C4C4C4" stop-opacity="0"/>
</linearGradient>
<clipPath id="clip0_17695_6202">
<rect width="561.753" height="347.752" fill="white" transform="matrix(0.809447 -0.587192 0.809447 0.587192 -290.256 50.3105)"/>
</clipPath>
<clipPath id="clip1_17695_6202">
<rect width="561.753" height="347.752" fill="white" transform="matrix(0.809447 -0.587192 0.809447 0.587192 -318.748 29.6426)"/>
</clipPath>
</defs>
</svg>
