<svg width="1440" height="2035" viewBox="0 0 1440 2035" fill="none" xmlns="http://www.w3.org/2000/svg">
<g opacity="0.1" filter="url(#filter0_f_17478_6201)">
<circle cx="1611.5" cy="1042.5" r="393.5" fill="#FFBB54"/>
</g>
<g opacity="0.2">
<g clip-path="url(#clip0_17478_6201)">
<path d="M1256.24 668.516C1257.46 660.684 1258.93 652.852 1260.64 645.021C1267.41 644.219 1274.11 643.593 1280.76 643.145C1272.27 651.248 1264.09 659.706 1256.24 668.516Z" fill="#FFBB54"/>
<path d="M1314.02 614.423C1316.69 607.053 1319.58 599.73 1322.7 592.452C1329.29 592.911 1335.79 593.476 1342.19 594.245C1332.56 600.574 1323.17 607.3 1314.02 614.423Z" fill="#FFBB54"/>
<path d="M1379.39 572.437C1383.36 565.808 1387.49 559.232 1391.88 552.788C1398.08 554.384 1404.18 556.125 1410.16 558.01C1399.75 562.409 1389.47 567.195 1379.39 572.437Z" fill="#FFBB54"/>
<path d="M1254.81 724.11C1254.91 716.511 1255.24 708.879 1255.8 701.215C1262.11 700.038 1268.37 699.023 1274.58 698.169C1267.66 706.527 1261.09 715.207 1254.81 724.11Z" fill="#FFBB54"/>
<path d="M1302.03 668.135C1303.58 660.766 1305.36 653.41 1307.34 646.065C1313.56 646.04 1319.7 646.171 1325.76 646.458C1317.58 653.338 1309.67 660.564 1302.03 668.135Z" fill="#FFBB54"/>
<path d="M1357.65 622.229C1360.53 615.369 1363.64 608.567 1366.95 601.821C1372.88 602.915 1378.72 604.121 1384.45 605.474C1375.33 610.691 1366.39 616.276 1357.65 622.229Z" fill="#FFBB54"/>
<path d="M1419.61 587.743C1423.67 581.631 1427.97 575.643 1432.42 569.73C1437.9 571.839 1443.27 574.038 1448.52 576.358C1438.76 579.755 1429.12 583.55 1419.61 587.743Z" fill="#FFBB54"/>
<path d="M1295.9 727.991C1296.27 717.782 1297.13 707.517 1298.42 697.231C1306.68 696.641 1314.81 696.351 1322.8 696.36C1313.26 706.397 1304.27 716.957 1295.9 727.991V727.991Z" fill="#FFBB54"/>
<path d="M1340.29 679.192C1342.63 669.344 1345.37 659.515 1348.6 649.776C1356.58 650.656 1364.39 651.807 1372.01 653.23C1360.96 661.286 1350.37 669.953 1340.29 679.192V679.192Z" fill="#FFBB54"/>
<path d="M1392.03 639.681C1396.14 630.553 1400.71 621.565 1405.66 612.72C1413.14 614.976 1420.4 617.487 1427.45 620.173C1415.27 625.983 1403.45 632.497 1392.03 639.681Z" fill="#FFBB54"/>
<path d="M1300.06 784.565C1298.39 772.32 1297.43 759.99 1297.18 747.636C1306.8 746.338 1316.24 745.509 1325.49 745.15C1316.11 757.682 1307.61 770.852 1300.06 784.565V784.565Z" fill="#FFBB54"/>
<path d="M1333.39 735.007C1334.14 722.771 1335.59 710.588 1337.73 698.518C1347.11 698.956 1356.24 699.798 1365.12 701.044C1353.75 711.603 1343.15 722.952 1333.39 735.007V735.007Z" fill="#FFBB54"/>
<path d="M1374.62 692.563C1377.72 680.823 1381.47 669.264 1385.84 657.937C1394.73 659.994 1403.32 662.397 1411.59 665.148C1398.63 673.396 1386.27 682.558 1374.62 692.563V692.563Z" fill="#FFBB54"/>
<path d="M1422.37 658.597C1427.61 647.796 1433.45 637.293 1439.86 627.139C1448.03 630.676 1455.87 634.489 1463.36 638.578C1449.23 644.249 1435.53 650.939 1422.37 658.597V658.597Z" fill="#FFBB54"/>
<path d="M1336.34 787.216C1334.88 773.961 1334.31 760.624 1334.64 747.296C1344.24 747.178 1353.84 747.582 1363.4 748.506C1353.38 760.678 1344.33 773.621 1336.34 787.216Z" fill="#FFBB54"/>
<path d="M1367.3 743.88C1368.48 730.705 1370.53 717.623 1373.43 704.719C1382.62 706.271 1391.71 708.313 1400.68 710.835C1388.69 720.94 1377.52 731.991 1367.3 743.88V743.88Z" fill="#FFBB54"/>
<path d="M1405.33 707.008C1409.04 694.439 1413.56 682.122 1418.87 670.137C1427.42 673.235 1435.8 676.77 1443.99 680.727C1430.41 688.422 1417.48 697.212 1405.33 707.008V707.008Z" fill="#FFBB54"/>
<path d="M1347.76 835.17C1343.91 821.947 1341.06 808.456 1339.24 794.811C1348.7 794.231 1358.18 794.228 1367.64 794.804C1359.88 807.67 1353.23 821.174 1347.76 835.17V835.17Z" fill="#FFBB54"/>
<path d="M1368.9 792.735C1367.8 779.111 1367.69 765.425 1368.58 751.788C1377.7 752.833 1386.74 754.437 1395.66 756.591C1385.71 767.841 1376.75 779.935 1368.9 792.735V792.735Z" fill="#FFBB54"/>
<path d="M1397.27 754.788C1398.89 741.323 1401.48 727.994 1405.01 714.902C1413.57 717.487 1421.96 720.567 1430.16 724.126C1418.32 733.368 1407.31 743.628 1397.27 754.788Z" fill="#FFBB54"/>
<path d="M1432.07 722.645C1436.3 709.882 1441.42 697.434 1447.4 685.393C1455.22 689.353 1462.82 693.746 1470.15 698.553C1456.77 705.442 1444.03 713.504 1432.07 722.645V722.645Z" fill="#FFBB54"/>
<path d="M1378.47 838.266C1375.03 825.041 1372.64 811.569 1371.31 797.975C1379.95 798.608 1388.54 799.821 1397.02 801.607C1389.77 813.254 1383.56 825.521 1378.47 838.266Z" fill="#FFBB54"/>
<path d="M1397.46 800.907C1396.77 787.363 1397.13 773.787 1398.54 760.301C1406.7 762.362 1414.71 764.962 1422.53 768.084C1413.19 778.235 1404.79 789.222 1397.46 800.907Z" fill="#FFBB54"/>
<path d="M1423.09 767.473C1425.13 754.169 1428.19 741.04 1432.22 728.2C1439.73 731.575 1447.03 735.415 1454.07 739.697C1442.91 747.986 1432.54 757.284 1423.09 767.473V767.473Z" fill="#FFBB54"/>
<path d="M1394.85 878.611C1389.57 866.953 1385.21 854.901 1381.81 842.565C1389.41 842.934 1396.97 843.82 1404.44 845.218C1400.3 856.055 1397.09 867.226 1394.85 878.611V878.611Z" fill="#FFBB54"/>
<path d="M1405.18 843.324C1402.42 830.933 1400.62 818.347 1399.8 805.679C1406.98 807.281 1414.04 809.367 1420.93 811.922C1414.77 821.905 1409.5 832.413 1405.18 843.324Z" fill="#FFBB54"/>
<path d="M1422.02 810.179C1421.86 797.577 1422.66 784.982 1424.4 772.502C1431.03 775.23 1437.48 778.388 1443.7 781.956C1435.64 790.69 1428.38 800.136 1422.02 810.179V810.179Z" fill="#FFBB54"/>
<path d="M1445.12 780.432C1447.52 768.149 1450.83 756.063 1455.03 744.277C1461.03 748.004 1466.79 752.097 1472.28 756.533C1462.51 763.644 1453.42 771.644 1445.12 780.432V780.432Z" fill="#FFBB54"/>
<path d="M1419.25 882.113C1414.93 871.546 1411.39 860.679 1408.67 849.598C1414.64 850.866 1420.53 852.544 1426.28 854.619C1423.18 863.573 1420.83 872.769 1419.25 882.113V882.113Z" fill="#FFBB54"/>
<path d="M1427.73 850.611C1425.7 839.472 1424.5 828.201 1424.11 816.889C1429.63 819.067 1434.99 821.614 1440.16 824.512C1435.28 832.843 1431.12 841.574 1427.73 850.611V850.611Z" fill="#FFBB54"/>
<path d="M1442.41 820.789C1442.75 809.554 1443.88 798.359 1445.81 787.288C1450.8 790.277 1455.59 793.576 1460.17 797.164C1453.58 804.51 1447.64 812.415 1442.41 820.789V820.789Z" fill="#FFBB54"/>
<path d="M1438.56 916.379C1433.54 908.257 1429.05 899.822 1425.1 891.127C1429.68 892.16 1434.19 893.5 1438.59 895.139C1438.06 902.208 1438.06 909.307 1438.56 916.379V916.379Z" fill="#FFBB54"/>
<path d="M1439.34 887.67C1436.16 878.769 1433.55 869.675 1431.53 860.444C1435.71 862.153 1439.78 864.133 1443.71 866.373C1441.72 873.352 1440.26 880.471 1439.34 887.67V887.67Z" fill="#FFBB54"/>
<path d="M1446.01 859.033C1444.79 849.74 1444.15 840.381 1444.09 831.01C1447.84 833.31 1451.45 835.832 1454.91 838.56C1451.42 845.145 1448.45 851.99 1446.01 859.033V859.033Z" fill="#FFBB54"/>
</g>
<g opacity="0.4" clip-path="url(#clip1_17478_6201)" filter="url(#filter1_f_17478_6201)">
<path d="M1231.24 711.817C1232.46 703.984 1233.93 696.153 1235.64 688.321C1242.41 687.519 1249.11 686.894 1255.76 686.446C1247.27 694.549 1239.09 703.006 1231.24 711.817Z" fill="#FFBB54"/>
<path d="M1289.02 657.724C1291.69 650.354 1294.58 643.03 1297.7 635.753C1304.29 636.212 1310.79 636.776 1317.19 637.546C1307.56 643.875 1298.17 650.601 1289.02 657.724Z" fill="#FFBB54"/>
<path d="M1354.39 615.738C1358.36 609.109 1362.49 602.533 1366.88 596.089C1373.08 597.685 1379.18 599.426 1385.16 601.311C1374.75 605.71 1364.47 610.496 1354.39 615.738Z" fill="#FFBB54"/>
<path d="M1424.91 586.959C1429.97 581.297 1435.2 575.742 1440.58 570.294C1446.23 572.967 1451.75 575.732 1457.15 578.589C1446.33 580.942 1435.59 583.732 1424.91 586.959Z" fill="#FFBB54"/>
<path d="M1229.81 767.411C1229.91 759.812 1230.24 752.18 1230.8 744.516C1237.11 743.339 1243.37 742.324 1249.58 741.469C1242.66 749.828 1236.09 758.507 1229.81 767.411Z" fill="#FFBB54"/>
<path d="M1277.03 711.436C1278.58 704.067 1280.36 696.71 1282.34 689.366C1288.56 689.341 1294.7 689.472 1300.76 689.758C1292.58 696.639 1284.67 703.864 1277.03 711.436Z" fill="#FFBB54"/>
<path d="M1332.65 665.53C1335.53 658.67 1338.64 651.868 1341.95 645.122C1347.88 646.216 1353.72 647.421 1359.45 648.774C1350.33 653.992 1341.39 659.577 1332.65 665.53Z" fill="#FFBB54"/>
<path d="M1394.61 631.044C1398.67 624.931 1402.97 618.944 1407.42 613.031C1412.9 615.14 1418.27 617.339 1423.52 619.658C1413.76 623.055 1404.12 626.851 1394.61 631.044Z" fill="#FFBB54"/>
<path d="M1270.9 771.291C1271.27 761.083 1272.13 750.818 1273.42 740.532C1281.68 739.942 1289.81 739.652 1297.8 739.661C1288.26 749.698 1279.27 760.258 1270.9 771.291V771.291Z" fill="#FFBB54"/>
<path d="M1315.29 722.492C1317.63 712.644 1320.37 702.816 1323.6 693.076C1331.58 693.956 1339.39 695.108 1347.01 696.531C1335.96 704.587 1325.37 713.254 1315.29 722.492V722.492Z" fill="#FFBB54"/>
<path d="M1367.03 682.982C1371.14 673.854 1375.71 664.866 1380.66 656.02C1388.14 658.277 1395.4 660.788 1402.45 663.474C1390.27 669.284 1378.45 675.798 1367.03 682.982Z" fill="#FFBB54"/>
<path d="M1424.31 653.936C1430.02 645.88 1436.11 638.032 1442.57 630.392C1449.34 633.91 1455.89 637.582 1462.22 641.409C1449.35 644.852 1436.69 649.035 1424.31 653.936Z" fill="#FFBB54"/>
<path d="M1275.06 827.866C1273.39 815.62 1272.43 803.29 1272.18 790.937C1281.8 789.639 1291.24 788.81 1300.49 788.451C1291.11 800.982 1282.61 814.153 1275.06 827.866V827.866Z" fill="#FFBB54"/>
<path d="M1308.39 778.308C1309.14 766.072 1310.59 753.889 1312.73 741.819C1322.11 742.257 1331.24 743.099 1340.12 744.345C1328.75 754.904 1318.15 766.253 1308.39 778.308V778.308Z" fill="#FFBB54"/>
<path d="M1349.62 735.864C1352.72 724.124 1356.47 712.565 1360.84 701.238C1369.73 703.294 1378.32 705.698 1386.59 708.449C1373.63 716.697 1361.27 725.859 1349.62 735.864V735.864Z" fill="#FFBB54"/>
<path d="M1397.37 701.898C1402.61 691.096 1408.45 680.594 1414.86 670.439C1423.03 673.977 1430.87 677.79 1438.36 681.879C1424.23 687.55 1410.53 694.24 1397.37 701.898V701.898Z" fill="#FFBB54"/>
<path d="M1311.34 830.517C1309.88 817.261 1309.31 803.925 1309.64 790.597C1319.24 790.479 1328.84 790.883 1338.4 791.807C1328.38 803.979 1319.33 816.922 1311.34 830.517Z" fill="#FFBB54"/>
<path d="M1342.3 787.181C1343.48 774.006 1345.53 760.924 1348.43 748.019C1357.62 749.572 1366.71 751.614 1375.68 754.136C1363.69 764.241 1352.52 775.292 1342.3 787.181V787.181Z" fill="#FFBB54"/>
<path d="M1380.33 750.309C1384.04 737.739 1388.56 725.423 1393.87 713.437C1402.42 716.536 1410.8 720.071 1418.99 724.028C1405.41 731.723 1392.48 740.512 1380.33 750.309V750.309Z" fill="#FFBB54"/>
<path d="M1424.24 721.131C1430.27 709.653 1437.03 698.569 1444.47 687.945C1452.4 692.535 1459.9 697.382 1466.97 702.484C1452.23 707.505 1437.94 713.743 1424.24 721.131V721.131Z" fill="#FFBB54"/>
<path d="M1322.76 878.471C1318.91 865.248 1316.06 851.757 1314.24 838.112C1323.7 837.532 1333.18 837.529 1342.64 838.104C1334.88 850.971 1328.23 864.475 1322.76 878.471V878.471Z" fill="#FFBB54"/>
<path d="M1343.9 836.036C1342.8 822.411 1342.69 808.726 1343.58 795.089C1352.7 796.134 1361.74 797.738 1370.66 799.892C1360.71 811.142 1351.75 823.236 1343.9 836.036V836.036Z" fill="#FFBB54"/>
<path d="M1372.27 798.089C1373.89 784.624 1376.48 771.294 1380.01 758.203C1388.57 760.788 1396.96 763.867 1405.16 767.426C1393.32 776.669 1382.31 786.929 1372.27 798.089Z" fill="#FFBB54"/>
<path d="M1407.07 765.946C1411.3 753.183 1416.42 740.734 1422.4 728.694C1430.22 732.654 1437.82 737.047 1445.15 741.853C1431.77 748.742 1419.03 756.805 1407.07 765.946V765.946Z" fill="#FFBB54"/>
<path d="M1353.47 881.566C1350.03 868.342 1347.64 854.87 1346.31 841.275C1354.95 841.908 1363.54 843.122 1372.02 844.908C1364.77 856.555 1358.56 868.822 1353.47 881.566Z" fill="#FFBB54"/>
<path d="M1372.46 844.208C1371.77 830.663 1372.13 817.087 1373.54 803.602C1381.7 805.663 1389.71 808.263 1397.53 811.385C1388.19 821.536 1379.79 832.523 1372.46 844.208Z" fill="#FFBB54"/>
<path d="M1398.09 810.774C1400.13 797.469 1403.19 784.34 1407.22 771.501C1414.73 774.876 1422.03 778.716 1429.07 782.998C1417.91 791.287 1407.54 800.585 1398.09 810.774V810.774Z" fill="#FFBB54"/>
<path d="M1429.74 782.499C1434.38 769.979 1439.95 757.821 1446.39 746.126C1453.13 750.671 1459.61 755.59 1465.8 760.861C1453.14 766.943 1441.06 774.187 1429.74 782.499V782.499Z" fill="#FFBB54"/>
<path d="M1369.85 921.912C1364.57 910.254 1360.21 898.202 1356.81 885.866C1364.41 886.235 1371.97 887.121 1379.44 888.519C1375.3 899.356 1372.09 910.527 1369.85 921.912V921.912Z" fill="#FFBB54"/>
<path d="M1380.18 886.625C1377.42 874.233 1375.62 861.647 1374.8 848.98C1381.98 850.582 1389.04 852.667 1395.93 855.222C1389.77 865.205 1384.5 875.714 1380.18 886.625Z" fill="#FFBB54"/>
<path d="M1397.02 853.48C1396.86 840.877 1397.66 828.283 1399.4 815.803C1406.03 818.531 1412.48 821.689 1418.7 825.257C1410.64 833.991 1403.38 843.437 1397.02 853.48V853.48Z" fill="#FFBB54"/>
<path d="M1420.12 823.733C1422.52 811.449 1425.83 799.364 1430.03 787.578C1436.03 791.305 1441.79 795.398 1447.28 799.834C1437.51 806.944 1428.42 814.945 1420.12 823.733V823.733Z" fill="#FFBB54"/>
<path d="M1394.25 925.414C1389.93 914.847 1386.39 903.979 1383.67 892.898C1389.64 894.167 1395.53 895.845 1401.28 897.92C1398.18 906.874 1395.83 916.07 1394.25 925.414V925.414Z" fill="#FFBB54"/>
<path d="M1402.73 893.912C1400.7 882.772 1399.5 871.502 1399.11 860.19C1404.63 862.368 1409.99 864.915 1415.16 867.813C1410.28 876.143 1406.12 884.875 1402.73 893.912V893.912Z" fill="#FFBB54"/>
<path d="M1417.41 864.09C1417.75 852.855 1418.88 841.659 1420.81 830.589C1425.8 833.578 1430.59 836.877 1435.17 840.464C1428.58 847.811 1422.64 855.715 1417.41 864.09V864.09Z" fill="#FFBB54"/>
<path d="M1438.19 837.19C1440.83 826.342 1444.23 815.691 1448.34 805.314C1452.76 809.013 1456.97 812.951 1460.96 817.111C1452.78 823.111 1445.16 829.831 1438.19 837.19Z" fill="#FFBB54"/>
<path d="M1413.56 959.68C1408.54 951.557 1404.05 943.123 1400.1 934.428C1404.68 935.461 1409.19 936.801 1413.59 938.44C1413.06 945.509 1413.06 952.608 1413.56 959.68V959.68Z" fill="#FFBB54"/>
<path d="M1414.34 930.971C1411.16 922.069 1408.55 912.976 1406.53 903.745C1410.71 905.454 1414.78 907.434 1418.71 909.673C1416.72 916.653 1415.26 923.772 1414.34 930.971V930.971Z" fill="#FFBB54"/>
<path d="M1421.01 902.334C1419.79 893.041 1419.15 883.682 1419.09 874.311C1422.84 876.611 1426.45 879.132 1429.91 881.861C1426.42 888.446 1423.45 895.29 1421.01 902.334V902.334Z" fill="#FFBB54"/>
<path d="M1433.81 874.974C1434.57 865.698 1435.89 856.478 1437.77 847.364C1441.09 850.157 1444.25 853.131 1447.24 856.272C1442.27 862.138 1437.78 868.392 1433.81 874.974V874.974Z" fill="#FFBB54"/>
<path d="M1430.99 964.607C1427.5 958.295 1424.33 951.812 1421.5 945.181C1424.34 946.497 1427.11 947.978 1429.79 949.618C1429.88 954.634 1430.28 959.64 1430.99 964.607V964.607Z" fill="#FFBB54"/>
<path d="M1430.1 938.242C1428.06 931.419 1426.36 924.494 1424.99 917.468C1427.5 919.153 1429.92 920.976 1432.23 922.93C1431.2 927.984 1430.49 933.098 1430.1 938.242V938.242Z" fill="#FFBB54"/>
<path d="M1435.13 911.572C1434.6 904.534 1434.41 897.466 1434.56 890.37C1436.79 892.412 1438.87 894.505 1440.8 896.652C1438.59 901.495 1436.69 906.48 1435.13 911.572V911.572Z" fill="#FFBB54"/>
<path d="M1444.02 971.436C1442.04 967.321 1440.2 963.148 1438.49 958.916C1439.87 960.037 1441.2 961.187 1442.44 962.389C1442.84 965.433 1443.37 968.449 1444.02 971.436Z" fill="#FFBB54"/>
<path d="M1441.59 946.488C1440.56 942.1 1439.67 937.678 1438.92 933.223C1440.09 934.481 1441.19 935.765 1442.22 937.074C1441.87 940.211 1441.66 943.355 1441.59 946.488Z" fill="#FFBB54"/>
<path d="M1445.31 920.953C1445.26 916.486 1445.33 912.012 1445.57 907.543C1446.54 908.906 1447.46 910.28 1448.31 911.664C1447.17 914.728 1446.17 917.824 1445.31 920.953Z" fill="#FFBB54"/>
</g>
</g>
<g filter="url(#filter2_d_17478_6201)">
<g opacity="0.1">
<g clip-path="url(#clip2_17478_6201)">
<path d="M-22.8349 1034.25C-14.8257 1034.19 -6.78383 1034.36 1.29084 1034.77C3.7289 1041.45 6.07801 1048.09 8.24655 1054.72C-1.84318 1047.49 -12.2036 1040.67 -22.8349 1034.25Z" fill="#FFBB54"/>
<path d="M44.8357 1083.68C52.5732 1085.11 60.2965 1086.77 68.0056 1088.66C69.4034 1095.51 70.6707 1102.31 71.8075 1109.07C63.1485 1100.27 54.1579 1091.8 44.8357 1083.68Z" fill="#FFBB54"/>
<path d="M102.795 1143.62C109.985 1146.41 117.13 1149.38 124.197 1152.59C124.547 1159.43 124.862 1166.23 125.008 1172.96C117.986 1162.91 110.549 1153.14 102.795 1143.62Z" fill="#FFBB54"/>
<path d="M149.695 1211.8C156.093 1215.74 162.404 1219.84 168.628 1224.11C168.042 1230.8 167.395 1237.44 166.687 1244.01C161.41 1233.1 155.78 1222.33 149.695 1211.8Z" fill="#FFBB54"/>
<path d="M184.615 1285.78C190.033 1290.61 195.332 1295.58 200.511 1300.69C199.11 1307.12 197.645 1313.49 196.116 1319.79C192.701 1308.35 188.867 1297.01 184.615 1285.78Z" fill="#FFBB54"/>
<path d="M207.06 1363.14C211.36 1368.6 215.498 1374.17 219.507 1379.82C217.351 1385.9 215.175 1391.92 212.98 1397.88C211.395 1386.28 209.422 1374.7 207.06 1363.14Z" fill="#FFBB54"/>
<path d="M216.94 1441.51C220.014 1447.32 222.927 1453.18 225.679 1459.1C222.936 1464.79 220.151 1470.41 217.358 1475.98C217.622 1464.54 217.482 1453.05 216.94 1441.51Z" fill="#FFBB54"/>
<path d="M214.524 1518.66C216.338 1524.52 217.985 1530.4 219.464 1536.29C216.222 1541.56 212.937 1546.76 209.668 1551.93C211.659 1540.95 213.313 1529.86 214.524 1518.66Z" fill="#FFBB54"/>
<path d="M200.417 1592.56C200.996 1598.19 201.398 1603.79 201.623 1609.36C197.944 1614.19 194.271 1618.99 190.646 1623.79C194.249 1613.55 197.507 1603.14 200.417 1592.56Z" fill="#FFBB54"/>
<path d="M175.494 1661.41C174.888 1666.54 174.151 1671.62 173.185 1676.6C169.221 1681.06 165.249 1685.5 161.27 1689.9C166.349 1680.64 171.077 1671.12 175.494 1661.41Z" fill="#FFBB54"/>
<path d="M140.854 1723.68C139.185 1728.08 137.362 1732.37 135.385 1736.54C131.134 1740.62 126.935 1744.74 122.725 1748.84C129.06 1740.73 135.092 1732.32 140.854 1723.68Z" fill="#FFBB54"/>
<path d="M97.7735 1778.13C95.189 1781.6 92.474 1784.93 89.6205 1788.09C85.1833 1791.88 80.7572 1795.69 76.342 1799.52C83.7139 1792.68 90.8372 1785.52 97.7735 1778.13Z" fill="#FFBB54"/>
<path d="M-10.3867 1080.42C-2.73956 1080.8 4.92483 1081.4 12.6065 1082.23C14.3522 1088.61 16.025 1094.94 17.5259 1101.24C8.48383 1093.94 -0.820369 1087 -10.3867 1080.42Z" fill="#FFBB54"/>
<path d="M50.2449 1130.33C57.5727 1132.08 64.8649 1134.11 72.1221 1136.34C72.9316 1142.81 73.6399 1149.22 74.2469 1155.59C66.5549 1146.88 58.5607 1138.43 50.2449 1130.33Z" fill="#FFBB54"/>
<path d="M101.662 1189.69C108.402 1192.72 115.069 1195.97 121.661 1199.41C121.573 1205.83 121.464 1212.19 121.176 1218.48C115.032 1208.65 108.528 1199.05 101.662 1189.69Z" fill="#FFBB54"/>
<path d="M142.67 1256.42C148.59 1260.53 154.398 1264.83 160.138 1269.22C159.242 1275.47 158.291 1281.65 157.285 1287.78C152.755 1277.19 147.884 1266.74 142.67 1256.42Z" fill="#FFBB54"/>
<path d="M172.444 1328.35C177.383 1333.26 182.164 1338.34 186.866 1343.48C185.248 1349.47 183.62 1355.43 181.914 1361.3C179.149 1350.23 175.992 1339.25 172.444 1328.35Z" fill="#FFBB54"/>
<path d="M190.528 1403.26C194.349 1408.73 198.002 1414.3 201.529 1419.92C199.272 1425.61 197.046 1431.27 194.765 1436.86C193.749 1425.64 192.337 1414.45 190.528 1403.26Z" fill="#FFBB54"/>
<path d="M196.817 1479.03C199.44 1484.76 201.874 1490.55 204.178 1496.37C201.413 1501.73 198.646 1507.05 195.877 1512.34C196.557 1501.28 196.87 1490.18 196.817 1479.03Z" fill="#FFBB54"/>
<path d="M191.522 1553.6C192.879 1559.33 194.124 1565.06 195.182 1570.78C191.982 1575.81 188.786 1580.8 185.592 1585.77C187.943 1575.16 189.871 1564.42 191.522 1553.6Z" fill="#FFBB54"/>
<path d="M175.141 1625.1C175.337 1630.54 175.353 1635.95 175.187 1641.3C171.626 1646.01 168.093 1650.71 164.524 1655.36C168.412 1645.45 171.951 1635.36 175.141 1625.1Z" fill="#FFBB54"/>
<path d="M148.422 1691.85C147.473 1696.75 146.363 1701.58 145.091 1706.32C141.223 1710.72 137.364 1715.12 133.515 1719.52C138.794 1710.52 143.751 1701.27 148.422 1691.85Z" fill="#FFBB54"/>
<path d="M112.314 1752.38C110.33 1756.51 108.225 1760.54 105.971 1764.44C101.839 1768.58 97.7134 1772.73 93.5939 1776.89C100.099 1768.97 106.324 1760.78 112.314 1752.38Z" fill="#FFBB54"/>
<path d="M-9.76014 1121.69C0.588595 1122.54 10.9479 1123.85 21.3179 1125.62C22.9849 1134.18 24.4467 1142.67 25.7035 1151.07C14.3806 1140.62 2.54044 1130.81 -9.76014 1121.69V1121.69Z" fill="#FFBB54"/>
<path d="M45.2953 1170.3C55.1531 1173.08 64.9379 1176.27 74.6499 1179.87C75.1119 1188.49 75.4291 1197.01 75.6014 1205.42C66.0873 1193.18 55.9701 1181.45 45.2953 1170.3V1170.3Z" fill="#FFBB54"/>
<path d="M91.8895 1227.73C100.914 1232.19 109.783 1237.02 118.496 1242.24C117.88 1250.75 117.143 1259.15 116.284 1267.44C108.804 1253.8 100.661 1240.55 91.8895 1227.73V1227.73Z" fill="#FFBB54"/>
<path d="M128.884 1292.13C136.779 1297.99 144.422 1304.22 151.876 1310.69C150.267 1318.98 148.581 1327.16 146.818 1335.23C141.551 1320.59 135.565 1306.2 128.884 1292.13V1292.13Z" fill="#FFBB54"/>
<path d="M155.464 1361.56C161.956 1368.52 168.207 1375.72 174.149 1383.14C171.673 1391.13 169.15 1399.02 166.583 1406.81C163.617 1391.58 159.906 1376.48 155.464 1361.56V1361.56Z" fill="#FFBB54"/>
<path d="M171.117 1434.04C176.076 1441.7 180.687 1449.56 185.014 1457.53C181.778 1465.16 178.526 1472.72 175.258 1480.2C174.606 1464.8 173.226 1449.41 171.117 1434.04Z" fill="#FFBB54"/>
<path d="M175.642 1507.61C178.911 1515.62 181.854 1523.7 184.473 1531.84C180.602 1539.11 176.72 1546.32 172.828 1553.47C174.47 1538.28 175.408 1523 175.642 1507.61Z" fill="#FFBB54"/>
<path d="M169.123 1580.36C170.689 1588.31 171.924 1596.25 172.828 1604.17C168.396 1611.08 163.964 1617.96 159.533 1624.79C163.395 1610.19 166.639 1595.37 169.123 1580.36Z" fill="#FFBB54"/>
<path d="M151.897 1650.51C151.806 1658.04 151.38 1665.46 150.62 1672.78C145.688 1679.35 140.77 1685.91 135.867 1692.47C141.875 1678.81 147.196 1664.79 151.897 1650.51Z" fill="#FFBB54"/>
<path d="M124.534 1716.42C122.887 1723.1 120.913 1729.67 118.621 1736.11C113.229 1742.35 107.865 1748.63 102.527 1754.95C110.437 1742.5 117.773 1729.66 124.534 1716.42Z" fill="#FFBB54"/>
<path d="M87.808 1776.61C84.7881 1782.23 81.44 1787.64 77.7815 1792.8C71.9796 1798.78 66.1549 1804.78 60.3965 1810.87C70.0386 1799.92 79.1757 1788.5 87.808 1776.61Z" fill="#FFBB54"/>
<path d="M-11.0349 1160.38C1.35529 1161.88 13.7288 1164.04 26.0855 1166.86C27.3038 1176.96 28.2733 1186.92 28.9939 1196.73C16.4194 1183.7 3.04382 1171.55 -11.0349 1160.38Z" fill="#FFBB54"/>
<path d="M39.2219 1207.71C50.9648 1211.5 62.5645 1215.9 74.0211 1220.9C73.9895 1231.02 73.7391 1240.97 73.27 1250.76C62.8097 1235.68 51.4346 1221.3 39.2219 1207.71Z" fill="#FFBB54"/>
<path d="M81.7236 1263.41C92.3785 1269.26 102.797 1275.6 112.979 1282.43C111.787 1292.42 110.372 1302.23 108.89 1311.9C100.81 1295.2 91.7353 1279 81.7236 1263.41V1263.41Z" fill="#FFBB54"/>
<path d="M115.345 1325.86C124.572 1333.37 133.492 1341.28 142.03 1349.61C139.741 1359.35 137.378 1368.96 134.941 1378.43C129.45 1360.56 122.905 1343 115.345 1325.86V1325.86Z" fill="#FFBB54"/>
<path d="M139.238 1393.31C146.755 1402.03 153.865 1411.11 160.543 1420.52C157.362 1429.99 154.061 1439.31 150.781 1448.55C148.031 1429.97 144.176 1411.52 139.238 1393.31V1393.31Z" fill="#FFBB54"/>
<path d="M152.818 1463.97C158.392 1473.48 163.519 1483.26 168.18 1493.27C164.135 1502.4 160.089 1511.45 156.041 1520.43C156.069 1501.63 154.993 1482.77 152.818 1463.97V1463.97Z" fill="#FFBB54"/>
<path d="M155.772 1535.99C159.306 1545.84 162.348 1555.84 164.883 1565.95C160.11 1574.77 155.311 1583.51 150.603 1592.27C153.412 1573.71 155.138 1554.91 155.772 1535.99V1535.99Z" fill="#FFBB54"/>
<path d="M148.036 1607.59C149.499 1617.29 150.439 1627.04 150.852 1636.78C145.406 1645.29 139.99 1653.79 134.603 1662.3C140.121 1644.42 144.607 1626.15 148.036 1607.59V1607.59Z" fill="#FFBB54"/>
<path d="M129.794 1677.01C129.229 1686.12 128.135 1695.16 126.52 1704.08C120.491 1712.33 114.415 1720.56 108.394 1728.85C116.511 1712.08 123.657 1694.77 129.794 1677.01V1677.01Z" fill="#FFBB54"/>
<path d="M101.456 1742.6C99.001 1750.72 96.0201 1758.63 92.5331 1766.28C85.8624 1774.24 79.2348 1782.29 72.556 1790.36C83.1239 1775.12 92.7744 1759.17 101.456 1742.6V1742.6Z" fill="#FFBB54"/>
<path d="M-12.8265 1196.88C0.654208 1199.12 14.0503 1202.14 27.2975 1205.95C27.9281 1216.66 28.2537 1227.19 28.4004 1237.54C15.6136 1222.96 1.83028 1209.36 -12.8265 1196.88V1196.88Z" fill="#FFBB54"/>
<path d="M33.3109 1243.24C45.9875 1247.96 58.4436 1253.4 70.6198 1259.55C70.0041 1270.26 69.2165 1280.79 68.257 1291.13C57.7157 1274.35 46.0342 1258.34 33.3109 1243.24V1243.24Z" fill="#FFBB54"/>
<path d="M72.2887 1297.68C83.7086 1304.55 94.7834 1312.08 105.459 1320.23C103.767 1330.84 101.869 1341.27 99.9341 1351.55C91.9659 1332.98 82.7253 1314.98 72.2887 1297.68V1297.68Z" fill="#FFBB54"/>
<path d="M102.971 1358.78C112.729 1367.43 122.05 1376.62 130.892 1386.31C128.144 1396.74 125.345 1407.04 122.494 1417.21C117.292 1397.36 110.768 1377.83 102.971 1358.78V1358.78Z" fill="#FFBB54"/>
<path d="M124.449 1424.94C132.239 1434.9 139.52 1445.29 146.257 1456.03C142.598 1466.27 138.925 1476.41 135.238 1486.45C133.004 1465.8 129.399 1445.24 124.449 1424.94V1424.94Z" fill="#FFBB54"/>
<path d="M136.042 1494.47C141.651 1505.25 146.695 1516.31 151.15 1527.6C146.652 1537.63 142.168 1547.6 137.7 1557.53C138.521 1536.58 137.967 1515.52 136.042 1494.47V1494.47Z" fill="#FFBB54"/>
<path d="M137.316 1565.65C140.641 1576.7 143.347 1587.92 145.42 1599.22C140.135 1609.05 134.881 1618.87 129.659 1628.69C133.579 1607.97 136.137 1586.91 137.316 1565.65V1565.65Z" fill="#FFBB54"/>
<path d="M128.077 1636.71C129.076 1647.53 129.436 1658.36 129.155 1669.15C123.117 1678.78 117.108 1688.46 111.128 1698.19C118.104 1678.2 123.766 1657.66 128.077 1636.71V1636.71Z" fill="#FFBB54"/>
<path d="M108.363 1705.91C107.127 1716 105.227 1725.95 102.677 1735.69C95.8899 1745.15 89.1133 1754.69 82.3472 1764.31C92.2785 1745.55 100.97 1726.04 108.363 1705.91V1705.91Z" fill="#FFBB54"/>
<path d="M78.444 1771.54C75.1071 1780.46 71.1203 1789.07 66.517 1797.28C58.9739 1806.58 51.3957 1815.96 43.7823 1825.43C56.5048 1808.36 68.0838 1790.36 78.444 1771.54V1771.54Z" fill="#FFBB54"/>
<path d="M-15.3505 1231.12C-1.47198 1234.09 12.271 1237.94 25.7995 1242.66C25.8612 1253.4 25.7048 1263.95 25.3303 1274.3C12.8516 1258.84 -0.754204 1244.4 -15.3505 1231.12V1231.12Z" fill="#FFBB54"/>
<path d="M27.3569 1276.83C40.3086 1282.36 52.9722 1288.69 65.2757 1295.8C64.2625 1306.58 63.0237 1317.17 61.7329 1327.59C51.5386 1309.82 40.0428 1292.84 27.3569 1276.83V1276.83Z" fill="#FFBB54"/>
<path d="M63.3886 1330.51C74.9253 1338.27 86.0517 1346.72 96.7086 1355.81C94.6584 1366.56 92.5315 1377.17 90.3279 1387.62C82.7389 1367.97 73.7318 1348.87 63.3886 1330.51V1330.51Z" fill="#FFBB54"/>
<path d="M91.559 1390.84C101.301 1400.38 110.512 1410.49 119.142 1421.13C116.176 1431.84 113.139 1442.43 110.114 1452.93C105.412 1431.87 99.2092 1411.11 91.559 1390.84V1390.84Z" fill="#FFBB54"/>
<path d="M110.87 1456.37C118.49 1467.2 125.494 1478.48 131.842 1490.13C127.989 1500.78 124.114 1511.35 120.291 1521.9C118.67 1499.95 115.521 1478.04 110.87 1456.37V1456.37Z" fill="#FFBB54"/>
<path d="M120.54 1525.49C125.821 1537.08 130.423 1548.97 134.32 1561.08C129.616 1571.67 124.941 1582.26 120.295 1592.85C121.932 1570.53 122.014 1548.02 120.54 1525.49V1525.49Z" fill="#FFBB54"/>
<path d="M120.014 1596.49C122.853 1608.29 124.956 1620.23 126.311 1632.23C120.789 1642.78 115.262 1653.35 109.784 1664C114.73 1641.88 118.148 1619.32 120.014 1596.49V1596.49Z" fill="#FFBB54"/>
<path d="M108.963 1667.6C109.342 1679.07 108.953 1690.5 107.799 1701.82C101.437 1712.33 95.0325 1722.89 88.6626 1733.58C96.9422 1712.21 103.726 1690.17 108.963 1667.6V1667.6Z" fill="#FFBB54"/>
<path d="M87.3052 1737.05C85.2901 1747.66 82.5104 1758.05 78.9893 1768.13C71.699 1778.55 64.4342 1789.13 57.0792 1799.78C68.6001 1779.74 78.7006 1758.77 87.3052 1737.05V1737.05Z" fill="#FFBB54"/>
<path d="M-18.4159 1263.2C-4.61195 1266.89 9.00378 1271.5 22.3452 1277.01C21.9586 1287.41 21.437 1297.63 20.7804 1307.68C8.86648 1291.8 -4.24548 1276.92 -18.4159 1263.2V1263.2Z" fill="#FFBB54"/>
<path d="M21.5092 1308.66C34.2698 1314.91 46.6884 1321.99 58.6903 1329.84C57.3824 1340.37 55.9913 1350.75 54.5171 1360.97C44.851 1342.7 33.8111 1325.2 21.5092 1308.66V1308.66Z" fill="#FFBB54"/>
<path d="M55.1072 1362.09C66.3489 1370.54 77.1144 1379.69 87.3398 1389.49C85.1312 1400.12 82.9114 1410.65 80.6805 1421.07C73.6281 1400.83 65.0765 1381.1 55.1072 1362.09V1362.09Z" fill="#FFBB54"/>
<path d="M81.1111 1422.31C90.4491 1432.49 99.1862 1443.25 107.268 1454.52C104.225 1465.26 101.194 1475.94 98.175 1486.57C94.0726 1464.82 88.3672 1443.33 81.1111 1422.31V1422.31Z" fill="#FFBB54"/>
<path d="M98.424 1487.9C105.517 1499.32 111.938 1511.16 117.647 1523.34C113.764 1534.19 109.913 1545.03 106.093 1555.89C105.175 1533.16 102.611 1510.43 98.424 1487.9V1487.9Z" fill="#FFBB54"/>
<path d="M106.149 1557.28C110.811 1569.37 114.73 1581.72 117.88 1594.26C113.145 1605.22 108.438 1616.24 103.76 1627.32C106.22 1604.17 107.018 1580.76 106.149 1557.28V1557.28Z" fill="#FFBB54"/>
<path d="M103.606 1628.73C105.718 1640.93 107.05 1653.22 107.593 1665.5C101.974 1676.59 96.3504 1687.77 90.7223 1699.03C96.693 1676.07 100.999 1652.57 103.606 1628.73V1628.73Z" fill="#FFBB54"/>
<path d="M90.3588 1700.43C89.9261 1712.18 88.6914 1723.82 86.6642 1735.28C80.0547 1746.44 73.4314 1757.73 66.7942 1769.16C76.2612 1746.98 84.1367 1724.01 90.3588 1700.43V1700.43Z" fill="#FFBB54"/>
<path d="M66.2157 1770.51C63.3267 1781.26 59.6457 1791.72 55.2047 1801.78C47.5776 1812.99 39.8578 1824.32 32.0454 1835.79C44.9951 1815.03 56.4158 1793.21 66.2157 1770.51V1770.51Z" fill="#FFBB54"/>
<path d="M-20.479 1294.03C-7.66941 1298.29 4.91836 1303.38 17.2078 1309.27C16.616 1318.72 15.9457 1328.03 15.1969 1337.22C4.4021 1321.89 -7.53046 1307.45 -20.479 1294.03Z" fill="#FFBB54"/>
<path d="M17.1148 1339.96C28.8152 1346.61 40.1572 1353.99 51.0763 1362.05C49.7219 1371.72 48.3589 1381.31 46.9872 1390.82C38.2885 1373.14 28.2994 1356.14 17.1148 1339.96V1339.96Z" fill="#FFBB54"/>
<path d="M48.5296 1393.98C58.6729 1402.64 68.3429 1411.92 77.4868 1421.74C75.4058 1431.67 73.3457 1441.56 71.3065 1451.41C65.0979 1431.77 57.4831 1412.57 48.5296 1393.98V1393.98Z" fill="#FFBB54"/>
<path d="M72.3999 1454.91C80.6297 1465.13 88.2809 1475.84 95.31 1486.97C92.4962 1497.18 89.7067 1507.38 86.9417 1517.59C83.5717 1496.44 78.7109 1475.49 72.3999 1454.91V1454.91Z" fill="#FFBB54"/>
<path d="M87.5281 1521.36C93.5563 1532.65 98.927 1544.28 103.609 1556.18C99.9966 1566.66 96.3981 1577.18 92.8783 1587.78C92.6435 1565.63 90.8553 1543.43 87.5281 1521.36V1521.36Z" fill="#FFBB54"/>
<path d="M92.9055 1591.71C96.5377 1603.53 99.4642 1615.53 101.668 1627.65C97.1994 1638.4 92.7816 1649.26 88.3221 1660.2C91.4275 1637.62 92.9592 1614.73 92.9055 1591.71V1591.71Z" fill="#FFBB54"/>
<path d="M87.7562 1664.2C88.9167 1675.99 89.3338 1687.8 89.0048 1699.55C83.6138 1710.55 78.1892 1721.68 72.731 1732.92C79.3224 1710.52 84.3437 1687.55 87.7562 1664.2V1664.2Z" fill="#FFBB54"/>
<path d="M71.55 1736.88C70.2515 1748.1 68.1942 1759.17 65.3933 1769.99C58.9413 1781.17 52.4824 1792.53 45.8462 1803.96C55.9889 1782.38 64.5793 1759.96 71.55 1736.88V1736.88Z" fill="#FFBB54"/>
<path d="M-22.0076 1323.7C-10.6685 1328.34 0.444862 1333.64 11.2766 1339.59C10.6469 1347.86 10.0053 1356.06 9.35168 1364.18C-0.152056 1349.93 -10.6355 1336.4 -22.0076 1323.7V1323.7Z" fill="#FFBB54"/>
<path d="M13.6494 1370.76C23.8516 1377.53 33.7229 1384.86 43.2181 1392.72C42.0173 1401.35 40.8377 1409.94 39.6796 1418.49C32.0924 1402.01 23.3923 1386.05 13.6494 1370.76V1370.76Z" fill="#FFBB54"/>
<path d="M43.0855 1426.08C51.7879 1434.57 60.039 1443.56 67.7964 1452.99C65.9932 1462 64.2009 1471.01 62.4945 1480.04C57.2324 1461.67 50.7463 1443.64 43.0855 1426.08V1426.08Z" fill="#FFBB54"/>
<path d="M64.8276 1488.47C71.6568 1498.31 77.9749 1508.51 83.7518 1519.03C81.2919 1528.45 78.8628 1537.91 76.4645 1547.42C73.8849 1527.59 69.9965 1507.9 64.8276 1488.47V1488.47Z" fill="#FFBB54"/>
<path d="M77.5649 1556.48C82.2904 1567.18 86.4527 1578.11 90.0318 1589.23C86.8206 1599.05 83.6296 1608.96 80.4589 1618.96C80.8303 1598.17 79.8635 1577.3 77.5649 1556.48V1556.48Z" fill="#FFBB54"/>
<path d="M80.1984 1628.43C82.6867 1639.47 84.5583 1650.62 85.8033 1661.82C81.761 1672.04 77.689 1682.36 73.5872 1692.78C77.1673 1671.59 79.376 1650.1 80.1984 1628.43V1628.43Z" fill="#FFBB54"/>
<path d="M71.8681 1702.39C72.0519 1713.28 71.589 1724.12 70.4821 1734.86C65.4651 1745.41 60.355 1756.05 55.2316 1766.84C62.1611 1745.86 67.7189 1724.33 71.8681 1702.39V1702.39Z" fill="#FFBB54"/>
<path d="M51.9952 1776.34C49.893 1786.55 47.1459 1796.57 43.7714 1806.33C37.668 1817.11 31.4067 1827.98 25.0742 1839C35.3955 1818.84 44.3888 1797.91 51.9952 1776.34V1776.34Z" fill="#FFBB54"/>
<path d="M-22.1845 1353.13C-12.9348 1357.74 -3.88532 1362.82 4.92907 1368.35C4.44284 1375.14 3.93226 1381.89 3.5022 1388.62C-4.35211 1376.27 -12.9323 1364.41 -22.1845 1353.13V1353.13Z" fill="#FFBB54"/>
<path d="M11.7201 1402.17C19.9133 1408.51 27.8064 1415.26 35.3926 1422.36C34.4962 1429.57 33.6156 1436.79 32.7509 1444.02C26.5609 1429.67 19.5367 1415.7 11.7201 1402.17V1402.17Z" fill="#FFBB54"/>
<path d="M39.1318 1459.64C45.9267 1467.4 52.3507 1475.48 58.4179 1483.79C57.02 1491.47 55.6539 1499.19 54.3196 1506.94C50.1591 1490.92 45.0872 1475.13 39.1318 1459.64V1459.64Z" fill="#FFBB54"/>
<path d="M58.4692 1524.28C63.5853 1533.09 68.3428 1542.08 72.6175 1551.24C70.6564 1559.4 68.7032 1567.63 66.7579 1575.91C64.975 1558.61 62.2071 1541.36 58.4692 1524.28V1524.28Z" fill="#FFBB54"/>
<path d="M68.3297 1594.53C71.6146 1603.96 74.4406 1613.46 76.8077 1623.03C74.1301 1631.65 71.5072 1640.37 68.8229 1649.16C69.68 1631.03 69.5153 1612.78 68.3297 1594.53V1594.53Z" fill="#FFBB54"/>
<path d="M67.5431 1668.58C68.8507 1678.18 69.6625 1687.76 70.0512 1697.26C66.5849 1706.31 63.0817 1715.46 59.5416 1724.7C63.2476 1706.23 65.9191 1687.5 67.5431 1668.58V1668.58Z" fill="#FFBB54"/>
<path d="M55.2005 1744.35C54.4856 1753.61 53.3119 1762.79 51.684 1771.86C47.2874 1781.26 42.8051 1790.74 38.2371 1800.31C44.9235 1782.08 50.5871 1763.39 55.2005 1744.35V1744.35Z" fill="#FFBB54"/>
<path d="M-21.1903 1382.83C-14.3729 1386.92 -7.73894 1391.36 -1.22092 1395.98C-1.51748 1401.11 -1.76283 1406.24 -2.01001 1411.38C-7.95453 1401.55 -14.3563 1392.02 -21.1903 1382.83V1382.83Z" fill="#FFBB54"/>
<path d="M10.9973 1434.64C16.8758 1440.05 22.5663 1445.65 28.0688 1451.46C27.4884 1457.03 26.9297 1462.63 26.3927 1468.25C21.7126 1456.68 16.5808 1445.47 10.9973 1434.64Z" fill="#FFBB54"/>
<path d="M36.1968 1495.03C40.9222 1501.43 45.3967 1508.01 49.6617 1514.69C48.7229 1520.74 47.7355 1526.81 46.8257 1532.94C43.8036 1520.02 40.2606 1507.38 36.1968 1495.03Z" fill="#FFBB54"/>
<path d="M52.7331 1562.6C56.0838 1569.71 59.2113 1576.91 62.0416 1584.18C60.5976 1590.69 59.157 1597.25 57.7197 1603.87C56.6569 1589.93 54.9947 1576.17 52.7331 1562.6Z" fill="#FFBB54"/>
<path d="M59.1287 1635.63C61.0103 1643.11 62.603 1650.6 63.9068 1658.11C61.8887 1665.07 59.8103 1672.07 57.7441 1679.14C58.8518 1664.57 59.3133 1650.06 59.1287 1635.63Z" fill="#FFBB54"/>
<path d="M54.1679 1712.12C54.4707 1719.61 54.4901 1727.05 54.2263 1734.44C51.4606 1741.76 48.6687 1749.15 45.8505 1756.61C49.2966 1741.83 52.0691 1727 54.1679 1712.12Z" fill="#FFBB54"/>
<path d="M36.9452 1789.81C35.6601 1796.96 34.1072 1803.99 32.2863 1810.9C28.7028 1818.51 25.0504 1826.18 21.329 1833.91C27.2268 1819.39 32.4322 1804.69 36.9452 1789.81Z" fill="#FFBB54"/>
<path d="M11.3345 1468.95C14.8064 1472.75 18.1895 1476.64 21.4837 1480.6C21.2012 1484.26 20.944 1487.93 20.6591 1491.62C17.7294 1483.91 14.6212 1476.36 11.3345 1468.95Z" fill="#FFBB54"/>
<path d="M33.9373 1532.96C36.6034 1537.35 39.1612 1541.79 41.6107 1546.29C41.07 1550.32 40.523 1554.36 39.9698 1558.43C38.1834 1549.82 36.1725 1541.33 33.9373 1532.96Z" fill="#FFBB54"/>
<path d="M47.0837 1604.02C48.8102 1608.8 50.4327 1613.59 51.951 1618.41C51.0366 1622.78 50.1311 1627.19 49.2345 1631.62C48.7953 1622.35 48.0511 1613.15 47.0837 1604.02Z" fill="#FFBB54"/>
<path d="M49.2603 1680.21C50.0199 1685.14 50.6021 1690.06 51.1051 1694.97C49.7879 1699.68 48.4187 1704.4 47.0431 1709.16C48.0912 1699.49 48.8303 1689.85 49.2603 1680.21Z" fill="#FFBB54"/>
<path d="M39.247 1759.31C38.9439 1764.15 38.5389 1768.97 37.9789 1773.74C36.0989 1778.69 34.2381 1783.7 32.2968 1788.71C34.907 1778.94 37.2237 1769.14 39.247 1759.31Z" fill="#FFBB54"/>
<path d="M11.5403 1504.31C13.0854 1506.32 14.5776 1508.38 16.0718 1510.42C15.9764 1512.28 15.8967 1514.14 15.7812 1516C14.4267 1512.06 13.0131 1508.17 11.5403 1504.31Z" fill="#FFBB54"/>
<path d="M31.2355 1572.36C32.3357 1574.63 33.4309 1576.91 34.4747 1579.21C34.2155 1581.27 34.0064 1583.34 33.7314 1585.41C32.9808 1581.03 32.1488 1576.68 31.2355 1572.36Z" fill="#FFBB54"/>
<path d="M40.5529 1647.2C41.1775 1649.62 41.7652 1652.04 42.3523 1654.47C41.9125 1656.73 41.4634 1658.99 41.005 1661.26C40.9186 1656.56 40.7679 1651.87 40.5529 1647.2Z" fill="#FFBB54"/>
<path d="M37.9599 1726.68C38.0815 1729.13 38.1706 1731.58 38.2273 1734.02C37.5375 1736.45 36.8476 1738.89 36.1274 1741.32C36.796 1736.44 37.4249 1731.56 37.9599 1726.68Z" fill="#FFBB54"/>
<path d="M22.2683 1808.34C21.8579 1810.7 21.428 1813.05 20.9786 1815.4C19.9721 1817.95 18.9867 1820.52 17.9792 1823.09C19.4856 1818.18 20.8957 1813.26 22.2683 1808.34Z" fill="#FFBB54"/>
<path d="M11.3998 1540.96C11.533 1541.14 11.6512 1541.33 11.7529 1541.53C11.7516 1541.7 11.7241 1541.87 11.7355 1542.04C11.6341 1541.68 11.5174 1541.32 11.3998 1540.96Z" fill="#FFBB54"/>
<path d="M27.791 1613.34C27.8447 1613.56 27.9701 1613.75 28.0251 1613.96C28.0234 1614.16 28.0024 1614.35 27.9624 1614.54C27.9074 1614.14 27.8417 1613.74 27.791 1613.34Z" fill="#FFBB54"/>
<path d="M32.7719 1692.12C32.8114 1692.34 32.8179 1692.56 32.8757 1692.77C32.8204 1692.98 32.779 1693.19 32.7518 1693.4C32.7638 1692.97 32.7628 1692.55 32.7719 1692.12Z" fill="#FFBB54"/>
<path d="M24.8293 1774.89C24.8072 1775.1 24.8257 1775.32 24.7947 1775.54C24.757 1775.77 24.6477 1775.98 24.5959 1776.21C24.6392 1775.76 24.7463 1775.33 24.8293 1774.89Z" fill="#FFBB54"/>
</g>
<g opacity="0.4" clip-path="url(#clip3_17478_6201)" filter="url(#filter3_f_17478_6201)">
<path d="M6.55457 1124.97C14.2921 1126.41 22.0154 1128.07 29.7245 1129.95C31.1222 1136.8 32.3895 1143.61 33.5263 1150.37C24.8674 1141.56 15.8768 1133.1 6.55457 1124.97Z" fill="#FFBB54"/>
<path d="M64.5142 1184.92C71.7043 1187.71 78.8489 1190.68 85.9163 1193.88C86.2664 1200.73 86.5813 1207.52 86.7264 1214.25C79.7053 1204.21 72.2675 1194.44 64.5142 1184.92Z" fill="#FFBB54"/>
<path d="M111.414 1253.09C117.812 1257.03 124.123 1261.14 130.347 1265.4C129.761 1272.1 129.114 1278.73 128.406 1285.3C123.129 1274.39 117.499 1263.62 111.414 1253.09Z" fill="#FFBB54"/>
<path d="M146.334 1327.07C151.752 1331.91 157.05 1336.88 162.23 1341.98C160.829 1348.42 159.364 1354.78 157.835 1361.08C154.42 1349.64 150.586 1338.31 146.334 1327.07Z" fill="#FFBB54"/>
<path d="M168.779 1404.43C173.079 1409.89 177.217 1415.47 181.226 1421.12C179.07 1427.19 176.894 1433.21 174.699 1439.17C173.114 1427.57 171.141 1415.99 168.779 1404.43Z" fill="#FFBB54"/>
<path d="M178.659 1482.81C181.732 1488.61 184.645 1494.48 187.398 1500.4C184.655 1506.09 181.87 1511.7 179.077 1517.27C179.34 1505.83 179.201 1494.34 178.659 1482.81Z" fill="#FFBB54"/>
<path d="M176.243 1559.96C178.057 1565.82 179.703 1571.69 181.183 1577.58C177.941 1582.85 174.656 1588.05 171.387 1593.22C173.378 1582.25 175.031 1571.16 176.243 1559.96Z" fill="#FFBB54"/>
<path d="M162.136 1633.86C162.714 1639.49 163.117 1645.09 163.342 1650.66C159.663 1655.49 155.989 1660.28 152.365 1665.09C155.968 1654.85 159.225 1644.44 162.136 1633.86Z" fill="#FFBB54"/>
<path d="M137.213 1702.71C136.607 1707.84 135.87 1712.91 134.904 1717.89C130.94 1722.36 126.968 1726.79 122.989 1731.19C128.068 1721.93 132.796 1712.42 137.213 1702.71Z" fill="#FFBB54"/>
<path d="M102.573 1764.97C100.904 1769.37 99.0808 1773.66 97.104 1777.84C92.8532 1781.91 88.654 1786.04 84.4442 1790.13C90.779 1782.02 96.8105 1773.61 102.573 1764.97Z" fill="#FFBB54"/>
<path d="M59.4923 1819.43C56.9078 1822.9 54.1929 1826.23 51.3394 1829.38C46.9022 1833.18 42.476 1836.99 38.0609 1840.81C45.4328 1833.97 52.5561 1826.81 59.4923 1819.43Z" fill="#FFBB54"/>
<path d="M11.9637 1171.62C19.2915 1173.37 26.5837 1175.41 33.841 1177.64C34.6505 1184.1 35.3587 1190.52 35.9658 1196.88C28.2738 1188.17 20.2796 1179.72 11.9637 1171.62Z" fill="#FFBB54"/>
<path d="M63.3804 1230.98C70.1211 1234.02 76.7876 1237.26 83.3799 1240.71C83.2917 1247.12 83.1832 1253.48 82.8948 1259.77C76.7513 1249.94 70.2465 1240.35 63.3804 1230.98Z" fill="#FFBB54"/>
<path d="M104.389 1297.72C110.309 1301.83 116.117 1306.12 121.857 1310.51C120.961 1316.76 120.01 1322.95 119.004 1329.08C114.474 1318.48 109.603 1308.03 104.389 1297.72Z" fill="#FFBB54"/>
<path d="M134.163 1369.64C139.101 1374.56 143.883 1379.63 148.585 1384.77C146.967 1390.77 145.339 1396.72 143.633 1402.6C140.868 1391.53 137.711 1380.54 134.163 1369.64Z" fill="#FFBB54"/>
<path d="M152.247 1444.56C156.068 1450.02 159.721 1455.59 163.248 1461.22C160.991 1466.9 158.765 1472.56 156.484 1478.15C155.468 1466.94 154.056 1455.74 152.247 1444.56Z" fill="#FFBB54"/>
<path d="M158.536 1520.32C161.159 1526.05 163.593 1531.85 165.897 1537.67C163.132 1543.03 160.365 1548.35 157.596 1553.63C158.276 1542.58 158.589 1531.48 158.536 1520.32Z" fill="#FFBB54"/>
<path d="M153.241 1594.89C154.598 1600.63 155.843 1606.35 156.901 1612.08C153.701 1617.1 150.505 1622.1 147.311 1627.06C149.662 1616.46 151.59 1605.71 153.241 1594.89Z" fill="#FFBB54"/>
<path d="M136.859 1666.4C137.056 1671.84 137.072 1677.24 136.906 1682.6C133.344 1687.3 129.812 1692 126.243 1696.65C130.131 1686.74 133.67 1676.66 136.859 1666.4Z" fill="#FFBB54"/>
<path d="M110.141 1733.15C109.192 1738.05 108.082 1742.87 106.809 1747.61C102.942 1752.02 99.0832 1756.42 95.2336 1760.81C100.513 1751.81 105.47 1742.57 110.141 1733.15Z" fill="#FFBB54"/>
<path d="M74.0325 1793.68C72.0487 1797.81 69.9437 1801.84 67.6895 1805.73C63.5579 1809.88 59.4323 1814.03 55.3128 1818.19C61.8183 1810.27 68.0429 1802.07 74.0325 1793.68Z" fill="#FFBB54"/>
<path d="M7.0142 1211.59C16.8719 1214.38 26.6568 1217.57 36.3688 1221.17C36.8308 1229.79 37.148 1238.3 37.3203 1246.71C27.8062 1234.47 17.6889 1222.75 7.0142 1211.59V1211.59Z" fill="#FFBB54"/>
<path d="M53.6083 1269.02C62.6333 1273.48 71.502 1278.32 80.2145 1283.53C79.5985 1292.04 78.8615 1300.45 78.0033 1308.74C70.5229 1295.1 62.3798 1281.84 53.6083 1269.02V1269.02Z" fill="#FFBB54"/>
<path d="M90.603 1333.42C98.4982 1339.28 106.141 1345.52 113.595 1351.98C111.986 1360.27 110.3 1368.45 108.537 1376.53C103.27 1361.88 97.284 1347.5 90.603 1333.42V1333.42Z" fill="#FFBB54"/>
<path d="M117.183 1402.85C123.675 1409.82 129.926 1417.01 135.868 1424.44C133.392 1432.42 130.869 1440.31 128.302 1448.1C125.336 1432.88 121.625 1417.77 117.183 1402.85V1402.85Z" fill="#FFBB54"/>
<path d="M132.836 1475.33C137.795 1483 142.406 1490.86 146.733 1498.83C143.497 1506.46 140.245 1514.01 136.977 1521.49C136.325 1506.09 134.945 1490.71 132.836 1475.33Z" fill="#FFBB54"/>
<path d="M137.361 1548.9C140.63 1556.91 143.573 1564.99 146.192 1573.13C142.321 1580.41 138.439 1587.62 134.547 1594.76C136.189 1579.58 137.127 1564.29 137.361 1548.9Z" fill="#FFBB54"/>
<path d="M130.842 1621.65C132.408 1629.61 133.643 1637.54 134.547 1645.46C130.115 1652.38 125.683 1659.25 121.252 1666.09C125.114 1651.49 128.358 1636.66 130.842 1621.65Z" fill="#FFBB54"/>
<path d="M113.616 1691.81C113.525 1699.33 113.099 1706.75 112.339 1714.08C107.407 1720.64 102.489 1727.2 97.5856 1733.76C103.594 1720.11 108.915 1706.09 113.616 1691.81Z" fill="#FFBB54"/>
<path d="M86.2532 1757.72C84.606 1764.4 82.6322 1770.97 80.3394 1777.4C74.9481 1783.65 69.5837 1789.93 64.2461 1796.24C72.1559 1783.8 79.4915 1770.96 86.2532 1757.72Z" fill="#FFBB54"/>
<path d="M49.5269 1817.91C46.5069 1823.53 43.1589 1828.93 39.5003 1834.1C33.6985 1840.08 27.8738 1846.07 22.1154 1852.17C31.7574 1841.22 40.8946 1829.8 49.5269 1817.91Z" fill="#FFBB54"/>
<path d="M-49.3161 1201.67C-36.9258 1203.17 -24.5523 1205.34 -12.1956 1208.15C-10.9773 1218.26 -10.0079 1228.21 -9.2872 1238.03C-21.8618 1225 -35.2373 1212.85 -49.3161 1201.67Z" fill="#FFBB54"/>
<path d="M0.940738 1249C12.6836 1252.8 24.2834 1257.2 35.74 1262.2C35.7083 1272.31 35.458 1282.26 34.9889 1292.06C24.5285 1276.98 13.1535 1262.59 0.940738 1249Z" fill="#FFBB54"/>
<path d="M43.4425 1304.7C54.0974 1310.55 64.5159 1316.9 74.698 1323.73C73.5063 1333.71 72.0912 1343.53 70.609 1353.2C62.5287 1336.5 53.4541 1320.3 43.4425 1304.7V1304.7Z" fill="#FFBB54"/>
<path d="M77.0639 1367.15C86.2906 1374.66 95.211 1382.58 103.749 1390.9C101.46 1400.65 99.0967 1410.25 96.6597 1419.72C91.1692 1401.85 84.6242 1384.29 77.0639 1367.15V1367.15Z" fill="#FFBB54"/>
<path d="M100.957 1434.61C108.473 1443.32 115.584 1452.4 122.262 1461.82C119.081 1471.29 115.78 1480.61 112.5 1489.84C109.75 1471.27 105.894 1452.82 100.957 1434.61V1434.61Z" fill="#FFBB54"/>
<path d="M114.537 1505.26C120.111 1514.78 125.238 1524.56 129.899 1534.56C125.854 1543.69 121.808 1552.75 117.759 1561.73C117.788 1542.92 116.712 1524.07 114.537 1505.26V1505.26Z" fill="#FFBB54"/>
<path d="M117.49 1577.29C121.025 1587.13 124.067 1597.13 126.602 1607.25C121.829 1616.06 117.03 1624.81 112.322 1633.56C115.131 1615 116.857 1596.21 117.49 1577.29V1577.29Z" fill="#FFBB54"/>
<path d="M109.754 1648.88C111.218 1658.58 112.158 1668.33 112.571 1678.08C107.125 1686.58 101.709 1695.09 96.3215 1703.6C101.84 1685.72 106.326 1667.45 109.754 1648.88V1648.88Z" fill="#FFBB54"/>
<path d="M91.5133 1718.3C90.9475 1727.42 89.8539 1736.46 88.2387 1745.37C82.21 1753.63 76.1344 1761.85 70.1132 1770.15C78.2303 1753.38 85.3759 1736.07 91.5133 1718.3V1718.3Z" fill="#FFBB54"/>
<path d="M63.1751 1783.89C60.7199 1792.02 57.7389 1799.93 54.252 1807.57C47.5813 1815.53 40.9536 1823.59 34.2749 1831.66C44.8428 1816.41 54.4933 1800.46 63.1751 1783.89V1783.89Z" fill="#FFBB54"/>
<path d="M-51.1076 1238.18C-37.6269 1240.41 -24.2308 1243.44 -10.9836 1247.24C-10.353 1257.95 -10.0275 1268.48 -9.88069 1278.83C-22.6676 1264.25 -36.4508 1250.66 -51.1076 1238.18V1238.18Z" fill="#FFBB54"/>
<path d="M-4.97024 1284.54C7.70637 1289.25 20.1625 1294.7 32.3387 1300.85C31.723 1311.56 30.9354 1322.08 29.9758 1332.43C19.4345 1315.64 7.75308 1299.63 -4.97024 1284.54V1284.54Z" fill="#FFBB54"/>
<path d="M34.0075 1338.98C45.4275 1345.85 56.5023 1353.38 67.1774 1361.52C65.4862 1372.14 63.5877 1382.56 61.653 1392.84C53.6848 1374.28 44.4442 1356.27 34.0075 1338.98V1338.98Z" fill="#FFBB54"/>
<path d="M64.6903 1400.07C74.4478 1408.73 83.7692 1417.92 92.6109 1427.6C89.8633 1438.04 87.064 1448.34 84.2129 1458.5C79.0104 1438.65 72.4864 1419.12 64.6903 1400.07V1400.07Z" fill="#FFBB54"/>
<path d="M86.1681 1466.23C93.9583 1476.2 101.239 1486.58 107.976 1497.33C104.317 1507.56 100.644 1517.7 96.9568 1527.75C94.7229 1507.09 91.1178 1486.54 86.1681 1466.23V1466.23Z" fill="#FFBB54"/>
<path d="M97.7613 1535.77C103.37 1546.54 108.414 1557.6 112.869 1568.9C108.37 1578.92 103.887 1588.9 99.4189 1598.82C100.24 1577.88 99.6861 1556.81 97.7613 1535.77V1535.77Z" fill="#FFBB54"/>
<path d="M99.0353 1606.94C102.36 1618 105.066 1629.21 107.139 1640.52C101.854 1650.34 96.6002 1660.16 91.3782 1669.99C95.2979 1649.27 97.8561 1628.2 99.0353 1606.94V1606.94Z" fill="#FFBB54"/>
<path d="M89.7962 1678.01C90.7953 1688.83 91.1552 1699.66 90.8738 1710.44C84.836 1720.08 78.827 1729.76 72.8466 1739.48C79.8226 1719.49 85.4851 1698.96 89.7962 1678.01V1678.01Z" fill="#FFBB54"/>
<path d="M70.082 1747.2C68.8455 1757.3 66.9457 1767.25 64.3959 1776.99C57.6088 1786.45 50.8322 1795.99 44.066 1805.61C53.9974 1786.84 62.6884 1767.33 70.082 1747.2V1747.2Z" fill="#FFBB54"/>
<path d="M40.1629 1812.84C36.826 1821.76 32.8392 1830.36 28.2359 1838.58C20.6928 1847.87 13.1146 1857.25 5.50122 1866.72C18.2236 1849.65 29.8027 1831.65 40.1629 1812.84V1812.84Z" fill="#FFBB54"/>
<path d="M-53.6316 1272.42C-39.7531 1275.38 -26.0102 1279.24 -12.4816 1283.96C-12.4199 1294.7 -12.5763 1305.24 -12.9508 1315.59C-25.4295 1300.13 -39.0353 1285.69 -53.6316 1272.42V1272.42Z" fill="#FFBB54"/>
<path d="M-10.9242 1318.13C2.02748 1323.65 14.6911 1329.99 26.9946 1337.1C25.9814 1347.88 24.7426 1358.46 23.4518 1368.89C13.2575 1351.11 1.76169 1334.14 -10.9242 1318.13V1318.13Z" fill="#FFBB54"/>
<path d="M25.1075 1371.8C36.6442 1379.56 47.7706 1388.01 58.4274 1397.1C56.3773 1407.86 54.2503 1418.46 52.0468 1428.92C44.4578 1409.27 35.4507 1390.17 25.1075 1371.8V1371.8Z" fill="#FFBB54"/>
<path d="M53.2779 1432.14C63.0195 1441.67 72.2309 1451.79 80.8605 1462.42C77.8952 1473.14 74.8582 1483.72 71.8324 1494.22C67.1307 1473.16 60.9281 1452.41 53.2779 1432.14V1432.14Z" fill="#FFBB54"/>
<path d="M72.5892 1497.67C80.2085 1508.5 87.2124 1519.77 93.5612 1531.42C89.7083 1542.07 85.8327 1552.65 82.01 1563.2C80.389 1541.24 77.2403 1519.34 72.5892 1497.67V1497.67Z" fill="#FFBB54"/>
<path d="M82.2593 1566.78C87.5399 1578.38 92.1419 1590.26 96.0385 1602.37C91.3351 1612.96 86.6602 1623.55 82.0137 1634.14C83.6511 1611.82 83.7332 1589.31 82.2593 1566.78V1566.78Z" fill="#FFBB54"/>
<path d="M81.7328 1637.78C84.5716 1649.59 86.6752 1661.52 88.0299 1673.52C82.5082 1684.07 76.9807 1694.65 71.5033 1705.3C76.4487 1683.17 79.8671 1660.61 81.7328 1637.78V1637.78Z" fill="#FFBB54"/>
<path d="M70.6823 1708.9C71.0609 1720.37 70.6718 1731.8 69.5178 1743.11C63.1557 1753.62 56.7513 1764.19 50.3815 1774.87C58.6611 1753.51 65.445 1731.46 70.6823 1708.9V1708.9Z" fill="#FFBB54"/>
<path d="M49.0241 1778.35C47.009 1788.96 44.2293 1799.34 40.7082 1809.42C33.4178 1819.85 26.153 1830.42 18.7981 1841.08C30.3189 1821.03 40.4195 1800.07 49.0241 1778.35V1778.35Z" fill="#FFBB54"/>
<path d="M-16.7719 1349.95C-4.0113 1356.21 8.40726 1363.29 20.4091 1371.14C19.1013 1381.66 17.7102 1392.04 16.236 1402.27C6.56989 1384 -4.47008 1366.5 -16.7719 1349.95V1349.95Z" fill="#FFBB54"/>
<path d="M16.8261 1403.39C28.0678 1411.84 38.8333 1420.99 49.0586 1430.79C46.8501 1441.41 44.6303 1451.94 42.3994 1462.37C35.347 1442.12 26.7954 1422.4 16.8261 1403.39V1403.39Z" fill="#FFBB54"/>
<path d="M42.83 1463.6C52.168 1473.78 60.9051 1484.54 68.9869 1495.82C65.9437 1506.55 62.9127 1517.23 59.8939 1527.86C55.7915 1506.11 50.0861 1484.63 42.83 1463.6V1463.6Z" fill="#FFBB54"/>
<path d="M60.1428 1529.19C67.236 1540.61 73.6564 1552.45 79.3654 1564.64C75.4825 1575.48 71.6315 1586.33 67.8123 1597.18C66.8938 1574.46 64.33 1551.73 60.1428 1529.19V1529.19Z" fill="#FFBB54"/>
<path d="M67.8681 1598.57C72.5299 1610.67 76.4486 1623.02 79.5989 1635.55C74.8638 1646.52 70.1571 1657.54 65.4785 1668.61C67.9386 1645.47 68.7373 1622.06 67.8681 1598.57V1598.57Z" fill="#FFBB54"/>
<path d="M65.3247 1670.02C67.4367 1682.22 68.7689 1694.51 69.3123 1706.8C63.693 1717.88 58.0692 1729.06 52.4412 1740.33C58.4119 1717.37 62.7183 1693.87 65.3247 1670.02V1670.02Z" fill="#FFBB54"/>
<path d="M52.0777 1741.73C51.6449 1753.47 50.4103 1765.12 48.3831 1776.57C41.7736 1787.73 35.1503 1799.02 28.5131 1810.46C37.9801 1788.28 45.8556 1765.31 52.0777 1741.73V1741.73Z" fill="#FFBB54"/>
<path d="M27.9346 1811.8C25.0456 1822.56 21.3646 1833.01 16.9236 1843.08C9.29648 1854.28 1.5767 1865.62 -6.23572 1877.08C6.714 1856.33 18.1346 1834.51 27.9346 1811.8V1811.8Z" fill="#FFBB54"/>
<path d="M-21.1663 1381.26C-9.46594 1387.91 1.87605 1395.28 12.7951 1403.34C11.4408 1413.02 10.0778 1422.61 8.70605 1432.11C0.00738174 1414.44 -9.98172 1397.43 -21.1663 1381.26V1381.26Z" fill="#FFBB54"/>
<path d="M10.2485 1435.27C20.3917 1443.94 30.0618 1453.21 39.2056 1463.04C37.1247 1472.97 35.0646 1482.85 33.0254 1492.7C26.8167 1473.06 19.202 1453.86 10.2485 1435.27V1435.27Z" fill="#FFBB54"/>
<path d="M34.1187 1496.2C42.3485 1506.43 49.9997 1517.14 57.0289 1528.27C54.215 1538.47 51.4256 1548.68 48.6605 1558.89C45.2905 1537.74 40.4297 1516.78 34.1187 1496.2V1496.2Z" fill="#FFBB54"/>
<path d="M49.2469 1562.65C55.2751 1573.94 60.6459 1585.57 65.3277 1597.48C61.7155 1607.95 58.1169 1618.47 54.5972 1629.08C54.3624 1606.93 52.5742 1584.73 49.2469 1562.65V1562.65Z" fill="#FFBB54"/>
<path d="M54.6244 1633.01C58.2565 1644.83 61.1831 1656.83 63.3864 1668.94C58.9183 1679.69 54.5005 1690.55 50.041 1701.49C53.1463 1678.91 54.6781 1656.02 54.6244 1633.01V1633.01Z" fill="#FFBB54"/>
<path d="M49.4751 1705.49C50.6356 1717.28 51.0527 1729.09 50.7237 1740.84C45.3327 1751.85 39.9081 1762.97 34.4498 1774.21C41.0413 1751.81 46.0626 1728.85 49.4751 1705.49V1705.49Z" fill="#FFBB54"/>
<path d="M33.2688 1778.18C31.9704 1789.4 29.9131 1800.46 27.1122 1811.28C20.6602 1822.47 14.2012 1833.82 7.56506 1845.25C17.7078 1823.68 26.2981 1801.26 33.2688 1778.18V1778.18Z" fill="#FFBB54"/>
<path d="M-24.6317 1412.05C-14.4295 1418.82 -4.55819 1426.15 4.93702 1434.02C3.73613 1442.64 2.55661 1451.23 1.39844 1459.79C-6.18874 1443.3 -14.8889 1427.35 -24.6317 1412.05V1412.05Z" fill="#FFBB54"/>
<path d="M4.80439 1467.37C13.5068 1475.86 21.7579 1484.85 29.5153 1494.29C27.712 1503.3 25.9198 1512.3 24.2134 1521.34C18.9513 1502.97 12.4651 1484.93 4.80439 1467.37V1467.37Z" fill="#FFBB54"/>
<path d="M26.5465 1529.77C33.3757 1539.61 39.6937 1549.81 45.4706 1560.33C43.0108 1569.74 40.5817 1579.2 38.1833 1588.71C35.6038 1568.89 31.7154 1549.19 26.5465 1529.77V1529.77Z" fill="#FFBB54"/>
<path d="M39.2837 1597.78C44.0093 1608.48 48.1715 1619.41 51.7507 1630.52C48.5395 1640.35 45.3485 1650.26 42.1777 1660.25C42.5492 1639.47 41.5823 1618.6 39.2837 1597.78V1597.78Z" fill="#FFBB54"/>
<path d="M41.9173 1669.72C44.4056 1680.77 46.2771 1691.92 47.5222 1703.11C43.4799 1713.33 39.4078 1723.65 35.306 1734.07C38.8862 1712.89 41.0949 1691.39 41.9173 1669.72V1669.72Z" fill="#FFBB54"/>
<path d="M33.5869 1743.69C33.7708 1754.57 33.3079 1765.42 32.201 1776.16C27.184 1786.7 22.0739 1797.34 16.9504 1808.14C23.88 1787.15 29.4378 1765.62 33.5869 1743.69V1743.69Z" fill="#FFBB54"/>
<path d="M13.7141 1817.63C11.6119 1827.85 8.86477 1837.87 5.49029 1847.62C-0.613176 1858.41 -6.87443 1869.27 -13.2069 1880.29C-2.88559 1860.14 6.1077 1839.2 13.7141 1817.63V1817.63Z" fill="#FFBB54"/>
<path d="M-26.561 1443.46C-18.3678 1449.8 -10.4748 1456.56 -2.88852 1463.65C-3.78491 1470.87 -4.6655 1478.09 -5.53027 1485.31C-11.7203 1470.97 -18.7444 1456.99 -26.561 1443.46V1443.46Z" fill="#FFBB54"/>
<path d="M0.850667 1500.93C7.64552 1508.69 14.0696 1516.77 20.1367 1525.08C18.7389 1532.77 17.3728 1540.48 16.0385 1548.24C11.878 1532.22 6.80606 1516.42 0.850667 1500.93V1500.93Z" fill="#FFBB54"/>
<path d="M20.1881 1565.57C25.3042 1574.39 30.0616 1583.37 34.3363 1592.53C32.3753 1600.7 30.4221 1608.92 28.4768 1617.21C26.6938 1599.9 23.926 1582.66 20.1881 1565.57V1565.57Z" fill="#FFBB54"/>
<path d="M30.0485 1635.83C33.3335 1645.25 36.1595 1654.75 38.5266 1664.32C35.8489 1672.94 33.226 1681.67 30.5417 1690.46C31.3989 1672.32 31.2342 1654.08 30.0485 1635.83V1635.83Z" fill="#FFBB54"/>
<path d="M29.262 1709.87C30.5696 1719.47 31.3814 1729.05 31.77 1738.55C28.3038 1747.61 24.8006 1756.75 21.2605 1765.99C24.9664 1747.53 27.638 1728.79 29.262 1709.87V1709.87Z" fill="#FFBB54"/>
<path d="M16.9194 1785.64C16.2045 1794.9 15.0307 1804.08 13.4028 1813.16C9.00631 1822.55 4.52401 1832.04 -0.0440674 1841.61C6.64233 1823.37 12.306 1804.69 16.9194 1785.64V1785.64Z" fill="#FFBB54"/>
<path d="M-2.08434 1536.32C2.64109 1542.72 7.11554 1549.3 11.3806 1555.99C10.4418 1562.04 9.45435 1568.11 8.54456 1574.23C5.52248 1561.31 1.97951 1548.68 -2.08434 1536.32Z" fill="#FFBB54"/>
<path d="M14.452 1603.89C17.8027 1611.01 20.9302 1618.2 23.7605 1625.48C22.3165 1631.99 20.8759 1638.55 19.4386 1645.16C18.3758 1631.22 16.7136 1617.46 14.452 1603.89Z" fill="#FFBB54"/>
<path d="M20.8475 1676.93C22.7292 1684.4 24.3219 1691.89 25.6256 1699.41C23.6076 1706.37 21.5291 1713.37 19.463 1720.44C20.5707 1705.86 21.0322 1691.36 20.8475 1676.93Z" fill="#FFBB54"/>
<path d="M15.8868 1753.41C16.1895 1760.91 16.209 1768.35 15.9452 1775.73C13.1795 1783.06 10.3875 1790.45 7.56934 1797.91C11.0155 1783.13 13.788 1768.29 15.8868 1753.41Z" fill="#FFBB54"/>
<path d="M-1.33595 1831.11C-2.62098 1838.26 -4.17392 1845.29 -5.99479 1852.19C-9.57832 1859.81 -13.2308 1867.48 -16.9521 1875.2C-11.0543 1860.69 -5.84889 1845.99 -1.33595 1831.11Z" fill="#FFBB54"/>
<path d="M-4.34384 1574.25C-1.67773 1578.64 0.880073 1583.09 3.32957 1587.59C2.78886 1591.61 2.24191 1595.66 1.68872 1599.72C-0.097777 1591.12 -2.10864 1582.63 -4.34384 1574.25Z" fill="#FFBB54"/>
<path d="M8.80259 1645.32C10.5291 1650.09 12.1515 1654.89 13.6699 1659.7C12.7554 1664.08 11.8499 1668.48 10.9534 1672.92C10.5142 1663.65 9.76994 1654.44 8.80259 1645.32Z" fill="#FFBB54"/>
<path d="M10.9792 1721.51C11.7388 1726.43 12.3209 1731.36 12.824 1736.27C11.5067 1740.98 10.1375 1745.7 8.76196 1750.45C9.81005 1740.79 10.5491 1731.14 10.9792 1721.51Z" fill="#FFBB54"/>
<path d="M0.965872 1800.6C0.662731 1805.45 0.257741 1810.26 -0.30222 1815.03C-2.18221 1819.99 -4.04304 1824.99 -5.98438 1830C-3.37414 1820.24 -1.05739 1810.44 0.965872 1800.6Z" fill="#FFBB54"/>
<path d="M-7.04566 1613.65C-5.94543 1615.93 -4.85022 1618.21 -3.8064 1620.5C-4.06563 1622.56 -4.27477 1624.64 -4.54968 1626.7C-5.3003 1622.32 -6.13229 1617.97 -7.04566 1613.65Z" fill="#FFBB54"/>
<path d="M2.27179 1688.49C2.89636 1690.91 3.4841 1693.34 4.07116 1695.76C3.63135 1698.02 3.18226 1700.28 2.72388 1702.55C2.63749 1697.85 2.48679 1693.16 2.27179 1688.49Z" fill="#FFBB54"/>
<path d="M-0.321198 1767.98C-0.199664 1770.43 -0.110551 1772.88 -0.0538594 1775.32C-0.743627 1777.75 -1.43357 1780.18 -2.15369 1782.62C-1.48512 1777.73 -0.856255 1772.86 -0.321198 1767.98Z" fill="#FFBB54"/>
</g>
</g>
<g opacity="0.1" filter="url(#filter4_f_17478_6201)">
<ellipse cx="-227" cy="620" rx="404" ry="311" fill="#FFBB54"/>
</g>
</g>
<defs>
<filter id="filter0_f_17478_6201" x="1044" y="475" width="1135" height="1135" filterUnits="userSpaceOnUse" color-interpolation-filters="sRGB">
<feFlood flood-opacity="0" result="BackgroundImageFix"/>
<feBlend mode="normal" in="SourceGraphic" in2="BackgroundImageFix" result="shape"/>
<feGaussianBlur stdDeviation="87" result="effect1_foregroundBlur_17478_6201"/>
</filter>
<filter id="filter1_f_17478_6201" x="993.999" y="258.301" width="1246.09" height="1134.82" filterUnits="userSpaceOnUse" color-interpolation-filters="sRGB">
<feFlood flood-opacity="0" result="BackgroundImageFix"/>
<feBlend mode="normal" in="SourceGraphic" in2="BackgroundImageFix" result="shape"/>
<feGaussianBlur stdDeviation="77" result="effect1_foregroundBlur_17478_6201"/>
</filter>
<filter id="filter2_d_17478_6201" x="-675.209" y="309" width="1091.42" height="1588.39" filterUnits="userSpaceOnUse" color-interpolation-filters="sRGB">
<feFlood flood-opacity="0" result="BackgroundImageFix"/>
<feColorMatrix in="SourceAlpha" type="matrix" values="0 0 0 0 0 0 0 0 0 0 0 0 0 0 0 0 0 0 127 0" result="hardAlpha"/>
<feOffset dy="4"/>
<feGaussianBlur stdDeviation="2"/>
<feComposite in2="hardAlpha" operator="out"/>
<feColorMatrix type="matrix" values="0 0 0 0 0 0 0 0 0 0 0 0 0 0 0 0 0 0 0.25 0"/>
<feBlend mode="normal" in2="BackgroundImageFix" result="effect1_dropShadow_17478_6201"/>
<feBlend mode="normal" in="SourceGraphic" in2="effect1_dropShadow_17478_6201" result="shape"/>
</filter>
<filter id="filter3_f_17478_6201" x="-825.209" y="646.447" width="1353.14" height="1396.95" filterUnits="userSpaceOnUse" color-interpolation-filters="sRGB">
<feFlood flood-opacity="0" result="BackgroundImageFix"/>
<feBlend mode="normal" in="SourceGraphic" in2="BackgroundImageFix" result="shape"/>
<feGaussianBlur stdDeviation="77" result="effect1_foregroundBlur_17478_6201"/>
</filter>
<filter id="filter4_f_17478_6201" x="-805" y="135" width="1156" height="970" filterUnits="userSpaceOnUse" color-interpolation-filters="sRGB">
<feFlood flood-opacity="0" result="BackgroundImageFix"/>
<feBlend mode="normal" in="SourceGraphic" in2="BackgroundImageFix" result="shape"/>
<feGaussianBlur stdDeviation="87" result="effect1_foregroundBlur_17478_6201"/>
</filter>
<clipPath id="clip0_17478_6201">
<rect width="798" height="494" fill="white" transform="translate(1864.09 1195.82) rotate(-150)"/>
</clipPath>
<clipPath id="clip1_17478_6201">
<rect width="798" height="494" fill="white" transform="translate(1839.09 1239.12) rotate(-150)"/>
</clipPath>
<clipPath id="clip2_17478_6201">
<rect width="953.139" height="556.336" fill="white" transform="matrix(-0.699706 -0.714431 0.67984 -0.733361 33.9894 1848.1)"/>
</clipPath>
<clipPath id="clip3_17478_6201">
<rect width="953.139" height="556.336" fill="white" transform="matrix(-0.699706 -0.714431 0.67984 -0.733361 -4.29175 1889.39)"/>
</clipPath>
</defs>
</svg>
