<svg width="1440" height="1181" viewBox="0 0 1440 1181" fill="none" xmlns="http://www.w3.org/2000/svg">
<g opacity="0.1" filter="url(#filter0_f_17481_6201)">
<circle cx="-127.5" cy="567.5" r="393.5" fill="#FFBB54"/>
</g>
<g opacity="0.3">
<g clip-path="url(#clip0_17481_6201)">
<path d="M1271.93 380.963C1264.68 384.174 1257.49 387.618 1250.37 391.296C1251.35 398.042 1252.48 404.681 1253.77 411.215C1259.4 400.918 1265.45 390.834 1271.93 380.963Z" fill="#FFBB54"/>
<path d="M1234.63 450.777C1228.2 455.261 1221.88 459.952 1215.66 464.85C1217.8 471.093 1220.03 477.229 1222.43 483.214C1226.05 472.275 1230.12 461.463 1234.63 450.777Z" fill="#FFBB54"/>
<path d="M1211 524.789C1205.62 530.338 1200.34 536.029 1195.25 541.935C1198.4 547.518 1201.66 552.953 1205.02 558.241C1206.58 547.052 1208.54 535.883 1211 524.789Z" fill="#FFBB54"/>
<path d="M1201.45 600.357C1197.29 606.712 1193.28 613.194 1189.41 619.804C1193.45 624.564 1197.55 629.184 1201.71 633.663C1201.18 622.604 1201.1 611.502 1201.45 600.357Z" fill="#FFBB54"/>
<path d="M1205.86 674.893C1202.99 681.762 1200.31 688.734 1197.82 695.81C1202.55 699.669 1207.34 703.368 1212.13 706.956C1209.62 696.387 1207.53 685.699 1205.86 674.893Z" fill="#FFBB54"/>
<path d="M1223.58 745.977C1222.05 753.09 1220.74 760.266 1219.64 767.505C1224.89 770.409 1230.14 773.196 1235.41 775.798C1231.09 766.044 1227.11 756.105 1223.58 745.977Z" fill="#FFBB54"/>
<path d="M1253.51 811.437C1253.33 818.518 1253.36 825.619 1253.59 832.74C1259.19 834.648 1264.75 836.479 1270.3 838.151C1264.36 829.501 1258.76 820.596 1253.51 811.437Z" fill="#FFBB54"/>
<path d="M1294.18 869.419C1295.28 876.204 1296.57 882.969 1298.05 889.712C1303.8 890.695 1309.51 891.564 1315.2 892.319C1307.9 884.991 1300.9 877.358 1294.18 869.419Z" fill="#FFBB54"/>
<path d="M1343.87 918.43C1346.11 924.681 1348.52 930.886 1351.11 937.013C1356.88 937.07 1362.6 937.098 1368.27 936.978C1359.91 931.143 1351.78 924.93 1343.87 918.43Z" fill="#FFBB54"/>
<path d="M1400.64 957.362C1403.87 962.871 1407.24 968.297 1410.75 973.64C1416.4 972.875 1422 972.059 1427.55 971.19C1418.43 966.929 1409.43 962.351 1400.64 957.362Z" fill="#FFBB54"/>
<path d="M1325.26 365.195C1317.94 367.258 1310.65 369.551 1303.4 372.075C1303.89 378.478 1304.53 384.788 1305.31 391.006C1311.6 382.156 1318.28 373.567 1325.26 365.195Z" fill="#FFBB54"/>
<path d="M1283.41 425.297C1276.69 428.696 1270.05 432.327 1263.47 436.139C1265.05 442.151 1266.77 448.047 1268.61 453.827C1273.14 444.143 1278.07 434.633 1283.41 425.297Z" fill="#FFBB54"/>
<path d="M1253.46 490.899C1247.58 495.462 1241.82 500.219 1236.16 505.17C1238.75 510.616 1241.43 515.943 1244.22 521.126C1246.89 510.961 1249.98 500.886 1253.46 490.899Z" fill="#FFBB54"/>
<path d="M1236.19 559.677C1231.33 565.177 1226.67 570.884 1222.11 576.714C1225.56 581.462 1229.08 586.081 1232.67 590.551C1233.43 580.243 1234.6 569.952 1236.19 559.677Z" fill="#FFBB54"/>
<path d="M1231.86 629.26C1228.22 635.491 1224.72 641.836 1221.41 648.313C1225.59 652.254 1229.79 656.081 1234.04 659.751C1232.91 649.645 1232.19 639.482 1231.86 629.26Z" fill="#FFBB54"/>
<path d="M1240.26 697.354C1237.88 704.02 1235.69 710.774 1233.69 717.617C1238.41 720.708 1243.14 723.665 1247.9 726.488C1244.98 716.902 1242.43 707.19 1240.26 697.354Z" fill="#FFBB54"/>
<path d="M1260.73 761.817C1259.68 768.658 1258.8 775.543 1258.1 782.471C1263.21 784.678 1268.3 786.779 1273.4 788.714C1268.79 779.956 1264.63 770.952 1260.73 761.817Z" fill="#FFBB54"/>
<path d="M1292.23 820.736C1292.44 827.48 1292.84 834.231 1293.43 840.989C1298.78 842.297 1304.09 843.542 1309.38 844.636C1303.36 836.914 1297.64 828.947 1292.23 820.736Z" fill="#FFBB54"/>
<path d="M1333.42 872.478C1334.79 878.889 1336.4 885.259 1338.17 891.59C1343.61 892.067 1349 892.456 1354.36 892.758C1347.13 886.281 1340.12 879.528 1333.42 872.478Z" fill="#FFBB54"/>
<path d="M1382.71 915.727C1385.17 921.572 1387.8 927.344 1390.61 933.043C1396.02 932.729 1401.38 932.398 1406.69 931.911C1398.49 926.844 1390.5 921.45 1382.71 915.727Z" fill="#FFBB54"/>
<path d="M1438.35 949.508C1441.74 954.588 1445.27 959.562 1448.89 964.473C1454.17 963.451 1459.4 962.382 1464.58 961.267C1455.71 957.654 1446.97 953.735 1438.35 949.508Z" fill="#FFBB54"/>
<path d="M1339.64 403.883C1329.87 406.879 1320.18 410.374 1310.58 414.274C1312.15 422.411 1313.97 430.338 1316.05 438.056C1323.27 426.237 1331.15 414.828 1339.64 403.883Z" fill="#FFBB54"/>
<path d="M1303.99 459.389C1295.09 464.196 1286.3 469.386 1277.73 475.031C1280.65 482.514 1283.78 489.752 1287.13 496.746C1292.05 483.988 1297.68 471.516 1303.99 459.389Z" fill="#FFBB54"/>
<path d="M1279.22 519.593C1271.47 525.923 1263.97 532.665 1256.71 539.738C1260.82 546.378 1265.13 552.741 1269.54 558.854C1272 545.589 1275.24 532.48 1279.22 519.593Z" fill="#FFBB54"/>
<path d="M1265.99 582.442C1259.69 590.043 1253.68 597.951 1247.97 606.167C1253.12 611.801 1258.37 617.178 1263.7 622.296C1263.69 608.977 1264.46 595.67 1265.99 582.442Z" fill="#FFBB54"/>
<path d="M1264.53 645.847C1259.85 654.371 1255.52 663.128 1251.53 672.119C1257.49 676.673 1263.5 680.968 1269.55 685.004C1267.12 672.058 1265.44 658.984 1264.53 645.847Z" fill="#FFBB54"/>
<path d="M1274.64 707.775C1271.72 716.863 1269.18 726.119 1266.96 735.494C1273.54 738.893 1280.08 742.126 1286.66 745.022C1281.94 732.847 1277.93 720.41 1274.64 707.775Z" fill="#FFBB54"/>
<path d="M1295.77 766.32C1294.6 775.597 1293.86 784.965 1293.45 794.377C1300.42 796.655 1307.36 798.714 1314.26 800.553C1307.43 789.509 1301.26 778.079 1295.77 766.32Z" fill="#FFBB54"/>
<path d="M1327.01 819.766C1327.57 828.881 1328.52 837.987 1329.87 847.087C1337.06 848.244 1344.19 849.223 1351.25 850.023C1342.61 840.402 1334.51 830.3 1327.01 819.766Z" fill="#FFBB54"/>
<path d="M1367.18 866.629C1369.38 875.238 1371.93 883.768 1374.82 892.218C1382.08 892.308 1389.25 892.274 1396.34 892.116C1386.16 884.16 1376.43 875.651 1367.18 866.629Z" fill="#FFBB54"/>
<path d="M1414.9 905.688C1418.53 913.5 1422.48 921.159 1426.75 928.667C1433.93 927.808 1441.02 926.847 1448.03 925.782C1436.64 919.675 1425.58 912.967 1414.9 905.688Z" fill="#FFBB54"/>
<path d="M1395.36 393.261C1383.1 394.819 1370.94 397.08 1358.95 400.035C1360.18 409.663 1361.82 418.992 1363.87 428.021C1373.55 415.716 1384.07 404.102 1395.36 393.261Z" fill="#FFBB54"/>
<path d="M1356.12 438.276C1344.49 442.169 1333.1 446.721 1322 451.912C1324.85 460.863 1328.03 469.465 1331.53 477.719C1338.78 464.007 1347 450.826 1356.12 438.276Z" fill="#FFBB54"/>
<path d="M1325.79 489.087C1315.26 495.122 1305.06 501.733 1295.25 508.89C1299.54 516.946 1304.08 524.616 1308.88 531.899C1313.49 517.243 1319.15 502.936 1325.79 489.087Z" fill="#FFBB54"/>
<path d="M1305.34 544.005C1296.27 551.864 1287.63 560.221 1279.48 569.037C1285.02 576.019 1290.73 582.6 1296.62 588.78C1298.44 573.661 1301.35 558.696 1305.34 544.005Z" fill="#FFBB54"/>
<path d="M1295.37 601.227C1288.07 610.559 1281.28 620.286 1275.05 630.363C1281.63 636.132 1288.29 641.518 1295.04 646.522C1294.05 631.434 1294.16 616.295 1295.37 601.227Z" fill="#FFBB54"/>
<path d="M1296.1 658.913C1290.8 669.308 1286.06 679.984 1281.92 690.892C1289.28 695.411 1296.69 699.531 1304.09 703.305C1300.34 688.721 1297.67 673.884 1296.1 658.913Z" fill="#FFBB54"/>
<path d="M1307.41 715.256C1304.25 726.28 1301.67 737.46 1299.67 748.752C1307.61 751.976 1315.53 754.827 1323.39 757.389C1317.06 743.744 1311.72 729.663 1307.41 715.256Z" fill="#FFBB54"/>
<path d="M1328.83 768.545C1327.82 779.74 1327.4 790.98 1327.56 802.221C1335.86 804.183 1344.11 805.786 1352.24 807.179C1343.54 794.868 1335.72 781.958 1328.83 768.545Z" fill="#FFBB54"/>
<path d="M1359.63 817.212C1360.72 828.106 1362.36 838.962 1364.55 849.779C1373.05 850.482 1381.43 850.972 1389.69 851.246C1378.89 840.614 1368.85 829.242 1359.63 817.212Z" fill="#FFBB54"/>
<path d="M1398.79 859.881C1401.82 870.119 1405.36 880.208 1409.41 890.148C1417.94 889.747 1426.33 889.159 1434.59 888.383C1422.03 879.695 1410.07 870.173 1398.79 859.881Z" fill="#FFBB54"/>
<path d="M1445.12 895.387C1449.9 904.587 1455.1 913.561 1460.71 922.307C1469.14 920.886 1477.43 919.273 1485.6 917.606C1471.64 911.082 1458.12 903.659 1445.12 895.387Z" fill="#FFBB54"/>
<path d="M1407.31 427.613C1394.13 429.637 1381.1 432.542 1368.31 436.309C1370.68 445.613 1373.56 454.782 1376.93 463.775C1386.09 450.94 1396.25 438.849 1407.31 427.613Z" fill="#FFBB54"/>
<path d="M1373.47 468.736C1361.05 473.289 1348.94 478.652 1337.23 484.792C1341.1 493.264 1345.43 501.523 1350.19 509.535C1356.84 495.334 1364.63 481.69 1373.47 468.736Z" fill="#FFBB54"/>
<path d="M1347.69 515.013C1336.51 521.854 1325.79 529.41 1315.58 537.633C1320.79 545.089 1326.37 552.275 1332.32 559.161C1336.23 544.05 1341.38 529.285 1347.69 515.013Z" fill="#FFBB54"/>
<path d="M1330.88 564.98C1321.35 573.78 1312.39 583.175 1304.06 593.109C1310.54 599.578 1317.16 605.568 1323.92 611.081C1324.96 595.546 1327.28 580.126 1330.88 564.98Z" fill="#FFBB54"/>
<path d="M1323.59 617.057C1316.04 627.411 1309.15 638.226 1302.96 649.44C1310.36 654.639 1317.84 659.351 1325.31 663.666C1323.47 648.2 1322.9 632.612 1323.59 617.057Z" fill="#FFBB54"/>
<path d="M1326.09 669.615C1320.76 681.071 1316.14 692.841 1312.25 704.859C1320.34 708.752 1328.41 712.229 1336.45 715.29C1331.74 700.375 1328.28 685.097 1326.09 669.615Z" fill="#FFBB54"/>
<path d="M1338.33 721.03C1335.35 733.101 1333.1 745.339 1331.58 757.679C1340.15 760.294 1348.66 762.486 1357.06 764.382C1349.66 750.457 1343.39 735.959 1338.33 721.03Z" fill="#FFBB54"/>
<path d="M1359.97 769.738C1359.36 781.929 1359.47 794.147 1360.29 806.329C1369.17 807.676 1377.92 808.723 1386.54 809.469C1376.64 796.955 1367.76 783.668 1359.97 769.738Z" fill="#FFBB54"/>
<path d="M1390.42 814.282C1392.11 826.113 1394.47 837.841 1397.48 849.408C1406.5 849.57 1415.37 849.469 1424.09 849.217C1411.98 838.454 1400.73 826.774 1390.42 814.282Z" fill="#FFBB54"/>
<path d="M1428.83 853.346C1432.62 864.375 1437.03 875.182 1442.03 885.716C1451.07 884.777 1459.95 883.693 1468.68 882.463C1454.69 873.766 1441.37 864.033 1428.83 853.346Z" fill="#FFBB54"/>
<path d="M1456.59 426.231C1442.82 425.938 1429.05 426.679 1415.4 428.449C1417.29 437.735 1419.74 446.898 1422.74 455.888C1433.16 445.06 1444.49 435.139 1456.59 426.231Z" fill="#FFBB54"/>
<path d="M1421.07 457.637C1407.63 460.099 1394.38 463.539 1381.44 467.931C1384.81 476.463 1388.7 484.78 1393.09 492.837C1401.38 480.314 1410.74 468.537 1421.07 457.637Z" fill="#FFBB54"/>
<path d="M1391.76 494.859C1379.17 499.911 1366.97 505.862 1355.24 512.665C1359.95 520.258 1365.1 527.571 1370.65 534.566C1376.52 520.739 1383.58 507.452 1391.76 494.859Z" fill="#FFBB54"/>
<path d="M1369.72 536.799C1358.49 544.185 1347.79 552.355 1337.71 561.248C1343.56 567.778 1349.76 573.976 1356.3 579.813C1359.5 565.104 1363.99 550.71 1369.72 536.799Z" fill="#FFBB54"/>
<path d="M1355.8 582.19C1346.34 591.56 1337.54 601.572 1329.46 612.153C1336.25 617.536 1343.32 622.556 1350.64 627.194C1351.01 612.066 1352.74 597.005 1355.8 582.19Z" fill="#FFBB54"/>
<path d="M1350.59 629.643C1343.24 640.563 1336.63 651.972 1330.82 663.791C1338.56 668.07 1346.31 671.871 1354 675.255C1351.51 660.18 1350.37 644.916 1350.59 629.643Z" fill="#FFBB54"/>
<path d="M1354.42 677.698C1349.4 689.695 1345.19 702.013 1341.81 714.571C1350.1 717.635 1358.33 720.252 1366.46 722.509C1361.13 707.955 1357.1 692.959 1354.42 677.698Z" fill="#FFBB54"/>
<path d="M1367.33 724.87C1364.76 737.428 1363.02 750.144 1362.14 762.936C1370.82 764.793 1379.38 766.268 1387.8 767.491C1379.75 753.907 1372.9 739.646 1367.33 724.87Z" fill="#FFBB54"/>
<path d="M1389.12 769.699C1389.04 782.309 1389.76 794.912 1391.28 807.434C1400.2 808.132 1408.97 808.589 1417.58 808.805C1407.01 796.598 1397.48 783.516 1389.12 769.699Z" fill="#FFBB54"/>
<path d="M1419.32 810.788C1421.61 822.944 1424.66 834.948 1428.44 846.73C1437.5 846.388 1446.39 845.86 1455.12 845.147C1442.27 834.69 1430.29 823.198 1419.32 810.788Z" fill="#FFBB54"/>
<path d="M1467.53 455.097C1453.86 455.202 1440.23 456.377 1426.76 458.61C1429.6 466.793 1433 474.776 1436.92 482.505C1446.29 472.481 1456.53 463.31 1467.53 455.097Z" fill="#FFBB54"/>
<path d="M1436.36 483.111C1423.1 485.949 1410.08 489.812 1397.42 494.666C1401.52 502.013 1406.1 509.08 1411.14 515.821C1418.53 504.168 1426.97 493.219 1436.36 483.111Z" fill="#FFBB54"/>
<path d="M1410.7 516.522C1398.37 521.938 1386.48 528.284 1375.12 535.505C1380.33 541.888 1385.93 547.941 1391.88 553.629C1397 540.708 1403.3 528.286 1410.7 516.522Z" fill="#FFBB54"/>
<path d="M1391.58 554.41C1380.68 562.132 1370.38 570.654 1360.75 579.904C1366.89 585.24 1373.32 590.228 1380.01 594.843C1382.61 581.034 1386.48 567.499 1391.58 554.41Z" fill="#FFBB54"/>
<path d="M1379.86 595.68C1370.81 605.343 1362.48 615.649 1354.92 626.519C1361.8 630.788 1368.89 634.697 1376.17 638.228C1376.06 623.959 1377.29 609.713 1379.86 595.68Z" fill="#FFBB54"/>
<path d="M1376.18 639.094C1369.3 650.252 1363.23 661.887 1358 673.911C1365.66 677.19 1373.27 680.001 1380.78 682.448C1377.91 668.168 1376.37 653.654 1376.18 639.094Z" fill="#FFBB54"/>
<path d="M1380.96 683.317C1376.47 695.482 1372.84 707.945 1370.08 720.616C1378.18 722.798 1386.15 724.631 1394.01 726.116C1388.35 712.281 1383.98 697.953 1380.96 683.317Z" fill="#FFBB54"/>
<path d="M1394.35 726.959C1392.37 739.609 1391.25 752.38 1391 765.185C1399.41 766.342 1407.67 767.197 1415.77 767.819C1407.42 754.866 1400.25 741.191 1394.35 726.959Z" fill="#FFBB54"/>
<path d="M1416.28 768.609C1416.8 781.22 1418.15 793.784 1420.34 806.218C1428.96 806.388 1437.42 806.377 1445.73 806.184C1434.84 794.536 1424.99 781.964 1416.28 768.609Z" fill="#FFBB54"/>
<path d="M1446.39 806.896C1449.3 818.959 1453 830.822 1457.44 842.409C1466.21 841.684 1474.84 840.846 1483.32 839.895C1470.1 829.951 1457.75 818.913 1446.39 806.896Z" fill="#FFBB54"/>
<path d="M1479.33 479.59C1466.64 480.125 1454.02 481.646 1441.57 484.138C1444.98 490.654 1448.82 496.933 1453.07 502.931C1461.12 494.392 1469.91 486.582 1479.33 479.59Z" fill="#FFBB54"/>
<path d="M1451.67 504.434C1439.46 507.541 1427.5 511.569 1415.89 516.484C1420.25 522.183 1424.96 527.593 1430.02 532.678C1436.37 522.628 1443.62 513.175 1451.67 504.434Z" fill="#FFBB54"/>
<path d="M1428.92 534.45C1417.67 539.94 1406.85 546.266 1396.56 553.374C1401.71 558.202 1407.15 562.709 1412.86 566.868C1417.2 555.588 1422.57 544.735 1428.92 534.45Z" fill="#FFBB54"/>
<path d="M1412.11 568.853C1402.29 576.464 1393.04 584.786 1384.44 593.751C1390.26 597.675 1396.29 601.276 1402.51 604.538C1404.59 592.369 1407.81 580.423 1412.11 568.853Z" fill="#FFBB54"/>
<path d="M1402.15 606.686C1394.14 616.061 1386.82 625.997 1380.23 636.417C1386.76 639.522 1393.26 642.226 1399.69 644.569C1399.33 631.89 1400.15 619.208 1402.15 606.686Z" fill="#FFBB54"/>
<path d="M1399.76 646.811C1393.86 657.521 1388.72 668.628 1384.36 680.053C1391.31 682.27 1398.18 684.127 1404.92 685.703C1402.01 672.923 1400.29 659.904 1399.76 646.811Z" fill="#FFBB54"/>
<path d="M1405.45 687.967C1401.85 699.536 1399.04 711.336 1397.04 723.286C1404.32 724.638 1411.47 725.741 1418.49 726.596C1412.99 714.138 1408.62 701.209 1405.45 687.967Z" fill="#FFBB54"/>
<path d="M1419.48 728.807C1418.27 740.733 1417.85 752.728 1418.23 764.713C1425.77 765.272 1433.17 765.651 1440.44 765.849C1432.38 754.137 1425.37 741.742 1419.48 728.807Z" fill="#FFBB54"/>
<path d="M1441.88 767.929C1443.02 779.716 1444.94 791.416 1447.63 802.952C1455.4 802.778 1463.03 802.481 1470.53 802.062C1460.03 791.519 1450.44 780.1 1441.88 767.929Z" fill="#FFBB54"/>
<path d="M1467.2 521.385C1456.43 524.614 1445.91 528.608 1435.72 533.338C1439.89 537.381 1444.32 541.159 1448.97 544.649C1454.36 536.381 1460.46 528.597 1467.2 521.385Z" fill="#FFBB54"/>
<path d="M1446.59 548.414C1436.8 553.777 1427.39 559.812 1418.43 566.475C1423.15 569.784 1428.04 572.832 1433.09 575.605C1436.77 566.156 1441.29 557.056 1446.59 548.414Z" fill="#FFBB54"/>
<path d="M1431.48 579.903C1423.06 587.122 1415.14 594.909 1407.77 603.208C1413.07 605.887 1418.35 608.233 1423.57 610.262C1425.3 599.926 1427.95 589.766 1431.48 579.903Z" fill="#FFBB54"/>
<path d="M1422.84 614.967C1416.13 623.706 1410 632.886 1404.51 642.446C1410.16 644.434 1415.75 646.108 1421.24 647.569C1420.81 636.674 1421.35 625.764 1422.84 614.967Z" fill="#FFBB54"/>
<path d="M1421.5 652.529C1416.75 662.394 1412.65 672.556 1409.22 682.953C1415.16 684.288 1421 685.405 1426.74 686.303C1424.01 675.217 1422.26 663.916 1421.5 652.529Z" fill="#FFBB54"/>
<path d="M1428.04 691.353C1425.43 701.902 1423.48 712.603 1422.2 723.396C1428.4 724.112 1434.49 724.689 1440.47 725.126C1435.38 714.239 1431.22 702.94 1428.04 691.353Z" fill="#FFBB54"/>
<path d="M1442.86 730.082C1442.42 740.848 1442.65 751.632 1443.55 762.373C1450 762.546 1456.34 762.623 1462.57 762.604C1455.12 752.321 1448.53 741.444 1442.86 730.082Z" fill="#FFBB54"/>
<path d="M1449.06 588.384C1442.43 594.763 1436.19 601.527 1430.35 608.64C1434.56 610.156 1438.72 611.477 1442.82 612.6C1444.25 604.373 1446.33 596.274 1449.06 588.384Z" fill="#FFBB54"/>
<path d="M1441.53 621.468C1436.42 629.054 1431.74 636.925 1427.52 645.044C1431.94 646.114 1436.29 647.034 1440.57 647.804C1440.2 639.013 1440.53 630.207 1441.53 621.468Z" fill="#FFBB54"/>
<path d="M1441.23 657.258C1437.82 665.698 1434.89 674.321 1432.43 683.086C1437.06 683.77 1441.61 684.339 1446.09 684.792C1443.77 675.75 1442.15 666.545 1441.23 657.258Z" fill="#FFBB54"/>
<path d="M1448.85 694.488C1447.26 703.401 1446.16 712.393 1445.55 721.425C1450.4 721.745 1455.18 721.981 1459.88 722.183C1455.53 713.235 1451.84 703.978 1448.85 694.488Z" fill="#FFBB54"/>
</g>
<g opacity="0.4" clip-path="url(#clip1_17481_6201)" filter="url(#filter1_f_17481_6201)">
<path d="M1307.28 345.607C1300.03 348.818 1292.85 352.263 1285.73 355.941C1286.7 362.687 1287.83 369.326 1289.12 375.859C1294.75 365.563 1300.81 355.479 1307.28 345.607Z" fill="#FFBB54"/>
<path d="M1269.99 415.422C1263.56 419.906 1257.23 424.597 1251.01 429.495C1253.16 435.738 1255.39 441.873 1257.79 447.858C1261.41 436.92 1265.47 426.108 1269.99 415.422Z" fill="#FFBB54"/>
<path d="M1246.35 489.434C1240.98 494.983 1235.69 500.674 1230.6 506.579C1233.75 512.163 1237.01 517.598 1240.38 522.885C1241.93 511.696 1243.9 500.528 1246.35 489.434Z" fill="#FFBB54"/>
<path d="M1236.81 565.002C1232.65 571.356 1228.63 577.839 1224.76 584.449C1228.81 589.209 1232.91 593.828 1237.06 598.308C1236.54 587.248 1236.45 576.146 1236.81 565.002Z" fill="#FFBB54"/>
<path d="M1241.22 639.538C1238.34 646.406 1235.66 653.378 1233.18 660.454C1237.91 664.313 1242.69 668.012 1247.48 671.6C1244.98 661.031 1242.89 650.344 1241.22 639.538Z" fill="#FFBB54"/>
<path d="M1258.93 710.622C1257.41 717.735 1256.1 724.911 1255 732.15C1260.25 735.053 1265.49 737.841 1270.77 740.443C1266.45 730.688 1262.46 720.75 1258.93 710.622Z" fill="#FFBB54"/>
<path d="M1288.86 776.082C1288.69 783.163 1288.72 790.263 1288.95 797.384C1294.54 799.293 1300.1 801.124 1305.66 802.796C1299.71 794.145 1294.11 785.241 1288.86 776.082Z" fill="#FFBB54"/>
<path d="M1329.54 834.064C1330.63 840.849 1331.92 847.613 1333.4 854.357C1339.15 855.339 1344.87 856.208 1350.55 856.963C1343.26 849.636 1336.25 842.003 1329.54 834.064Z" fill="#FFBB54"/>
<path d="M1379.22 883.074C1381.47 889.326 1383.87 895.53 1386.47 901.658C1392.23 901.715 1397.95 901.742 1403.63 901.622C1395.26 895.788 1387.13 889.575 1379.22 883.074Z" fill="#FFBB54"/>
<path d="M1436 922.007C1439.23 927.516 1442.6 932.942 1446.1 938.284C1451.75 937.52 1457.35 936.703 1462.9 935.835C1453.78 931.574 1444.79 926.996 1436 922.007Z" fill="#FFBB54"/>
<path d="M1360.61 329.84C1353.3 331.902 1346.01 334.195 1338.75 336.719C1339.25 343.122 1339.89 349.433 1340.67 355.65C1346.95 346.801 1353.64 338.211 1360.61 329.84Z" fill="#FFBB54"/>
<path d="M1318.77 389.942C1312.05 393.34 1305.41 396.972 1298.82 400.784C1300.41 406.795 1302.12 412.691 1303.97 418.471C1308.5 408.787 1313.43 399.278 1318.77 389.942Z" fill="#FFBB54"/>
<path d="M1288.82 455.544C1282.94 460.107 1277.17 464.864 1271.51 469.814C1274.11 475.26 1276.78 480.587 1279.57 485.77C1282.25 475.606 1285.33 465.53 1288.82 455.544Z" fill="#FFBB54"/>
<path d="M1271.54 524.321C1266.69 529.822 1262.02 535.529 1257.46 541.359C1260.92 546.107 1264.43 550.726 1268.03 555.195C1268.78 544.888 1269.96 534.596 1271.54 524.321Z" fill="#FFBB54"/>
<path d="M1267.21 593.905C1263.58 600.136 1260.07 606.48 1256.77 612.958C1260.94 616.898 1265.14 620.726 1269.4 624.396C1268.27 614.29 1267.54 604.126 1267.21 593.905Z" fill="#FFBB54"/>
<path d="M1275.62 661.999C1273.24 668.664 1271.05 675.419 1269.05 682.261C1273.76 685.353 1278.5 688.31 1283.25 691.133C1280.33 681.546 1277.79 671.835 1275.62 661.999Z" fill="#FFBB54"/>
<path d="M1296.09 726.461C1295.04 733.303 1294.16 740.187 1293.45 747.115C1298.56 749.322 1303.66 751.424 1308.76 753.358C1304.15 744.601 1299.98 735.596 1296.09 726.461Z" fill="#FFBB54"/>
<path d="M1327.59 785.38C1327.8 792.125 1328.19 798.876 1328.79 805.634C1334.13 806.942 1339.44 808.186 1344.73 809.28C1338.71 801.558 1333 793.592 1327.59 785.38Z" fill="#FFBB54"/>
<path d="M1368.77 837.122C1370.14 843.534 1371.75 849.903 1373.53 856.235C1378.96 856.711 1384.36 857.101 1389.72 857.402C1382.49 850.926 1375.48 844.173 1368.77 837.122Z" fill="#FFBB54"/>
<path d="M1418.06 880.372C1420.52 886.217 1423.16 891.989 1425.97 897.688C1431.37 897.373 1436.74 897.043 1442.04 896.556C1433.85 891.489 1425.85 886.094 1418.06 880.372Z" fill="#FFBB54"/>
<path d="M1375 368.528C1365.23 371.524 1355.54 375.018 1345.93 378.919C1347.5 387.056 1349.33 394.983 1351.41 402.701C1358.63 390.881 1366.5 379.473 1375 368.528Z" fill="#FFBB54"/>
<path d="M1339.35 424.034C1330.44 428.841 1321.66 434.03 1313.09 439.676C1316 447.159 1319.13 454.397 1322.48 461.39C1327.4 448.632 1333.03 436.161 1339.35 424.034Z" fill="#FFBB54"/>
<path d="M1314.58 484.238C1306.82 490.567 1299.32 497.31 1292.06 504.382C1296.18 511.022 1300.48 517.386 1304.9 523.499C1307.36 510.234 1310.59 497.125 1314.58 484.238Z" fill="#FFBB54"/>
<path d="M1301.34 547.087C1295.04 554.688 1289.04 562.596 1283.33 570.811C1288.48 576.446 1293.72 581.822 1299.05 586.94C1299.05 573.622 1299.82 560.315 1301.34 547.087Z" fill="#FFBB54"/>
<path d="M1299.88 610.492C1295.21 619.016 1290.88 627.773 1286.89 636.763C1292.85 641.318 1298.85 645.613 1304.9 649.649C1302.48 636.703 1300.8 623.629 1299.88 610.492Z" fill="#FFBB54"/>
<path d="M1310 672.42C1307.07 681.508 1304.53 690.763 1302.32 700.139C1308.89 703.538 1315.44 706.771 1322.02 709.666C1317.3 697.491 1313.28 685.055 1310 672.42Z" fill="#FFBB54"/>
<path d="M1331.12 730.965C1329.95 740.242 1329.21 749.609 1328.8 759.022C1335.78 761.3 1342.71 763.358 1349.61 765.198C1342.79 754.154 1336.62 742.723 1331.12 730.965Z" fill="#FFBB54"/>
<path d="M1362.36 784.41C1362.93 793.525 1363.88 802.632 1365.22 811.731C1372.42 812.888 1379.54 813.867 1386.61 814.668C1377.96 805.047 1369.87 794.945 1362.36 784.41Z" fill="#FFBB54"/>
<path d="M1402.53 831.273C1404.74 839.882 1407.29 848.412 1410.18 856.862C1417.43 856.953 1424.61 856.919 1431.69 856.761C1421.52 848.804 1411.78 840.295 1402.53 831.273Z" fill="#FFBB54"/>
<path d="M1430.72 357.906C1418.46 359.463 1406.3 361.725 1394.3 364.679C1395.54 374.308 1397.18 383.637 1399.23 392.666C1408.9 380.361 1419.43 368.746 1430.72 357.906Z" fill="#FFBB54"/>
<path d="M1391.48 402.921C1379.85 406.813 1368.46 411.366 1357.35 416.556C1360.2 425.507 1363.38 434.11 1366.88 442.364C1374.14 428.651 1382.36 415.471 1391.48 402.921Z" fill="#FFBB54"/>
<path d="M1361.15 453.731C1350.61 459.767 1340.42 466.378 1330.61 473.535C1334.89 481.59 1339.44 489.26 1344.24 496.544C1348.85 481.888 1354.5 467.581 1361.15 453.731Z" fill="#FFBB54"/>
<path d="M1340.7 508.649C1331.62 516.509 1322.99 524.866 1314.84 533.681C1320.37 540.664 1326.08 547.245 1331.97 553.424C1333.79 538.305 1336.71 523.341 1340.7 508.649Z" fill="#FFBB54"/>
<path d="M1330.72 565.871C1323.42 575.204 1316.64 584.93 1310.41 595.008C1316.98 600.776 1323.65 606.163 1330.39 611.167C1329.4 596.078 1329.51 580.94 1330.72 565.871Z" fill="#FFBB54"/>
<path d="M1331.45 623.557C1326.15 633.953 1321.42 644.628 1317.27 655.537C1324.63 660.056 1332.04 664.176 1339.45 667.949C1335.7 653.366 1333.03 638.528 1331.45 623.557Z" fill="#FFBB54"/>
<path d="M1342.76 679.901C1339.61 690.924 1337.02 702.105 1335.02 713.397C1342.96 716.62 1350.89 719.472 1358.74 722.034C1352.42 708.388 1347.07 694.308 1342.76 679.901Z" fill="#FFBB54"/>
<path d="M1364.19 733.19C1363.18 744.384 1362.75 755.625 1362.91 766.866C1371.22 768.827 1379.46 770.431 1387.6 771.824C1378.89 759.513 1371.07 746.602 1364.19 733.19Z" fill="#FFBB54"/>
<path d="M1394.98 781.856C1396.07 792.751 1397.71 803.607 1399.91 814.423C1408.41 815.127 1416.79 815.616 1425.05 815.891C1414.25 805.259 1404.2 793.886 1394.98 781.856Z" fill="#FFBB54"/>
<path d="M1434.15 824.526C1437.18 834.763 1440.72 844.852 1444.77 854.793C1453.29 854.392 1461.68 853.803 1469.94 853.027C1457.39 844.339 1445.43 834.817 1434.15 824.526Z" fill="#FFBB54"/>
<path d="M1442.67 392.258C1429.49 394.282 1416.46 397.187 1403.67 400.953C1406.04 410.257 1408.91 419.426 1412.28 428.419C1421.44 415.585 1431.6 403.494 1442.67 392.258Z" fill="#FFBB54"/>
<path d="M1408.82 433.381C1396.4 437.933 1384.3 443.297 1372.58 449.437C1376.46 457.909 1380.79 466.168 1385.54 474.18C1392.2 459.978 1399.98 446.335 1408.82 433.381Z" fill="#FFBB54"/>
<path d="M1383.05 479.658C1371.87 486.499 1361.14 494.054 1350.94 502.277C1356.14 509.734 1361.73 516.92 1367.67 523.806C1371.59 508.694 1376.73 493.929 1383.05 479.658Z" fill="#FFBB54"/>
<path d="M1366.23 529.624C1356.71 538.425 1347.75 547.82 1339.41 557.753C1345.9 564.222 1352.52 570.213 1359.28 575.726C1360.31 560.19 1362.64 544.77 1366.23 529.624Z" fill="#FFBB54"/>
<path d="M1358.94 581.701C1351.4 592.055 1344.51 602.871 1338.31 614.085C1345.71 619.284 1353.19 623.996 1360.66 628.311C1358.83 612.844 1358.25 597.256 1358.94 581.701Z" fill="#FFBB54"/>
<path d="M1361.44 634.259C1356.12 645.715 1351.5 657.485 1347.6 669.504C1355.7 673.396 1363.77 676.874 1371.81 679.935C1367.1 665.019 1363.63 649.742 1361.44 634.259Z" fill="#FFBB54"/>
<path d="M1373.68 685.675C1370.71 697.746 1368.46 709.984 1366.93 722.324C1375.51 724.939 1384.02 727.13 1392.41 729.027C1385.01 715.102 1378.75 700.604 1373.68 685.675Z" fill="#FFBB54"/>
<path d="M1395.33 734.383C1394.72 746.574 1394.82 758.792 1395.65 770.973C1404.52 772.321 1413.27 773.368 1421.89 774.113C1411.99 761.599 1403.11 748.313 1395.33 734.383Z" fill="#FFBB54"/>
<path d="M1425.78 778.926C1427.46 790.758 1429.82 802.485 1432.84 814.052C1441.85 814.214 1450.72 814.113 1459.44 813.861C1447.34 803.099 1436.08 791.419 1425.78 778.926Z" fill="#FFBB54"/>
<path d="M1456.43 422.282C1442.98 424.743 1429.74 428.184 1416.79 432.575C1420.16 441.107 1424.05 449.425 1428.44 457.481C1436.73 444.959 1446.1 433.181 1456.43 422.282Z" fill="#FFBB54"/>
<path d="M1427.11 459.503C1414.53 464.556 1402.32 470.507 1390.59 477.31C1395.3 484.902 1400.45 492.215 1406.01 499.211C1411.87 485.383 1418.93 472.097 1427.11 459.503Z" fill="#FFBB54"/>
<path d="M1405.08 501.443C1393.84 508.829 1383.14 516.999 1373.06 525.892C1378.91 532.422 1385.12 538.62 1391.66 544.458C1394.85 529.749 1399.34 515.354 1405.08 501.443Z" fill="#FFBB54"/>
<path d="M1391.16 546.834C1381.7 556.205 1372.9 566.217 1364.82 576.798C1371.61 582.18 1378.68 587.201 1385.99 591.839C1386.37 576.711 1388.1 561.649 1391.16 546.834Z" fill="#FFBB54"/>
<path d="M1385.95 594.287C1378.59 605.208 1371.99 616.617 1366.18 628.435C1373.92 632.714 1381.67 636.515 1389.36 639.9C1386.87 624.825 1385.72 609.56 1385.95 594.287Z" fill="#FFBB54"/>
<path d="M1389.77 642.342C1384.76 654.339 1380.54 666.657 1377.16 679.216C1385.45 682.28 1393.69 684.897 1401.81 687.154C1396.48 672.6 1392.45 657.604 1389.77 642.342Z" fill="#FFBB54"/>
<path d="M1402.69 689.514C1400.11 702.072 1398.38 714.789 1397.49 727.58C1406.17 729.438 1414.74 730.913 1423.16 732.135C1415.1 718.552 1408.25 704.29 1402.69 689.514Z" fill="#FFBB54"/>
<path d="M1424.48 734.344C1424.4 746.954 1425.12 759.557 1426.63 772.079C1435.55 772.777 1444.32 773.234 1452.94 773.449C1442.36 761.243 1432.84 748.161 1424.48 734.344Z" fill="#FFBB54"/>
<path d="M1471.71 447.755C1458.45 450.593 1445.43 454.457 1432.77 459.311C1436.87 466.658 1441.46 473.725 1446.5 480.465C1453.88 468.812 1462.32 457.863 1471.71 447.755Z" fill="#FFBB54"/>
<path d="M1446.05 481.166C1433.73 486.582 1421.84 492.928 1410.48 500.149C1415.68 506.533 1421.28 512.586 1427.24 518.274C1432.36 505.352 1438.66 492.931 1446.05 481.166Z" fill="#FFBB54"/>
<path d="M1426.93 519.054C1416.04 526.777 1405.74 535.298 1396.11 544.548C1402.24 549.885 1408.67 554.872 1415.37 559.488C1417.96 545.679 1421.83 532.143 1426.93 519.054Z" fill="#FFBB54"/>
<path d="M1415.21 560.325C1406.17 569.987 1397.83 580.294 1390.28 591.163C1397.15 595.433 1404.25 599.342 1411.53 602.873C1411.41 588.603 1412.64 574.357 1415.21 560.325Z" fill="#FFBB54"/>
<path d="M1411.54 603.738C1404.66 614.896 1398.58 626.532 1393.36 638.555C1401.01 641.835 1408.63 644.645 1416.14 647.093C1413.26 632.812 1411.72 618.299 1411.54 603.738Z" fill="#FFBB54"/>
<path d="M1416.31 647.962C1411.83 660.127 1408.2 672.59 1405.44 685.261C1413.53 687.442 1421.51 689.276 1429.36 690.761C1423.7 676.925 1419.33 662.598 1416.31 647.962Z" fill="#FFBB54"/>
<path d="M1429.71 691.603C1427.73 704.253 1426.61 717.025 1426.36 729.829C1434.76 730.987 1443.02 731.841 1451.12 732.463C1442.78 719.511 1435.61 705.836 1429.71 691.603Z" fill="#FFBB54"/>
<path d="M1451.63 733.254C1452.15 745.865 1453.51 758.429 1455.7 770.863C1464.32 771.033 1472.78 771.021 1481.08 770.829C1470.2 759.181 1460.34 746.608 1451.63 733.254Z" fill="#FFBB54"/>
<path d="M1464.27 499.094C1453.03 504.585 1442.21 510.911 1431.91 518.019C1437.06 522.847 1442.51 527.353 1448.22 531.512C1452.56 520.232 1457.93 509.38 1464.27 499.094Z" fill="#FFBB54"/>
<path d="M1447.46 533.497C1437.64 541.108 1428.4 549.43 1419.8 558.396C1425.62 562.319 1431.65 565.92 1437.86 569.182C1439.95 557.014 1443.16 545.067 1447.46 533.497Z" fill="#FFBB54"/>
<path d="M1437.51 571.331C1429.5 580.706 1422.17 590.641 1415.58 601.062C1422.12 604.167 1428.62 606.87 1435.04 609.213C1434.68 596.535 1435.51 583.852 1437.51 571.331Z" fill="#FFBB54"/>
<path d="M1435.12 611.456C1429.22 622.165 1424.07 633.273 1419.71 644.697C1426.66 646.915 1433.53 648.772 1440.28 650.348C1437.37 637.567 1435.64 624.548 1435.12 611.456Z" fill="#FFBB54"/>
<path d="M1440.8 652.612C1437.21 664.18 1434.4 675.98 1432.4 687.931C1439.68 689.283 1446.83 690.386 1453.85 691.24C1448.34 678.783 1443.98 665.854 1440.8 652.612Z" fill="#FFBB54"/>
<path d="M1454.84 693.452C1453.63 705.378 1453.21 717.373 1453.59 729.357C1461.13 729.917 1468.53 730.295 1475.79 730.494C1467.74 718.781 1460.73 706.386 1454.84 693.452Z" fill="#FFBB54"/>
<path d="M1458.2 579.611C1451.48 588.35 1445.36 597.53 1439.87 607.09C1445.52 609.079 1451.11 610.753 1456.59 612.214C1456.16 601.318 1456.7 590.408 1458.2 579.611Z" fill="#FFBB54"/>
<path d="M1456.85 617.173C1452.11 627.038 1448 637.201 1444.57 647.598C1450.51 648.933 1456.35 650.049 1462.09 650.948C1459.37 639.861 1457.61 628.56 1456.85 617.173Z" fill="#FFBB54"/>
</g>
</g>
<defs>
<filter id="filter0_f_17481_6201" x="-695" y="0" width="1135" height="1135" filterUnits="userSpaceOnUse" color-interpolation-filters="sRGB">
<feFlood flood-opacity="0" result="BackgroundImageFix"/>
<feBlend mode="normal" in="SourceGraphic" in2="BackgroundImageFix" result="shape"/>
<feGaussianBlur stdDeviation="87" result="effect1_foregroundBlur_17481_6201"/>
</filter>
<filter id="filter1_f_17481_6201" x="906.355" y="78" width="1221.58" height="1221.58" filterUnits="userSpaceOnUse" color-interpolation-filters="sRGB">
<feFlood flood-opacity="0" result="BackgroundImageFix"/>
<feBlend mode="normal" in="SourceGraphic" in2="BackgroundImageFix" result="shape"/>
<feGaussianBlur stdDeviation="77" result="effect1_foregroundBlur_17481_6201"/>
</filter>
<clipPath id="clip0_17481_6201">
<rect width="798" height="494" fill="white" transform="matrix(-0.707107 -0.707107 -0.707107 0.707107 1938.58 831.627)"/>
</clipPath>
<clipPath id="clip1_17481_6201">
<rect width="798" height="494" fill="white" transform="matrix(-0.707107 -0.707107 -0.707107 0.707107 1973.94 796.271)"/>
</clipPath>
</defs>
</svg>
