<svg width="33" height="32" viewBox="0 0 33 32" fill="none" xmlns="http://www.w3.org/2000/svg">
<path d="M30.0059 16C30.0059 23.728 23.7409 30 16.0059 30C8.27086 30 2.00586 23.728 2.00586 16C2.00586 8.265 8.27086 2 16.0059 2C23.7409 2 30.0059 8.265 30.0059 16Z" fill="#FFBB54"/>
<path d="M22.568 12.4574C22.4916 12.502 20.6729 13.4425 20.6729 15.5279C20.7586 17.9061 22.968 18.7401 23.0059 18.7401C22.968 18.7847 22.6723 19.8763 21.7965 21.0205C21.1015 22.0062 20.3301 23 19.1586 23C18.0444 23 17.6444 22.3431 16.3586 22.3431C14.9779 22.3431 14.5872 23 13.5301 23C12.3586 23 11.5301 21.953 10.7971 20.9766C9.84496 19.6986 9.03564 17.6931 9.00707 15.7675C8.98781 14.7471 9.19775 13.744 9.73067 12.8921C10.4828 11.7026 11.8257 10.8952 13.2922 10.8686C14.4158 10.8333 15.4158 11.5875 16.1015 11.5875C16.7586 11.5875 17.9872 10.8686 19.3773 10.8686C19.9773 10.8692 21.5773 11.0376 22.568 12.4574ZM16.0065 10.6649C15.8065 9.73303 16.3586 8.80119 16.8729 8.20677C17.5301 7.48792 18.568 7 19.463 7C19.5201 7.93185 19.158 8.84575 18.5108 9.51136C17.9301 10.2302 16.9301 10.7714 16.0065 10.6649Z" fill="#08071B"/>
</svg>
