<svg width="33" height="32" viewBox="0 0 33 32" fill="none" xmlns="http://www.w3.org/2000/svg">
<path d="M30.0072 16.3114C30.0072 15.1603 29.9119 14.3203 29.7057 13.4492H16.293V18.6447H24.1659C24.0072 19.9359 23.1501 21.8803 21.2453 23.1869L21.2186 23.3609L25.4595 26.5805L25.7533 26.6092C28.4516 24.167 30.0072 20.5736 30.0072 16.3114Z" fill="#FFBB54"/>
<path d="M16.2922 29.9998C20.1492 29.9998 23.3873 28.7553 25.7524 26.6086L21.2445 23.1863C20.0382 24.0108 18.4191 24.5863 16.2922 24.5863C12.5144 24.5863 9.30811 22.1441 8.16515 18.7686L7.99762 18.7825L3.58794 22.127L3.53027 22.2841C5.87945 26.8574 10.7048 29.9998 16.2922 29.9998Z" fill="#FFBB54"/>
<path d="M8.16599 18.769C7.86441 17.8979 7.68987 16.9645 7.68987 16.0001C7.68987 15.0356 7.86441 14.1023 8.15012 13.2312L8.14213 13.0456L3.67718 9.64746L3.5311 9.71556C2.56289 11.6134 2.00732 13.7445 2.00732 16.0001C2.00732 18.2556 2.56289 20.3867 3.5311 22.2845L8.16599 18.769Z" fill="#FFBB54"/>
<path d="M16.2922 7.4133C18.9747 7.4133 20.7842 8.54885 21.816 9.4978L25.8478 5.64C23.3716 3.38445 20.1493 2 16.2922 2C10.7049 2 5.87946 5.1422 3.53027 9.71549L8.14931 13.2311C9.30815 9.85555 12.5145 7.4133 16.2922 7.4133Z" fill="#FFBB54"/>
</svg>
