<svg width="54" height="54" viewBox="0 0 54 54" fill="none" xmlns="http://www.w3.org/2000/svg">
<path fill-rule="evenodd" clip-rule="evenodd" d="M24 19H30C32.761 19 35 21.239 35 24V30C35 32.761 32.761 35 30 35H24C21.239 35 19 32.761 19 30V24C19 21.239 21.239 19 24 19ZM30 33.5C31.93 33.5 33.5 31.93 33.5 30V24C33.5 22.07 31.93 20.5 30 20.5H24C22.07 20.5 20.5 22.07 20.5 24V30C20.5 31.93 22.07 33.5 24 33.5H30Z" fill="#FFBB54"/>
<path fill-rule="evenodd" clip-rule="evenodd" d="M23 27C23 24.791 24.791 23 27 23C29.209 23 31 24.791 31 27C31 29.209 29.209 31 27 31C24.791 31 23 29.209 23 27ZM24.5 27C24.5 28.378 25.622 29.5 27 29.5C28.378 29.5 29.5 28.378 29.5 27C29.5 25.621 28.378 24.5 27 24.5C25.622 24.5 24.5 25.621 24.5 27Z" fill="#FFBB54"/>
<circle cx="31.3" cy="22.7" r="0.533" fill="#FFBB54"/>
<rect opacity="0.4" x="0.75" y="0.75" width="52.5" height="52.5" rx="13.25" stroke="#FFBB54" stroke-width="1.5"/>
</svg>
