<svg width="18" height="18" viewBox="0 0 18 18" fill="none" xmlns="http://www.w3.org/2000/svg">
<path d="M12.4974 0.666992L5.51403 0.666992C2.4807 0.666992 0.672363 2.47533 0.672363 5.50866L0.672363 12.4837C0.672363 15.5253 2.4807 17.3337 5.51403 17.3337L12.489 17.3337C15.5224 17.3337 17.3307 15.5253 17.3307 12.492L17.3307 5.50866C17.339 2.47533 15.5307 0.666992 12.4974 0.666992ZM12.989 7.08366L8.26403 11.8087C8.14736 11.9253 7.98903 11.992 7.82236 11.992C7.6557 11.992 7.49736 11.9253 7.3807 11.8087L5.02236 9.45033C4.7807 9.20866 4.7807 8.80866 5.02236 8.56699C5.26403 8.32533 5.66403 8.32533 5.9057 8.56699L7.82236 10.4837L12.1057 6.20033C12.3474 5.95866 12.7474 5.95866 12.989 6.20033C13.2307 6.44199 13.2307 6.83366 12.989 7.08366Z" fill="#FFBB54"/>
</svg>
