<svg width="54" height="54" viewBox="0 0 54 54" fill="none" xmlns="http://www.w3.org/2000/svg">
<path d="M36.5556 20.881C35.8283 21.2 35.0534 21.4114 34.2456 21.5141C35.0767 21.0179 35.711 20.2381 36.0092 19.2982C35.2343 19.7602 34.3788 20.0866 33.467 20.2687C32.7312 19.4852 31.6826 19 30.5386 19C28.319 19 26.5321 20.8016 26.5321 23.0101C26.5321 23.3279 26.559 23.6334 26.625 23.9243C23.292 23.7618 20.3428 22.1643 18.3616 19.7309C18.0157 20.331 17.8128 21.0179 17.8128 21.7573C17.8128 23.1458 18.5278 24.3766 19.5936 25.0891C18.9494 25.0769 18.3176 24.8899 17.7822 24.5953C17.7822 24.6076 17.7822 24.6234 17.7822 24.6393C17.7822 26.5876 19.1719 28.2058 20.9942 28.5786C20.6679 28.6678 20.3122 28.7106 19.9431 28.7106C19.6864 28.7106 19.4273 28.6959 19.1841 28.6421C19.7036 30.2298 21.1776 31.397 22.9302 31.4349C21.5662 32.5019 19.8343 33.1448 17.9594 33.1448C17.6307 33.1448 17.3153 33.1301 17 33.0898C18.7759 34.235 20.8806 34.8889 23.1502 34.8889C30.5276 34.8889 34.5609 28.7778 34.5609 23.4807C34.5609 23.3034 34.5548 23.1323 34.5462 22.9624C35.3419 22.3978 36.0104 21.6926 36.5556 20.881Z" fill="#FFBB54"/>
<rect opacity="0.4" x="0.75" y="0.75" width="52.5" height="52.5" rx="13.25" stroke="#FFBB54" stroke-width="1.5"/>
</svg>
